<mxfile host="app.diagrams.net" modified="2020-06-29T09:35:35.485Z" agent="5.0 (Macintosh; Intel Mac OS X 10_15_5) AppleWebKit/537.36 (KHTML, like Gecko) Chrome/83.0.4103.106 Safari/537.36" etag="p4QbbyS90rt923oW3Fo0" version="13.3.5" type="github" pages="15">
  <diagram id="86Uga7-Gd4g3QrR7SwTo" name="主框架">
    <mxGraphModel dx="3235" dy="1958" grid="1" gridSize="10" guides="1" tooltips="1" connect="1" arrows="1" fold="1" page="1" pageScale="1" pageWidth="1169" pageHeight="827" math="0" shadow="0">
      <root>
        <mxCell id="0" />
        <mxCell id="1" parent="0" />
        <mxCell id="ge_ubduK_eUvUoq6MuhH-8" value="" style="rounded=1;whiteSpace=wrap;html=1;fillColor=#ffe6cc;strokeColor=#d79b00;arcSize=8;" parent="1" vertex="1">
          <mxGeometry x="80" y="200" width="930" height="250" as="geometry" />
        </mxCell>
        <mxCell id="ge_ubduK_eUvUoq6MuhH-6" value="定位" style="rounded=0;whiteSpace=wrap;html=1;" parent="1" vertex="1">
          <mxGeometry x="120" y="250" width="120" height="160" as="geometry" />
        </mxCell>
        <mxCell id="ge_ubduK_eUvUoq6MuhH-7" value="室内算路" style="rounded=0;whiteSpace=wrap;html=1;" parent="1" vertex="1">
          <mxGeometry x="260" y="250" width="120" height="160" as="geometry" />
        </mxCell>
        <mxCell id="ge_ubduK_eUvUoq6MuhH-9" value="跨平台层" style="text;html=1;strokeColor=none;fillColor=none;align=center;verticalAlign=middle;whiteSpace=wrap;rounded=0;" parent="1" vertex="1">
          <mxGeometry x="84" y="210" width="66" height="20" as="geometry" />
        </mxCell>
        <mxCell id="jLUdKfTGCnAxgIvCnTzw-3" value="" style="group;strokeColor=#000000;" parent="1" vertex="1" connectable="0">
          <mxGeometry x="410" y="250" width="550" height="160" as="geometry" />
        </mxCell>
        <mxCell id="ge_ubduK_eUvUoq6MuhH-1" value="" style="rounded=0;whiteSpace=wrap;html=1;" parent="jLUdKfTGCnAxgIvCnTzw-3" vertex="1">
          <mxGeometry width="550" height="160" as="geometry" />
        </mxCell>
        <mxCell id="ge_ubduK_eUvUoq6MuhH-2" value="AR SDK" style="text;html=1;strokeColor=none;fillColor=none;align=center;verticalAlign=middle;whiteSpace=wrap;rounded=0;" parent="jLUdKfTGCnAxgIvCnTzw-3" vertex="1">
          <mxGeometry x="10" y="10" width="60" height="20" as="geometry" />
        </mxCell>
        <mxCell id="ge_ubduK_eUvUoq6MuhH-3" value="AR 步导业务层" style="rounded=0;whiteSpace=wrap;html=1;" parent="jLUdKfTGCnAxgIvCnTzw-3" vertex="1">
          <mxGeometry x="70" y="10" width="460" height="40" as="geometry" />
        </mxCell>
        <mxCell id="ge_ubduK_eUvUoq6MuhH-4" value="渲染引擎(OpenGL/Metal)" style="rounded=0;whiteSpace=wrap;html=1;" parent="jLUdKfTGCnAxgIvCnTzw-3" vertex="1">
          <mxGeometry x="30" y="100" width="240" height="40" as="geometry" />
        </mxCell>
        <mxCell id="ge_ubduK_eUvUoq6MuhH-5" value="VPS/SVP" style="rounded=0;whiteSpace=wrap;html=1;" parent="jLUdKfTGCnAxgIvCnTzw-3" vertex="1">
          <mxGeometry x="290" y="100" width="240" height="40" as="geometry" />
        </mxCell>
        <mxCell id="jLUdKfTGCnAxgIvCnTzw-61" value="平台特性隔离层" style="rounded=0;whiteSpace=wrap;html=1;" parent="jLUdKfTGCnAxgIvCnTzw-3" vertex="1">
          <mxGeometry x="30" y="60" width="500" height="30" as="geometry" />
        </mxCell>
        <mxCell id="jLUdKfTGCnAxgIvCnTzw-6" value="" style="rounded=1;whiteSpace=wrap;html=1;fillColor=#f8cecc;arcSize=9;strokeColor=#b85450;" parent="1" vertex="1">
          <mxGeometry x="80" y="490" width="930" height="250" as="geometry" />
        </mxCell>
        <mxCell id="jLUdKfTGCnAxgIvCnTzw-7" value="服务" style="text;html=1;strokeColor=none;fillColor=none;align=center;verticalAlign=middle;whiteSpace=wrap;rounded=0;" parent="1" vertex="1">
          <mxGeometry x="80" y="510" width="40" height="20" as="geometry" />
        </mxCell>
        <mxCell id="jLUdKfTGCnAxgIvCnTzw-11" value="视觉定位服务" style="rounded=0;whiteSpace=wrap;html=1;" parent="1" vertex="1">
          <mxGeometry x="120" y="630" width="120" height="80" as="geometry" />
        </mxCell>
        <mxCell id="jLUdKfTGCnAxgIvCnTzw-12" value="算路服务" style="rounded=0;whiteSpace=wrap;html=1;" parent="1" vertex="1">
          <mxGeometry x="260" y="630" width="120" height="30" as="geometry" />
        </mxCell>
        <mxCell id="jLUdKfTGCnAxgIvCnTzw-13" value="诱导服务" style="rounded=0;whiteSpace=wrap;html=1;" parent="1" vertex="1">
          <mxGeometry x="260" y="680" width="120" height="30" as="geometry" />
        </mxCell>
        <mxCell id="jLUdKfTGCnAxgIvCnTzw-17" value="仿真数据上/下载服务" style="rounded=0;whiteSpace=wrap;html=1;" parent="1" vertex="1">
          <mxGeometry x="700" y="630" width="260" height="80" as="geometry" />
        </mxCell>
        <mxCell id="jLUdKfTGCnAxgIvCnTzw-19" value="云控平台策略更新服务" style="rounded=0;whiteSpace=wrap;html=1;" parent="1" vertex="1">
          <mxGeometry x="410" y="630" width="260" height="80" as="geometry" />
        </mxCell>
        <mxCell id="jLUdKfTGCnAxgIvCnTzw-20" value="" style="rounded=1;whiteSpace=wrap;html=1;fillColor=#fff2cc;arcSize=8;strokeColor=#d6b656;" parent="1" vertex="1">
          <mxGeometry x="75" y="780" width="930" height="230" as="geometry" />
        </mxCell>
        <mxCell id="jLUdKfTGCnAxgIvCnTzw-21" value="数据" style="text;html=1;strokeColor=none;fillColor=none;align=center;verticalAlign=middle;whiteSpace=wrap;rounded=0;" parent="1" vertex="1">
          <mxGeometry x="85" y="800" width="40" height="20" as="geometry" />
        </mxCell>
        <mxCell id="jLUdKfTGCnAxgIvCnTzw-23" value="图像指纹库" style="shape=datastore;whiteSpace=wrap;html=1;" parent="1" vertex="1">
          <mxGeometry x="120" y="865" width="110" height="105" as="geometry" />
        </mxCell>
        <mxCell id="jLUdKfTGCnAxgIvCnTzw-24" value="路网数据" style="shape=datastore;whiteSpace=wrap;html=1;" parent="1" vertex="1">
          <mxGeometry x="265" y="865" width="110" height="105" as="geometry" />
        </mxCell>
        <mxCell id="jLUdKfTGCnAxgIvCnTzw-25" value="样本库" style="shape=datastore;whiteSpace=wrap;html=1;" parent="1" vertex="1">
          <mxGeometry x="775" y="865" width="110" height="105" as="geometry" />
        </mxCell>
        <mxCell id="jLUdKfTGCnAxgIvCnTzw-26" value="" style="rounded=1;whiteSpace=wrap;html=1;strokeColor=#82b366;fillColor=#d5e8d4;arcSize=13;" parent="1" vertex="1">
          <mxGeometry x="-180" y="490" width="190" height="250" as="geometry" />
        </mxCell>
        <mxCell id="jLUdKfTGCnAxgIvCnTzw-27" value="地图制作平台" style="text;html=1;strokeColor=none;fillColor=none;align=center;verticalAlign=middle;whiteSpace=wrap;rounded=0;" parent="1" vertex="1">
          <mxGeometry x="-145" y="510" width="80" height="20" as="geometry" />
        </mxCell>
        <mxCell id="jLUdKfTGCnAxgIvCnTzw-28" value="HMI" style="rounded=0;whiteSpace=wrap;html=1;" parent="1" vertex="1">
          <mxGeometry x="-145" y="540" width="120" height="60" as="geometry" />
        </mxCell>
        <mxCell id="jLUdKfTGCnAxgIvCnTzw-29" value="三维地图工具" style="rounded=0;whiteSpace=wrap;html=1;" parent="1" vertex="1">
          <mxGeometry x="-145" y="640" width="120" height="60" as="geometry" />
        </mxCell>
        <mxCell id="jLUdKfTGCnAxgIvCnTzw-30" value="采集" style="shape=umlActor;verticalLabelPosition=bottom;labelBackgroundColor=#ffffff;verticalAlign=top;html=1;outlineConnect=0;strokeColor=#000000;fillColor=#DAE8FC;" parent="1" vertex="1">
          <mxGeometry x="-110" y="210" width="50" height="100" as="geometry" />
        </mxCell>
        <mxCell id="jLUdKfTGCnAxgIvCnTzw-35" value="" style="rounded=1;whiteSpace=wrap;html=1;strokeColor=#82b366;fillColor=#d5e8d4;arcSize=13;" parent="1" vertex="1">
          <mxGeometry x="1060" y="490" width="190" height="250" as="geometry" />
        </mxCell>
        <mxCell id="jLUdKfTGCnAxgIvCnTzw-36" value="仿真数据平台" style="text;html=1;strokeColor=none;fillColor=none;align=center;verticalAlign=middle;whiteSpace=wrap;rounded=0;" parent="1" vertex="1">
          <mxGeometry x="1095" y="510" width="80" height="20" as="geometry" />
        </mxCell>
        <mxCell id="jLUdKfTGCnAxgIvCnTzw-37" value="数据可视化" style="rounded=0;whiteSpace=wrap;html=1;" parent="1" vertex="1">
          <mxGeometry x="1095" y="540" width="120" height="60" as="geometry" />
        </mxCell>
        <mxCell id="jLUdKfTGCnAxgIvCnTzw-38" value="自动化测试工具" style="rounded=0;whiteSpace=wrap;html=1;" parent="1" vertex="1">
          <mxGeometry x="1095" y="640" width="120" height="60" as="geometry" />
        </mxCell>
        <mxCell id="jLUdKfTGCnAxgIvCnTzw-39" value="" style="html=1;shadow=0;dashed=0;align=center;verticalAlign=middle;shape=mxgraph.arrows2.twoWayArrow;dy=0.65;dx=22;strokeColor=#000000;fillColor=#DAE8FC;rotation=90;" parent="1" vertex="1">
          <mxGeometry x="70" y="490" width="220" height="60" as="geometry" />
        </mxCell>
        <mxCell id="jLUdKfTGCnAxgIvCnTzw-41" value="" style="html=1;shadow=0;dashed=0;align=center;verticalAlign=middle;shape=mxgraph.arrows2.twoWayArrow;dy=0.65;dx=22;strokeColor=#000000;fillColor=#DAE8FC;rotation=90;" parent="1" vertex="1">
          <mxGeometry x="210" y="490" width="220" height="60" as="geometry" />
        </mxCell>
        <mxCell id="jLUdKfTGCnAxgIvCnTzw-42" value="" style="html=1;shadow=0;dashed=0;align=center;verticalAlign=middle;shape=mxgraph.arrows2.twoWayArrow;dy=0.65;dx=22;strokeColor=#000000;fillColor=#DAE8FC;rotation=90;" parent="1" vertex="1">
          <mxGeometry x="430" y="490" width="220" height="60" as="geometry" />
        </mxCell>
        <mxCell id="jLUdKfTGCnAxgIvCnTzw-43" value="" style="html=1;shadow=0;dashed=0;align=center;verticalAlign=middle;shape=mxgraph.arrows2.twoWayArrow;dy=0.65;dx=22;strokeColor=#000000;fillColor=#DAE8FC;rotation=90;" parent="1" vertex="1">
          <mxGeometry x="720" y="490" width="220" height="60" as="geometry" />
        </mxCell>
        <mxCell id="jLUdKfTGCnAxgIvCnTzw-10" value="手图后台服务" style="rounded=0;whiteSpace=wrap;html=1;" parent="1" vertex="1">
          <mxGeometry x="120" y="520" width="840" height="60" as="geometry" />
        </mxCell>
        <mxCell id="jLUdKfTGCnAxgIvCnTzw-44" value="" style="html=1;shadow=0;dashed=0;align=center;verticalAlign=middle;shape=mxgraph.arrows2.twoWayArrow;dy=0.65;dx=22;strokeColor=#000000;fillColor=#DAE8FC;rotation=90;" parent="1" vertex="1">
          <mxGeometry x="760" y="760" width="140" height="60" as="geometry" />
        </mxCell>
        <mxCell id="jLUdKfTGCnAxgIvCnTzw-45" value="" style="html=1;shadow=0;dashed=0;align=center;verticalAlign=middle;shape=mxgraph.arrows2.twoWayArrow;dy=0.65;dx=22;strokeColor=#000000;fillColor=#DAE8FC;rotation=90;" parent="1" vertex="1">
          <mxGeometry x="250" y="760" width="140" height="60" as="geometry" />
        </mxCell>
        <mxCell id="jLUdKfTGCnAxgIvCnTzw-46" value="" style="html=1;shadow=0;dashed=0;align=center;verticalAlign=middle;shape=mxgraph.arrows2.twoWayArrow;dy=0.65;dx=22;strokeColor=#000000;fillColor=#DAE8FC;rotation=90;" parent="1" vertex="1">
          <mxGeometry x="110" y="760" width="140" height="60" as="geometry" />
        </mxCell>
        <mxCell id="jLUdKfTGCnAxgIvCnTzw-47" value="" style="shape=singleArrow;direction=west;whiteSpace=wrap;html=1;strokeColor=#000000;fillColor=#DAE8FC;rotation=-90;" parent="1" vertex="1">
          <mxGeometry x="-135" y="383" width="100" height="60" as="geometry" />
        </mxCell>
        <mxCell id="jLUdKfTGCnAxgIvCnTzw-48" value="" style="html=1;shadow=0;dashed=0;align=center;verticalAlign=middle;shape=mxgraph.arrows2.bendArrow;dy=15;dx=38;notch=0;arrowHead=55;rounded=1;strokeColor=#000000;fillColor=#DAE8FC;rotation=90;direction=north;flipH=1;" parent="1" vertex="1">
          <mxGeometry x="-119.84" y="739.52" width="230.32" height="198.08" as="geometry" />
        </mxCell>
        <mxCell id="jLUdKfTGCnAxgIvCnTzw-49" value="" style="html=1;shadow=0;dashed=0;align=center;verticalAlign=middle;shape=mxgraph.arrows2.bendArrow;dy=15;dx=38;notch=0;arrowHead=55;rounded=1;strokeColor=#000000;fillColor=#DAE8FC;rotation=0;direction=north;flipH=1;" parent="1" vertex="1">
          <mxGeometry x="910" y="720" width="280.32" height="220" as="geometry" />
        </mxCell>
        <mxCell id="jLUdKfTGCnAxgIvCnTzw-50" value="" style="endArrow=none;dashed=1;html=1;strokeWidth=3;" parent="1" edge="1">
          <mxGeometry width="50" height="50" relative="1" as="geometry">
            <mxPoint x="50" y="600" as="sourcePoint" />
            <mxPoint x="250" y="1080" as="targetPoint" />
            <Array as="points">
              <mxPoint x="250" y="600" />
            </Array>
          </mxGeometry>
        </mxCell>
        <mxCell id="jLUdKfTGCnAxgIvCnTzw-51" value="" style="endArrow=none;dashed=1;html=1;strokeWidth=3;" parent="1" edge="1">
          <mxGeometry width="50" height="50" relative="1" as="geometry">
            <mxPoint x="-200" y="170" as="sourcePoint" />
            <mxPoint x="50" y="600" as="targetPoint" />
            <Array as="points">
              <mxPoint x="50" y="170" />
            </Array>
          </mxGeometry>
        </mxCell>
        <mxCell id="jLUdKfTGCnAxgIvCnTzw-52" value="" style="endArrow=none;dashed=1;html=1;strokeWidth=3;" parent="1" edge="1">
          <mxGeometry width="50" height="50" relative="1" as="geometry">
            <mxPoint x="-200" y="1080" as="sourcePoint" />
            <mxPoint x="-200" y="170" as="targetPoint" />
          </mxGeometry>
        </mxCell>
        <mxCell id="jLUdKfTGCnAxgIvCnTzw-53" value="" style="endArrow=none;dashed=1;html=1;strokeWidth=3;" parent="1" edge="1">
          <mxGeometry width="50" height="50" relative="1" as="geometry">
            <mxPoint x="-200" y="1080" as="sourcePoint" />
            <mxPoint x="250" y="1080" as="targetPoint" />
          </mxGeometry>
        </mxCell>
        <mxCell id="jLUdKfTGCnAxgIvCnTzw-54" value="" style="rounded=1;whiteSpace=wrap;html=1;strokeColor=#000000;fillColor=none;dashed=1;strokeWidth=3;arcSize=8;" parent="1" vertex="1">
          <mxGeometry x="255" y="600" width="135" height="480" as="geometry" />
        </mxCell>
        <mxCell id="mucKTUWWDkMtE_MBK47c-3" value="" style="rounded=1;whiteSpace=wrap;html=1;strokeWidth=2;fillColor=#DAE8FC;strokeColor=#6c8ebf;" parent="1" vertex="1">
          <mxGeometry x="80" y="-40" width="930" height="200" as="geometry" />
        </mxCell>
        <mxCell id="mucKTUWWDkMtE_MBK47c-1" value="Android/iOS 客户端" style="text;html=1;strokeColor=none;fillColor=none;align=center;verticalAlign=middle;whiteSpace=wrap;rounded=0;" parent="1" vertex="1">
          <mxGeometry x="90" y="-30" width="110" height="20" as="geometry" />
        </mxCell>
        <mxCell id="jLUdKfTGCnAxgIvCnTzw-56" value="步行导航算路诱导模块" style="rounded=0;whiteSpace=wrap;html=1;strokeWidth=1;opacity=40;" parent="1" vertex="1">
          <mxGeometry x="115" y="70" width="325" height="80" as="geometry" />
        </mxCell>
        <mxCell id="mucKTUWWDkMtE_MBK47c-4" value="" style="rounded=0;whiteSpace=wrap;html=1;strokeWidth=1;opacity=40;" parent="1" vertex="1">
          <mxGeometry x="450" y="70" width="530" height="80" as="geometry" />
        </mxCell>
        <mxCell id="mucKTUWWDkMtE_MBK47c-5" value="虚拟硬件层" style="text;html=1;strokeColor=none;fillColor=none;align=center;verticalAlign=middle;whiteSpace=wrap;rounded=0;opacity=40;" parent="1" vertex="1">
          <mxGeometry x="460" y="70" width="75" height="20" as="geometry" />
        </mxCell>
        <mxCell id="mucKTUWWDkMtE_MBK47c-6" value="虚拟硬件接口" style="rounded=0;whiteSpace=wrap;html=1;strokeWidth=1;opacity=40;" parent="1" vertex="1">
          <mxGeometry x="460" y="97" width="510" height="20" as="geometry" />
        </mxCell>
        <mxCell id="mucKTUWWDkMtE_MBK47c-7" value="回放模块" style="rounded=0;whiteSpace=wrap;html=1;strokeWidth=1;opacity=40;" parent="1" vertex="1">
          <mxGeometry x="460" y="124" width="120" height="20" as="geometry" />
        </mxCell>
        <mxCell id="mucKTUWWDkMtE_MBK47c-8" value="摄像头" style="rounded=0;whiteSpace=wrap;html=1;strokeWidth=1;opacity=40;" parent="1" vertex="1">
          <mxGeometry x="590" y="124" width="120" height="20" as="geometry" />
        </mxCell>
        <mxCell id="mucKTUWWDkMtE_MBK47c-9" value="传感器" style="rounded=0;whiteSpace=wrap;html=1;strokeWidth=1;opacity=40;" parent="1" vertex="1">
          <mxGeometry x="720" y="124" width="120" height="20" as="geometry" />
        </mxCell>
        <mxCell id="mucKTUWWDkMtE_MBK47c-10" value="定位" style="rounded=0;whiteSpace=wrap;html=1;strokeWidth=1;opacity=40;" parent="1" vertex="1">
          <mxGeometry x="850" y="124" width="120" height="20" as="geometry" />
        </mxCell>
        <mxCell id="jLUdKfTGCnAxgIvCnTzw-57" value="HMI" style="rounded=0;whiteSpace=wrap;html=1;strokeWidth=1;opacity=40;" parent="1" vertex="1">
          <mxGeometry x="115" y="10" width="865" height="50" as="geometry" />
        </mxCell>
      </root>
    </mxGraphModel>
  </diagram>
  <diagram id="rXjsK7iyBgoGzdfQK3q-" name="初定位">
    
    <mxGraphModel dx="2066" dy="1082" grid="1" gridSize="10" guides="1" tooltips="1" connect="1" arrows="1" fold="1" page="1" pageScale="1" pageWidth="1169" pageHeight="827" math="0" shadow="0">
      
      <root>
        
        <mxCell id="4wMwwAwJHmHZ2aeerODU-0" />
        
        <mxCell id="4wMwwAwJHmHZ2aeerODU-1" parent="4wMwwAwJHmHZ2aeerODU-0" />
        
        <mxCell id="Sz-qq_Lz4wDUT8mBAdxe-2" value="loop" style="shape=umlFrame;whiteSpace=wrap;html=1;fillColor=#f5f5f5;strokeColor=#666666;fontColor=#333333;strokeWidth=2;" parent="4wMwwAwJHmHZ2aeerODU-1" vertex="1">
          
          <mxGeometry x="110" y="400" width="960" height="310" as="geometry" />
          
        </mxCell>
        
        <mxCell id="4wMwwAwJHmHZ2aeerODU-24" value="loop" style="shape=umlFrame;whiteSpace=wrap;html=1;fillColor=#f5f5f5;strokeColor=#666666;fontColor=#333333;strokeWidth=2;" parent="4wMwwAwJHmHZ2aeerODU-1" vertex="1">
          
          <mxGeometry x="110" y="130" width="610" height="233" as="geometry" />
          
        </mxCell>
        
        <mxCell id="4wMwwAwJHmHZ2aeerODU-2" value=":客户端&amp;nbsp;" style="shape=umlLifeline;perimeter=lifelinePerimeter;whiteSpace=wrap;html=1;container=1;collapsible=0;recursiveResize=0;outlineConnect=0;flipH=1;flipV=0;" parent="4wMwwAwJHmHZ2aeerODU-1" vertex="1">
          
          <mxGeometry x="150" y="70" width="100" height="640" as="geometry" />
          
        </mxCell>
        
        <mxCell id="4wMwwAwJHmHZ2aeerODU-14" value="" style="html=1;points=[];perimeter=orthogonalPerimeter;" parent="4wMwwAwJHmHZ2aeerODU-2" vertex="1">
          
          <mxGeometry x="45" y="70" width="10" height="560" as="geometry" />
          
        </mxCell>
        
        <mxCell id="Sz-qq_Lz4wDUT8mBAdxe-0" value="" style="html=1;points=[];perimeter=orthogonalPerimeter;" parent="4wMwwAwJHmHZ2aeerODU-2" vertex="1">
          
          <mxGeometry x="50" y="461" width="10" height="40" as="geometry" />
          
        </mxCell>
        
        <mxCell id="Sz-qq_Lz4wDUT8mBAdxe-1" value="记录姿态变化历史" style="edgeStyle=orthogonalEdgeStyle;html=1;align=left;spacingLeft=2;endArrow=block;rounded=0;entryX=1;entryY=0;" parent="4wMwwAwJHmHZ2aeerODU-2" target="Sz-qq_Lz4wDUT8mBAdxe-0" edge="1">
          
          <mxGeometry relative="1" as="geometry">
            
            <mxPoint x="55" y="441" as="sourcePoint" />
            
            <Array as="points">
              
              <mxPoint x="80" y="441" />
              
            </Array>
            
          </mxGeometry>
          
        </mxCell>
        
        <mxCell id="Sz-qq_Lz4wDUT8mBAdxe-3" value="" style="html=1;points=[];perimeter=orthogonalPerimeter;" parent="4wMwwAwJHmHZ2aeerODU-2" vertex="1">
          
          <mxGeometry x="50" y="580" width="10" height="40" as="geometry" />
          
        </mxCell>
        
        <mxCell id="Sz-qq_Lz4wDUT8mBAdxe-4" value="拿到初始位置，回溯姿态变化历史，完成初定位" style="edgeStyle=orthogonalEdgeStyle;html=1;align=left;spacingLeft=2;endArrow=block;rounded=0;entryX=1;entryY=0;" parent="4wMwwAwJHmHZ2aeerODU-2" target="Sz-qq_Lz4wDUT8mBAdxe-3" edge="1">
          
          <mxGeometry relative="1" as="geometry">
            
            <mxPoint x="55" y="560" as="sourcePoint" />
            
            <Array as="points">
              
              <mxPoint x="80" y="560" />
              
            </Array>
            
          </mxGeometry>
          
        </mxCell>
        
        <mxCell id="4wMwwAwJHmHZ2aeerODU-3" value=":定位" style="shape=umlLifeline;perimeter=lifelinePerimeter;whiteSpace=wrap;html=1;container=1;collapsible=0;recursiveResize=0;outlineConnect=0;flipH=1;flipV=0;" parent="4wMwwAwJHmHZ2aeerODU-1" vertex="1">
          
          <mxGeometry x="313" y="70" width="100" height="640" as="geometry" />
          
        </mxCell>
        
        <mxCell id="4wMwwAwJHmHZ2aeerODU-8" value="" style="html=1;points=[];perimeter=orthogonalPerimeter;" parent="4wMwwAwJHmHZ2aeerODU-3" vertex="1">
          
          <mxGeometry x="45" y="80" width="10" height="80" as="geometry" />
          
        </mxCell>
        
        <mxCell id="4wMwwAwJHmHZ2aeerODU-4" value=":传感器" style="shape=umlLifeline;perimeter=lifelinePerimeter;whiteSpace=wrap;html=1;container=1;collapsible=0;recursiveResize=0;outlineConnect=0;flipH=1;flipV=0;" parent="4wMwwAwJHmHZ2aeerODU-1" vertex="1">
          
          <mxGeometry x="476" y="70" width="100" height="640" as="geometry" />
          
        </mxCell>
        
        <mxCell id="4wMwwAwJHmHZ2aeerODU-11" value="" style="html=1;points=[];perimeter=orthogonalPerimeter;" parent="4wMwwAwJHmHZ2aeerODU-4" vertex="1">
          
          <mxGeometry x="45" y="97" width="10" height="80" as="geometry" />
          
        </mxCell>
        
        <mxCell id="4wMwwAwJHmHZ2aeerODU-5" value=":视觉定位服务" style="shape=umlLifeline;perimeter=lifelinePerimeter;whiteSpace=wrap;html=1;container=1;collapsible=0;recursiveResize=0;outlineConnect=0;flipH=1;flipV=0;" parent="4wMwwAwJHmHZ2aeerODU-1" vertex="1">
          
          <mxGeometry x="802" y="70" width="100" height="640" as="geometry" />
          
        </mxCell>
        
        <mxCell id="4wMwwAwJHmHZ2aeerODU-6" value=":ARCore" style="shape=umlLifeline;perimeter=lifelinePerimeter;whiteSpace=wrap;html=1;container=1;collapsible=0;recursiveResize=0;outlineConnect=0;flipH=1;flipV=0;" parent="4wMwwAwJHmHZ2aeerODU-1" vertex="1">
          
          <mxGeometry x="965" y="70" width="100" height="640" as="geometry" />
          
        </mxCell>
        
        <mxCell id="4wMwwAwJHmHZ2aeerODU-31" value="" style="html=1;points=[];perimeter=orthogonalPerimeter;" parent="4wMwwAwJHmHZ2aeerODU-6" vertex="1">
          
          <mxGeometry x="45" y="350" width="10" height="80" as="geometry" />
          
        </mxCell>
        
        <mxCell id="4wMwwAwJHmHZ2aeerODU-9" value="请求定位" style="html=1;verticalAlign=bottom;endArrow=block;entryX=0;entryY=0;exitX=1;exitY=0.018;exitDx=0;exitDy=0;exitPerimeter=0;" parent="4wMwwAwJHmHZ2aeerODU-1" source="4wMwwAwJHmHZ2aeerODU-14" target="4wMwwAwJHmHZ2aeerODU-8" edge="1">
          
          <mxGeometry relative="1" as="geometry">
            
            <mxPoint x="250" y="156" as="sourcePoint" />
            
          </mxGeometry>
          
        </mxCell>
        
        <mxCell id="4wMwwAwJHmHZ2aeerODU-10" value="融合定位结果" style="html=1;verticalAlign=bottom;endArrow=open;dashed=1;endSize=8;exitX=0;exitY=0.95;entryX=0.9;entryY=0.155;entryDx=0;entryDy=0;entryPerimeter=0;" parent="4wMwwAwJHmHZ2aeerODU-1" source="4wMwwAwJHmHZ2aeerODU-8" target="4wMwwAwJHmHZ2aeerODU-14" edge="1">
          
          <mxGeometry relative="1" as="geometry">
            
            <mxPoint x="250" y="226" as="targetPoint" />
            
          </mxGeometry>
          
        </mxCell>
        
        <mxCell id="4wMwwAwJHmHZ2aeerODU-12" value="请求设备姿态" style="html=1;verticalAlign=bottom;endArrow=block;entryX=0;entryY=0;exitX=1.2;exitY=0.046;exitDx=0;exitDy=0;exitPerimeter=0;" parent="4wMwwAwJHmHZ2aeerODU-1" source="4wMwwAwJHmHZ2aeerODU-14" target="4wMwwAwJHmHZ2aeerODU-11" edge="1">
          
          <mxGeometry x="0.4154" relative="1" as="geometry">
            
            <mxPoint x="230" y="167" as="sourcePoint" />
            
            <mxPoint as="offset" />
            
          </mxGeometry>
          
        </mxCell>
        
        <mxCell id="4wMwwAwJHmHZ2aeerODU-13" value="融合姿态结果" style="html=1;verticalAlign=bottom;endArrow=open;dashed=1;endSize=8;exitX=0;exitY=0.95;entryX=0.9;entryY=0.353;entryDx=0;entryDy=0;entryPerimeter=0;" parent="4wMwwAwJHmHZ2aeerODU-1" source="4wMwwAwJHmHZ2aeerODU-11" edge="1">
          
          <mxGeometry x="-0.3968" relative="1" as="geometry">
            
            <mxPoint x="204" y="244.08000000000004" as="targetPoint" />
            
            <mxPoint as="offset" />
            
          </mxGeometry>
          
        </mxCell>
        
        <mxCell id="4wMwwAwJHmHZ2aeerODU-15" value=":摄像头" style="shape=umlLifeline;perimeter=lifelinePerimeter;whiteSpace=wrap;html=1;container=1;collapsible=0;recursiveResize=0;outlineConnect=0;flipH=1;flipV=0;" parent="4wMwwAwJHmHZ2aeerODU-1" vertex="1">
          
          <mxGeometry x="639" y="70" width="100" height="640" as="geometry" />
          
        </mxCell>
        
        <mxCell id="4wMwwAwJHmHZ2aeerODU-19" value="" style="html=1;points=[];perimeter=orthogonalPerimeter;" parent="4wMwwAwJHmHZ2aeerODU-1" vertex="1">
          
          <mxGeometry x="685" y="187.16" width="10" height="80" as="geometry" />
          
        </mxCell>
        
        <mxCell id="4wMwwAwJHmHZ2aeerODU-20" value="请求图片" style="html=1;verticalAlign=bottom;endArrow=block;entryX=0;entryY=0;exitX=0.9;exitY=0.084;exitDx=0;exitDy=0;exitPerimeter=0;" parent="4wMwwAwJHmHZ2aeerODU-1" source="4wMwwAwJHmHZ2aeerODU-14" target="4wMwwAwJHmHZ2aeerODU-19" edge="1">
          
          <mxGeometry x="0.7292" relative="1" as="geometry">
            
            <mxPoint x="230" y="187" as="sourcePoint" />
            
            <mxPoint as="offset" />
            
          </mxGeometry>
          
        </mxCell>
        
        <mxCell id="4wMwwAwJHmHZ2aeerODU-21" value="返回图片帧" style="html=1;verticalAlign=bottom;endArrow=open;dashed=1;endSize=8;exitX=0;exitY=0.95;entryX=0.9;entryY=0.225;entryDx=0;entryDy=0;entryPerimeter=0;" parent="4wMwwAwJHmHZ2aeerODU-1" source="4wMwwAwJHmHZ2aeerODU-19" target="4wMwwAwJHmHZ2aeerODU-14" edge="1">
          
          <mxGeometry x="-0.7297" y="1" relative="1" as="geometry">
            
            <mxPoint x="250" y="264" as="targetPoint" />
            
            <mxPoint as="offset" />
            
          </mxGeometry>
          
        </mxCell>
        
        <mxCell id="4wMwwAwJHmHZ2aeerODU-22" value="" style="html=1;points=[];perimeter=orthogonalPerimeter;" parent="4wMwwAwJHmHZ2aeerODU-1" vertex="1">
          
          <mxGeometry x="200" y="307" width="10" height="40" as="geometry" />
          
        </mxCell>
        
        <mxCell id="4wMwwAwJHmHZ2aeerODU-23" value="对齐时间戳" style="edgeStyle=orthogonalEdgeStyle;html=1;align=left;spacingLeft=2;endArrow=block;rounded=0;entryX=1;entryY=0;" parent="4wMwwAwJHmHZ2aeerODU-1" target="4wMwwAwJHmHZ2aeerODU-22" edge="1">
          
          <mxGeometry relative="1" as="geometry">
            
            <mxPoint x="205" y="287" as="sourcePoint" />
            
            <Array as="points">
              
              <mxPoint x="230" y="287" />
              
            </Array>
            
          </mxGeometry>
          
        </mxCell>
        
        <mxCell id="4wMwwAwJHmHZ2aeerODU-26" value="要求用户扫描环境的过程，需要循环几次以达到视觉定位服务的要求" style="shape=note;whiteSpace=wrap;html=1;size=14;verticalAlign=top;align=left;spacingTop=-6;" parent="4wMwwAwJHmHZ2aeerODU-1" vertex="1">
          
          <mxGeometry x="50" y="194.66" width="120" height="65" as="geometry" />
          
        </mxCell>
        
        <mxCell id="4wMwwAwJHmHZ2aeerODU-27" value="" style="html=1;points=[];perimeter=orthogonalPerimeter;" parent="4wMwwAwJHmHZ2aeerODU-1" vertex="1">
          
          <mxGeometry x="847" y="390" width="10" height="230" as="geometry" />
          
        </mxCell>
        
        <mxCell id="4wMwwAwJHmHZ2aeerODU-28" value="将扫描结果和设备参数上传服务端" style="html=1;verticalAlign=bottom;endArrow=block;entryX=0;entryY=0;exitX=1;exitY=0.445;exitDx=0;exitDy=0;exitPerimeter=0;" parent="4wMwwAwJHmHZ2aeerODU-1" source="4wMwwAwJHmHZ2aeerODU-14" target="4wMwwAwJHmHZ2aeerODU-27" edge="1">
          
          <mxGeometry x="0.0125" relative="1" as="geometry">
            
            <mxPoint x="250" y="390" as="sourcePoint" />
            
            <mxPoint as="offset" />
            
          </mxGeometry>
          
        </mxCell>
        
        <mxCell id="4wMwwAwJHmHZ2aeerODU-29" value="返回精准定位、姿态结果" style="html=1;verticalAlign=bottom;endArrow=open;dashed=1;endSize=8;exitX=0;exitY=0.95;entryX=0.9;entryY=0.834;entryDx=0;entryDy=0;entryPerimeter=0;" parent="4wMwwAwJHmHZ2aeerODU-1" source="4wMwwAwJHmHZ2aeerODU-27" target="4wMwwAwJHmHZ2aeerODU-14" edge="1">
          
          <mxGeometry relative="1" as="geometry">
            
            <mxPoint x="210" y="466" as="targetPoint" />
            
          </mxGeometry>
          
        </mxCell>
        
        <mxCell id="4wMwwAwJHmHZ2aeerODU-32" value="VSLAM 视觉定位" style="html=1;verticalAlign=bottom;endArrow=block;entryX=0;entryY=0;exitX=1;exitY=0.502;exitDx=0;exitDy=0;exitPerimeter=0;" parent="4wMwwAwJHmHZ2aeerODU-1" source="4wMwwAwJHmHZ2aeerODU-14" target="4wMwwAwJHmHZ2aeerODU-31" edge="1">
          
          <mxGeometry relative="1" as="geometry">
            
            <mxPoint x="210" y="420" as="sourcePoint" />
            
          </mxGeometry>
          
        </mxCell>
        
        <mxCell id="4wMwwAwJHmHZ2aeerODU-33" value="返回设备姿态变化" style="html=1;verticalAlign=bottom;endArrow=open;dashed=1;endSize=8;exitX=0;exitY=0.95;entryX=1;entryY=0.636;entryDx=0;entryDy=0;entryPerimeter=0;" parent="4wMwwAwJHmHZ2aeerODU-1" source="4wMwwAwJHmHZ2aeerODU-31" target="4wMwwAwJHmHZ2aeerODU-14" edge="1">
          
          <mxGeometry relative="1" as="geometry">
            
            <mxPoint x="210" y="496" as="targetPoint" />
            
          </mxGeometry>
          
        </mxCell>
        
        <mxCell id="Sz-qq_Lz4wDUT8mBAdxe-5" value="break" style="shape=umlFrame;whiteSpace=wrap;html=1;fillColor=#f5f5f5;strokeColor=#666666;fontColor=#333333;strokeWidth=2;" parent="4wMwwAwJHmHZ2aeerODU-1" vertex="1">
          
          <mxGeometry x="120" y="580" width="780" height="120" as="geometry" />
          
        </mxCell>
        
        <mxCell id="Sz-qq_Lz4wDUT8mBAdxe-6" value="请求服务后不断记录姿态变化，直到定位结果返回后进行回溯，还原当前姿态" style="shape=note;whiteSpace=wrap;html=1;size=14;verticalAlign=top;align=left;spacingTop=-6;" parent="4wMwwAwJHmHZ2aeerODU-1" vertex="1">
          
          <mxGeometry x="50" y="450" width="130" height="70" as="geometry" />
          
        </mxCell>
        
      </root>
      
    </mxGraphModel>
    
  </diagram>
  <diagram id="aoKItWOMVOx22W9CqkT0" name="SDK 架构">
    
    <mxGraphModel dx="2066" dy="1909" grid="1" gridSize="10" guides="1" tooltips="1" connect="1" arrows="1" fold="1" page="1" pageScale="1" pageWidth="1169" pageHeight="827" math="0" shadow="0">
      
      <root>
        
        <mxCell id="duzhnhxsUObR2SBZS6n_-0" />
        
        <mxCell id="duzhnhxsUObR2SBZS6n_-1" parent="duzhnhxsUObR2SBZS6n_-0" />
        
        <mxCell id="t6lNiz7gk1nAzPXqGg71-11" value="" style="rounded=1;whiteSpace=wrap;html=1;strokeWidth=2;fillColor=#DAE8FC;strokeColor=#6c8ebf;" parent="duzhnhxsUObR2SBZS6n_-1" vertex="1">
          
          <mxGeometry x="80" y="-40" width="930" height="140" as="geometry" />
          
        </mxCell>
        
        <mxCell id="t6lNiz7gk1nAzPXqGg71-12" value="Android/iOS 客户端" style="text;html=1;strokeColor=none;fillColor=none;align=center;verticalAlign=middle;whiteSpace=wrap;rounded=0;" parent="duzhnhxsUObR2SBZS6n_-1" vertex="1">
          
          <mxGeometry x="90" y="-30" width="110" height="20" as="geometry" />
          
        </mxCell>
        
        <mxCell id="t6lNiz7gk1nAzPXqGg71-22" value="" style="group" parent="duzhnhxsUObR2SBZS6n_-1" vertex="1" connectable="0">
          
          <mxGeometry x="110" y="4" width="420" height="80" as="geometry" />
          
        </mxCell>
        
        <mxCell id="t6lNiz7gk1nAzPXqGg71-14" value="" style="rounded=0;whiteSpace=wrap;html=1;strokeWidth=1;opacity=40;" parent="t6lNiz7gk1nAzPXqGg71-22" vertex="1">
          
          <mxGeometry width="420" height="80" as="geometry" />
          
        </mxCell>
        
        <mxCell id="t6lNiz7gk1nAzPXqGg71-15" value="虚拟硬件层" style="text;html=1;strokeColor=none;fillColor=none;align=center;verticalAlign=middle;whiteSpace=wrap;rounded=0;opacity=40;" parent="t6lNiz7gk1nAzPXqGg71-22" vertex="1">
          
          <mxGeometry x="10.5" width="78.75" height="20" as="geometry" />
          
        </mxCell>
        
        <mxCell id="t6lNiz7gk1nAzPXqGg71-16" value="虚拟硬件接口" style="rounded=0;whiteSpace=wrap;html=1;strokeWidth=1;opacity=40;" parent="t6lNiz7gk1nAzPXqGg71-22" vertex="1">
          
          <mxGeometry x="10.5" y="27" width="399" height="20" as="geometry" />
          
        </mxCell>
        
        <mxCell id="t6lNiz7gk1nAzPXqGg71-18" value="摄像头" style="rounded=0;whiteSpace=wrap;html=1;strokeWidth=1;opacity=40;" parent="t6lNiz7gk1nAzPXqGg71-22" vertex="1">
          
          <mxGeometry x="10.5" y="54" width="126" height="20" as="geometry" />
          
        </mxCell>
        
        <mxCell id="t6lNiz7gk1nAzPXqGg71-19" value="传感器" style="rounded=0;whiteSpace=wrap;html=1;strokeWidth=1;opacity=40;" parent="t6lNiz7gk1nAzPXqGg71-22" vertex="1">
          
          <mxGeometry x="147" y="54" width="126" height="20" as="geometry" />
          
        </mxCell>
        
        <mxCell id="t6lNiz7gk1nAzPXqGg71-20" value="定位" style="rounded=0;whiteSpace=wrap;html=1;strokeWidth=1;opacity=40;" parent="t6lNiz7gk1nAzPXqGg71-22" vertex="1">
          
          <mxGeometry x="283.5" y="54" width="126" height="20" as="geometry" />
          
        </mxCell>
        
        <mxCell id="t6lNiz7gk1nAzPXqGg71-24" value="" style="group" parent="duzhnhxsUObR2SBZS6n_-1" vertex="1" connectable="0">
          
          <mxGeometry x="560" y="4" width="420" height="80" as="geometry" />
          
        </mxCell>
        
        <mxCell id="t6lNiz7gk1nAzPXqGg71-25" value="" style="rounded=0;whiteSpace=wrap;html=1;strokeWidth=1;opacity=40;" parent="t6lNiz7gk1nAzPXqGg71-24" vertex="1">
          
          <mxGeometry width="420" height="80" as="geometry" />
          
        </mxCell>
        
        <mxCell id="t6lNiz7gk1nAzPXqGg71-31" value="服务" style="text;html=1;strokeColor=none;fillColor=none;align=center;verticalAlign=middle;whiteSpace=wrap;rounded=0;opacity=40;" parent="t6lNiz7gk1nAzPXqGg71-24" vertex="1">
          
          <mxGeometry width="78.75" height="20" as="geometry" />
          
        </mxCell>
        
        <mxCell id="t6lNiz7gk1nAzPXqGg71-32" value="云控" style="rounded=0;whiteSpace=wrap;html=1;strokeWidth=1;opacity=40;" parent="t6lNiz7gk1nAzPXqGg71-24" vertex="1">
          
          <mxGeometry x="10" y="30" width="126" height="40" as="geometry" />
          
        </mxCell>
        
        <mxCell id="t6lNiz7gk1nAzPXqGg71-33" value="" style="rounded=0;whiteSpace=wrap;html=1;strokeWidth=1;opacity=40;" parent="t6lNiz7gk1nAzPXqGg71-24" vertex="1">
          
          <mxGeometry x="150" y="10" width="250" height="60" as="geometry" />
          
        </mxCell>
        
        <mxCell id="t6lNiz7gk1nAzPXqGg71-34" value="LBS" style="text;html=1;strokeColor=none;fillColor=none;align=center;verticalAlign=middle;whiteSpace=wrap;rounded=0;opacity=40;" parent="t6lNiz7gk1nAzPXqGg71-24" vertex="1">
          
          <mxGeometry x="136" y="10" width="78.75" height="20" as="geometry" />
          
        </mxCell>
        
        <mxCell id="t6lNiz7gk1nAzPXqGg71-35" value="检索" style="rounded=0;whiteSpace=wrap;html=1;strokeWidth=1;opacity=40;" parent="t6lNiz7gk1nAzPXqGg71-24" vertex="1">
          
          <mxGeometry x="160" y="30" width="70" height="30" as="geometry" />
          
        </mxCell>
        
        <mxCell id="t6lNiz7gk1nAzPXqGg71-36" value="算路" style="rounded=0;whiteSpace=wrap;html=1;strokeWidth=1;opacity=40;" parent="t6lNiz7gk1nAzPXqGg71-24" vertex="1">
          
          <mxGeometry x="240" y="30" width="70" height="30" as="geometry" />
          
        </mxCell>
        
        <mxCell id="t6lNiz7gk1nAzPXqGg71-37" value="诱导" style="rounded=0;whiteSpace=wrap;html=1;strokeWidth=1;opacity=40;" parent="t6lNiz7gk1nAzPXqGg71-24" vertex="1">
          
          <mxGeometry x="320" y="30" width="70" height="30" as="geometry" />
          
        </mxCell>
        
        <mxCell id="_VySb7bE7HB7u--kEI4v-3" value="" style="group" parent="duzhnhxsUObR2SBZS6n_-1" vertex="1" connectable="0">
          
          <mxGeometry x="80" y="130" width="1130" height="318" as="geometry" />
          
        </mxCell>
        
        <mxCell id="t6lNiz7gk1nAzPXqGg71-0" value="" style="rounded=1;whiteSpace=wrap;html=1;fillColor=#ffe6cc;strokeColor=#d79b00;arcSize=8;" parent="_VySb7bE7HB7u--kEI4v-3" vertex="1">
          
          <mxGeometry width="930" height="318" as="geometry" />
          
        </mxCell>
        
        <mxCell id="HB6DdpQP7Ivl0IrVhryP-19" value="CommonLib" style="rounded=0;whiteSpace=wrap;html=1;strokeWidth=1;opacity=40;" parent="_VySb7bE7HB7u--kEI4v-3" vertex="1">
          
          <mxGeometry x="29.5" y="260" width="870" height="40" as="geometry" />
          
        </mxCell>
        
        <mxCell id="_VySb7bE7HB7u--kEI4v-2" value="" style="group" parent="_VySb7bE7HB7u--kEI4v-3" vertex="1" connectable="0">
          
          <mxGeometry x="480" y="118" width="420" height="130" as="geometry" />
          
        </mxCell>
        
        <mxCell id="HB6DdpQP7Ivl0IrVhryP-11" value="" style="rounded=0;whiteSpace=wrap;html=1;strokeWidth=1;opacity=40;" parent="_VySb7bE7HB7u--kEI4v-2" vertex="1">
          
          <mxGeometry width="190" height="130" as="geometry" />
          
        </mxCell>
        
        <mxCell id="HB6DdpQP7Ivl0IrVhryP-12" value="定位" style="text;html=1;strokeColor=none;fillColor=none;align=center;verticalAlign=middle;whiteSpace=wrap;rounded=0;opacity=40;" parent="_VySb7bE7HB7u--kEI4v-2" vertex="1">
          
          <mxGeometry y="8" width="60" height="20" as="geometry" />
          
        </mxCell>
        
        <mxCell id="HB6DdpQP7Ivl0IrVhryP-13" value="VPS" style="rounded=0;whiteSpace=wrap;html=1;strokeWidth=1;opacity=40;" parent="_VySb7bE7HB7u--kEI4v-2" vertex="1">
          
          <mxGeometry x="9.63" y="35" width="50.37" height="83" as="geometry" />
          
        </mxCell>
        
        <mxCell id="_VySb7bE7HB7u--kEI4v-0" value="SVP" style="rounded=0;whiteSpace=wrap;html=1;strokeWidth=1;opacity=40;" parent="_VySb7bE7HB7u--kEI4v-2" vertex="1">
          
          <mxGeometry x="70" y="35" width="50" height="83" as="geometry" />
          
        </mxCell>
        
        <mxCell id="_VySb7bE7HB7u--kEI4v-1" value="PDR" style="rounded=0;whiteSpace=wrap;html=1;strokeWidth=1;opacity=40;" parent="_VySb7bE7HB7u--kEI4v-2" vertex="1">
          
          <mxGeometry x="130" y="35" width="50" height="83" as="geometry" />
          
        </mxCell>
        
        <mxCell id="HB6DdpQP7Ivl0IrVhryP-9" value="" style="group" parent="_VySb7bE7HB7u--kEI4v-3" vertex="1" connectable="0">
          
          <mxGeometry x="20" y="118" width="429.5" height="130" as="geometry" />
          
        </mxCell>
        
        <mxCell id="HB6DdpQP7Ivl0IrVhryP-2" value="" style="rounded=0;whiteSpace=wrap;html=1;strokeWidth=1;opacity=40;" parent="HB6DdpQP7Ivl0IrVhryP-9" vertex="1">
          
          <mxGeometry x="9.5" width="420" height="130" as="geometry" />
          
        </mxCell>
        
        <mxCell id="HB6DdpQP7Ivl0IrVhryP-3" value="渲染" style="text;html=1;strokeColor=none;fillColor=none;align=center;verticalAlign=middle;whiteSpace=wrap;rounded=0;opacity=40;" parent="HB6DdpQP7Ivl0IrVhryP-9" vertex="1">
          
          <mxGeometry y="10" width="78.75" height="20" as="geometry" />
          
        </mxCell>
        
        <mxCell id="HB6DdpQP7Ivl0IrVhryP-4" value="渲染接口接口" style="rounded=0;whiteSpace=wrap;html=1;strokeWidth=1;opacity=40;" parent="HB6DdpQP7Ivl0IrVhryP-9" vertex="1">
          
          <mxGeometry x="20.5" y="37" width="399" height="20" as="geometry" />
          
        </mxCell>
        
        <mxCell id="HB6DdpQP7Ivl0IrVhryP-5" value="Vulkan" style="rounded=0;whiteSpace=wrap;html=1;strokeWidth=1;opacity=40;" parent="HB6DdpQP7Ivl0IrVhryP-9" vertex="1">
          
          <mxGeometry x="20" y="100" width="126" height="20" as="geometry" />
          
        </mxCell>
        
        <mxCell id="HB6DdpQP7Ivl0IrVhryP-6" value="OpenGL" style="rounded=0;whiteSpace=wrap;html=1;strokeWidth=1;opacity=40;" parent="HB6DdpQP7Ivl0IrVhryP-9" vertex="1">
          
          <mxGeometry x="156.5" y="100" width="126" height="20" as="geometry" />
          
        </mxCell>
        
        <mxCell id="HB6DdpQP7Ivl0IrVhryP-7" value="Metal" style="rounded=0;whiteSpace=wrap;html=1;strokeWidth=1;opacity=40;" parent="HB6DdpQP7Ivl0IrVhryP-9" vertex="1">
          
          <mxGeometry x="293" y="100" width="126" height="20" as="geometry" />
          
        </mxCell>
        
        <mxCell id="HB6DdpQP7Ivl0IrVhryP-8" value="Filament" style="rounded=0;whiteSpace=wrap;html=1;strokeWidth=1;opacity=40;" parent="HB6DdpQP7Ivl0IrVhryP-9" vertex="1">
          
          <mxGeometry x="20" y="70" width="399" height="20" as="geometry" />
          
        </mxCell>
        
        <mxCell id="HB6DdpQP7Ivl0IrVhryP-30" value="" style="group" parent="_VySb7bE7HB7u--kEI4v-3" vertex="1" connectable="0">
          
          <mxGeometry x="30" y="48" width="870" height="60" as="geometry" />
          
        </mxCell>
        
        <mxCell id="HB6DdpQP7Ivl0IrVhryP-20" value="" style="rounded=0;whiteSpace=wrap;html=1;strokeWidth=1;opacity=40;" parent="HB6DdpQP7Ivl0IrVhryP-30" vertex="1">
          
          <mxGeometry width="870" height="60" as="geometry" />
          
        </mxCell>
        
        <mxCell id="HB6DdpQP7Ivl0IrVhryP-22" value="AR 业务" style="rounded=0;whiteSpace=wrap;html=1;strokeWidth=1;opacity=40;" parent="HB6DdpQP7Ivl0IrVhryP-30" vertex="1">
          
          <mxGeometry x="10" y="10" width="410" height="40" as="geometry" />
          
        </mxCell>
        
        <mxCell id="HB6DdpQP7Ivl0IrVhryP-23" value="" style="rounded=0;whiteSpace=wrap;html=1;strokeWidth=1;opacity=40;" parent="HB6DdpQP7Ivl0IrVhryP-30" vertex="1">
          
          <mxGeometry x="450" y="10" width="404.75" height="40" as="geometry" />
          
        </mxCell>
        
        <mxCell id="HB6DdpQP7Ivl0IrVhryP-24" value="仿真" style="text;html=1;strokeColor=none;fillColor=none;align=center;verticalAlign=middle;whiteSpace=wrap;rounded=0;opacity=40;" parent="HB6DdpQP7Ivl0IrVhryP-30" vertex="1">
          
          <mxGeometry x="450" y="10" width="78.75" height="20" as="geometry" />
          
        </mxCell>
        
        <mxCell id="HB6DdpQP7Ivl0IrVhryP-25" value="记录" style="rounded=0;whiteSpace=wrap;html=1;strokeWidth=1;opacity=40;" parent="HB6DdpQP7Ivl0IrVhryP-30" vertex="1">
          
          <mxGeometry x="525.75" y="15" width="154.25" height="30" as="geometry" />
          
        </mxCell>
        
        <mxCell id="HB6DdpQP7Ivl0IrVhryP-29" value="回放" style="rounded=0;whiteSpace=wrap;html=1;strokeWidth=1;opacity=40;" parent="HB6DdpQP7Ivl0IrVhryP-30" vertex="1">
          
          <mxGeometry x="690" y="15" width="154.25" height="30" as="geometry" />
          
        </mxCell>
        
        <mxCell id="t6lNiz7gk1nAzPXqGg71-3" value="跨平台层" style="text;html=1;strokeColor=none;fillColor=none;align=center;verticalAlign=middle;whiteSpace=wrap;rounded=0;" parent="_VySb7bE7HB7u--kEI4v-3" vertex="1">
          
          <mxGeometry x="30" y="18" width="66" height="20" as="geometry" />
          
        </mxCell>
        
        <mxCell id="U3sWHZorCyToU6C0vTS_-0" value="" style="group" parent="_VySb7bE7HB7u--kEI4v-3" vertex="1" connectable="0">
          
          <mxGeometry x="710" y="118" width="420" height="130" as="geometry" />
          
        </mxCell>
        
        <mxCell id="U3sWHZorCyToU6C0vTS_-1" value="" style="rounded=0;whiteSpace=wrap;html=1;strokeWidth=1;opacity=40;" parent="U3sWHZorCyToU6C0vTS_-0" vertex="1">
          
          <mxGeometry width="190" height="130" as="geometry" />
          
        </mxCell>
        
        <mxCell id="U3sWHZorCyToU6C0vTS_-2" value="视觉" style="text;html=1;strokeColor=none;fillColor=none;align=center;verticalAlign=middle;whiteSpace=wrap;rounded=0;opacity=40;" parent="U3sWHZorCyToU6C0vTS_-0" vertex="1">
          
          <mxGeometry y="8" width="60" height="20" as="geometry" />
          
        </mxCell>
        
        <mxCell id="U3sWHZorCyToU6C0vTS_-3" value="面检测" style="rounded=0;whiteSpace=wrap;html=1;strokeWidth=1;opacity=40;" parent="U3sWHZorCyToU6C0vTS_-0" vertex="1">
          
          <mxGeometry x="9.63" y="35" width="80.37" height="83" as="geometry" />
          
        </mxCell>
        
        <mxCell id="U3sWHZorCyToU6C0vTS_-4" value="光估测" style="rounded=0;whiteSpace=wrap;html=1;strokeWidth=1;opacity=40;" parent="U3sWHZorCyToU6C0vTS_-0" vertex="1">
          
          <mxGeometry x="100" y="35" width="80" height="83" as="geometry" />
          
        </mxCell>
        
      </root>
      
    </mxGraphModel>
    
  </diagram>
  <diagram id="TWDtwbbbYCuu7N62EjiG" name="SDK 依赖关系">
    
    <mxGraphModel dx="1426" dy="722" grid="1" gridSize="10" guides="1" tooltips="1" connect="1" arrows="1" fold="1" page="1" pageScale="1" pageWidth="1169" pageHeight="827" math="0" shadow="0">
      
      <root>
        
        <mxCell id="1JbGiqTbldFuixK0KKK1-0" />
        
        <mxCell id="1JbGiqTbldFuixK0KKK1-1" parent="1JbGiqTbldFuixK0KKK1-0" />
        
        <mxCell id="1JbGiqTbldFuixK0KKK1-2" value="nitro" style="shape=folder;fontStyle=1;spacingTop=10;tabWidth=40;tabHeight=14;tabPosition=left;html=1;" parent="1JbGiqTbldFuixK0KKK1-1" vertex="1">
          
          <mxGeometry x="370" y="70" width="70" height="50" as="geometry" />
          
        </mxCell>
        
        <mxCell id="1JbGiqTbldFuixK0KKK1-3" value="Use" style="endArrow=open;endSize=12;dashed=1;html=1;exitX=0.5;exitY=1;exitDx=0;exitDy=0;exitPerimeter=0;" parent="1JbGiqTbldFuixK0KKK1-1" source="1JbGiqTbldFuixK0KKK1-2" edge="1">
          
          <mxGeometry width="160" relative="1" as="geometry">
            
            <mxPoint x="280" y="260" as="sourcePoint" />
            
            <mxPoint x="310" y="180" as="targetPoint" />
            
          </mxGeometry>
          
        </mxCell>
        
        <mxCell id="1JbGiqTbldFuixK0KKK1-4" value="vps" style="shape=folder;fontStyle=1;spacingTop=10;tabWidth=40;tabHeight=14;tabPosition=left;html=1;" parent="1JbGiqTbldFuixK0KKK1-1" vertex="1">
          
          <mxGeometry x="290" y="180" width="70" height="50" as="geometry" />
          
        </mxCell>
        
        <mxCell id="1JbGiqTbldFuixK0KKK1-5" value="bulb" style="shape=folder;fontStyle=1;spacingTop=10;tabWidth=40;tabHeight=14;tabPosition=left;html=1;" parent="1JbGiqTbldFuixK0KKK1-1" vertex="1">
          
          <mxGeometry x="460" y="180" width="70" height="50" as="geometry" />
          
        </mxCell>
        
        <mxCell id="1JbGiqTbldFuixK0KKK1-6" value="Use" style="endArrow=open;endSize=12;dashed=1;html=1;exitX=0.5;exitY=1;exitDx=0;exitDy=0;exitPerimeter=0;entryX=0;entryY=0;entryDx=20;entryDy=0;entryPerimeter=0;" parent="1JbGiqTbldFuixK0KKK1-1" source="1JbGiqTbldFuixK0KKK1-2" target="1JbGiqTbldFuixK0KKK1-5" edge="1">
          
          <mxGeometry width="160" relative="1" as="geometry">
            
            <mxPoint x="415" y="130" as="sourcePoint" />
            
            <mxPoint x="320" y="190" as="targetPoint" />
            
          </mxGeometry>
          
        </mxCell>
        
        <mxCell id="1JbGiqTbldFuixK0KKK1-7" value="opencv" style="shape=folder;fontStyle=1;spacingTop=10;tabWidth=40;tabHeight=14;tabPosition=left;html=1;" parent="1JbGiqTbldFuixK0KKK1-1" vertex="1">
          
          <mxGeometry x="165" y="300" width="70" height="50" as="geometry" />
          
        </mxCell>
        
        <mxCell id="1JbGiqTbldFuixK0KKK1-8" value="filament" style="shape=folder;fontStyle=1;spacingTop=10;tabWidth=40;tabHeight=14;tabPosition=left;html=1;" parent="1JbGiqTbldFuixK0KKK1-1" vertex="1">
          
          <mxGeometry x="570" y="300" width="70" height="50" as="geometry" />
          
        </mxCell>
        
        <mxCell id="1JbGiqTbldFuixK0KKK1-10" value="Use" style="endArrow=open;endSize=12;dashed=1;html=1;exitX=0.5;exitY=1;exitDx=0;exitDy=0;exitPerimeter=0;entryX=0;entryY=0;entryDx=20;entryDy=0;entryPerimeter=0;" parent="1JbGiqTbldFuixK0KKK1-1" edge="1" target="1JbGiqTbldFuixK0KKK1-7">
          
          <mxGeometry width="160" relative="1" as="geometry">
            
            <mxPoint x="320" y="230" as="sourcePoint" />
            
            <mxPoint x="320" y="300" as="targetPoint" />
            
          </mxGeometry>
          
        </mxCell>
        
        <mxCell id="1JbGiqTbldFuixK0KKK1-12" value="Use" style="endArrow=open;endSize=12;dashed=1;html=1;exitX=0.5;exitY=1;exitDx=0;exitDy=0;exitPerimeter=0;entryX=0;entryY=0;entryDx=20;entryDy=0;entryPerimeter=0;" parent="1JbGiqTbldFuixK0KKK1-1" edge="1" target="1JbGiqTbldFuixK0KKK1-8">
          
          <mxGeometry width="160" relative="1" as="geometry">
            
            <mxPoint x="490" y="230" as="sourcePoint" />
            
            <mxPoint x="490" y="300" as="targetPoint" />
            
          </mxGeometry>
          
        </mxCell>
        
        <mxCell id="nxB7JIhOYarKHgMwsvLa-0" value="CommonLib" style="shape=folder;fontStyle=1;spacingTop=10;tabWidth=40;tabHeight=14;tabPosition=left;html=1;" parent="1JbGiqTbldFuixK0KKK1-1" vertex="1">
          
          <mxGeometry x="365" y="300" width="70" height="50" as="geometry" />
          
        </mxCell>
        
        <mxCell id="nxB7JIhOYarKHgMwsvLa-1" value="Use" style="endArrow=open;endSize=12;dashed=1;html=1;exitX=0.5;exitY=1;exitDx=0;exitDy=0;exitPerimeter=0;entryX=0;entryY=0;entryDx=40;entryDy=0;entryPerimeter=0;" parent="1JbGiqTbldFuixK0KKK1-1" source="1JbGiqTbldFuixK0KKK1-2" target="nxB7JIhOYarKHgMwsvLa-0" edge="1">
          
          <mxGeometry width="160" relative="1" as="geometry">
            
            <mxPoint x="500" y="240" as="sourcePoint" />
            
            <mxPoint x="500" y="310" as="targetPoint" />
            
          </mxGeometry>
          
        </mxCell>
        
        <mxCell id="nxB7JIhOYarKHgMwsvLa-2" value="Use" style="endArrow=open;endSize=12;dashed=1;html=1;exitX=0.414;exitY=1.02;exitDx=0;exitDy=0;exitPerimeter=0;entryX=0;entryY=0;entryDx=40;entryDy=0;entryPerimeter=0;" parent="1JbGiqTbldFuixK0KKK1-1" source="1JbGiqTbldFuixK0KKK1-4" target="nxB7JIhOYarKHgMwsvLa-0" edge="1">
          
          <mxGeometry width="160" relative="1" as="geometry">
            
            <mxPoint x="505" y="360" as="sourcePoint" />
            
            <mxPoint x="420" y="424" as="targetPoint" />
            
          </mxGeometry>
          
        </mxCell>
        
        <mxCell id="yLkldG7_DS28uVMzZyUt-0" value="Use" style="endArrow=open;endSize=12;dashed=1;html=1;exitX=0.5;exitY=1;exitDx=0;exitDy=0;exitPerimeter=0;" edge="1" parent="1JbGiqTbldFuixK0KKK1-1" source="1JbGiqTbldFuixK0KKK1-5">
          
          <mxGeometry width="160" relative="1" as="geometry">
            
            <mxPoint x="500" y="240" as="sourcePoint" />
            
            <mxPoint x="400" y="300" as="targetPoint" />
            
          </mxGeometry>
          
        </mxCell>
        
        <mxCell id="yLkldG7_DS28uVMzZyUt-1" value="curl" style="shape=folder;fontStyle=1;spacingTop=10;tabWidth=40;tabHeight=14;tabPosition=left;html=1;" vertex="1" parent="1JbGiqTbldFuixK0KKK1-1">
          
          <mxGeometry x="360" y="410" width="70" height="50" as="geometry" />
          
        </mxCell>
        
        <mxCell id="yLkldG7_DS28uVMzZyUt-2" value="Use" style="endArrow=open;endSize=12;dashed=1;html=1;exitX=0.5;exitY=1;exitDx=0;exitDy=0;exitPerimeter=0;entryX=0;entryY=0;entryDx=40;entryDy=0;entryPerimeter=0;" edge="1" parent="1JbGiqTbldFuixK0KKK1-1" source="nxB7JIhOYarKHgMwsvLa-0" target="yLkldG7_DS28uVMzZyUt-1">
          
          <mxGeometry width="160" relative="1" as="geometry">
            
            <mxPoint x="415" y="130" as="sourcePoint" />
            
            <mxPoint x="415" y="310" as="targetPoint" />
            
          </mxGeometry>
          
        </mxCell>
        
      </root>
      
    </mxGraphModel>
    
  </diagram>
  <diagram id="XND00OO71azs6BMtvcFW" name="CommonLib">
    
    <mxGraphModel dx="1678" dy="849" grid="1" gridSize="10" guides="1" tooltips="1" connect="1" arrows="1" fold="1" page="1" pageScale="1" pageWidth="1169" pageHeight="827" math="0" shadow="0">
      
      <root>
        
        <mxCell id="2g4DHHmSI6E8O7NKzKdC-0" />
        
        <mxCell id="2g4DHHmSI6E8O7NKzKdC-1" parent="2g4DHHmSI6E8O7NKzKdC-0" />
        
        <mxCell id="2g4DHHmSI6E8O7NKzKdC-18" value="" style="group" vertex="1" connectable="0" parent="2g4DHHmSI6E8O7NKzKdC-1">
          
          <mxGeometry x="185" y="170" width="490" height="450" as="geometry" />
          
        </mxCell>
        
        <mxCell id="2g4DHHmSI6E8O7NKzKdC-2" value="" style="rounded=1;whiteSpace=wrap;html=1;fillColor=#e1d5e7;strokeColor=#9673a6;" vertex="1" parent="2g4DHHmSI6E8O7NKzKdC-18">
          
          <mxGeometry width="490" height="450" as="geometry" />
          
        </mxCell>
        
        <mxCell id="2g4DHHmSI6E8O7NKzKdC-3" value="CommonLib" style="text;html=1;strokeColor=none;fillColor=none;align=center;verticalAlign=middle;whiteSpace=wrap;rounded=0;" vertex="1" parent="2g4DHHmSI6E8O7NKzKdC-18">
          
          <mxGeometry x="35" y="20" width="70" height="30" as="geometry" />
          
        </mxCell>
        
        <mxCell id="2g4DHHmSI6E8O7NKzKdC-4" value="log" style="rounded=0;whiteSpace=wrap;html=1;opacity=40;" vertex="1" parent="2g4DHHmSI6E8O7NKzKdC-18">
          
          <mxGeometry x="35" y="350" width="120" height="60" as="geometry" />
          
        </mxCell>
        
        <mxCell id="2g4DHHmSI6E8O7NKzKdC-6" value="file" style="rounded=0;whiteSpace=wrap;html=1;opacity=40;" vertex="1" parent="2g4DHHmSI6E8O7NKzKdC-18">
          
          <mxGeometry x="35" y="270" width="120" height="60" as="geometry" />
          
        </mxCell>
        
        <mxCell id="2g4DHHmSI6E8O7NKzKdC-7" value="time" style="rounded=0;whiteSpace=wrap;html=1;opacity=40;" vertex="1" parent="2g4DHHmSI6E8O7NKzKdC-18">
          
          <mxGeometry x="185" y="350" width="120" height="60" as="geometry" />
          
        </mxCell>
        
        <mxCell id="2g4DHHmSI6E8O7NKzKdC-8" value="md5" style="rounded=0;whiteSpace=wrap;html=1;opacity=40;" vertex="1" parent="2g4DHHmSI6E8O7NKzKdC-18">
          
          <mxGeometry x="185" y="190" width="120" height="60" as="geometry" />
          
        </mxCell>
        
        <mxCell id="2g4DHHmSI6E8O7NKzKdC-9" value="image" style="rounded=0;whiteSpace=wrap;html=1;opacity=40;" vertex="1" parent="2g4DHHmSI6E8O7NKzKdC-18">
          
          <mxGeometry x="339.5" y="350" width="120" height="60" as="geometry" />
          
        </mxCell>
        
        <mxCell id="2g4DHHmSI6E8O7NKzKdC-10" value="memory" style="rounded=0;whiteSpace=wrap;html=1;opacity=40;" vertex="1" parent="2g4DHHmSI6E8O7NKzKdC-18">
          
          <mxGeometry x="340" y="190" width="120" height="60" as="geometry" />
          
        </mxCell>
        
        <mxCell id="2g4DHHmSI6E8O7NKzKdC-11" value="thread" style="rounded=0;whiteSpace=wrap;html=1;opacity=40;" vertex="1" parent="2g4DHHmSI6E8O7NKzKdC-18">
          
          <mxGeometry x="35" y="190" width="120" height="60" as="geometry" />
          
        </mxCell>
        
        <mxCell id="2g4DHHmSI6E8O7NKzKdC-12" value="threadPool" style="rounded=0;whiteSpace=wrap;html=1;opacity=40;" vertex="1" parent="2g4DHHmSI6E8O7NKzKdC-18">
          
          <mxGeometry x="340" y="270" width="120" height="60" as="geometry" />
          
        </mxCell>
        
        <mxCell id="2g4DHHmSI6E8O7NKzKdC-13" value="concurrent" style="rounded=0;whiteSpace=wrap;html=1;opacity=40;" vertex="1" parent="2g4DHHmSI6E8O7NKzKdC-18">
          
          <mxGeometry x="185" y="270" width="120" height="60" as="geometry" />
          
        </mxCell>
        
        <mxCell id="2g4DHHmSI6E8O7NKzKdC-14" value="Message" style="rounded=0;whiteSpace=wrap;html=1;opacity=40;fillColor=#D5E8D4;" vertex="1" parent="2g4DHHmSI6E8O7NKzKdC-18">
          
          <mxGeometry x="35" y="80" width="120" height="60" as="geometry" />
          
        </mxCell>
        
        <mxCell id="2g4DHHmSI6E8O7NKzKdC-15" value="Network" style="rounded=0;whiteSpace=wrap;html=1;opacity=40;fillColor=#D5E8D4;" vertex="1" parent="2g4DHHmSI6E8O7NKzKdC-18">
          
          <mxGeometry x="185" y="80" width="120" height="60" as="geometry" />
          
        </mxCell>
        
        <mxCell id="2g4DHHmSI6E8O7NKzKdC-16" value="Cache" style="rounded=0;whiteSpace=wrap;html=1;opacity=40;fillColor=#D5E8D4;" vertex="1" parent="2g4DHHmSI6E8O7NKzKdC-18">
          
          <mxGeometry x="339.5" y="80" width="120" height="60" as="geometry" />
          
        </mxCell>
        
        <mxCell id="2g4DHHmSI6E8O7NKzKdC-17" value="" style="endArrow=none;html=1;entryX=0.001;entryY=0.361;entryDx=0;entryDy=0;entryPerimeter=0;exitX=0.998;exitY=0.363;exitDx=0;exitDy=0;exitPerimeter=0;" edge="1" parent="2g4DHHmSI6E8O7NKzKdC-18" source="2g4DHHmSI6E8O7NKzKdC-2" target="2g4DHHmSI6E8O7NKzKdC-2">
          
          <mxGeometry width="50" height="50" relative="1" as="geometry">
            
            <mxPoint x="493" y="162" as="sourcePoint" />
            
            <mxPoint x="-5" y="160" as="targetPoint" />
            
          </mxGeometry>
          
        </mxCell>
        
      </root>
      
    </mxGraphModel>
    
  </diagram>
  <diagram id="JtszmwSyvsH9xvfzcXzn" name="Page-4">
    
    <mxGraphModel dx="2066" dy="1082" grid="1" gridSize="10" guides="1" tooltips="1" connect="1" arrows="1" fold="1" page="1" pageScale="1" pageWidth="1169" pageHeight="827" math="0" shadow="0">
      
      <root>
        
        <mxCell id="LQ6n20t6UjvWaJl3pfYY-0" />
        
        <mxCell id="LQ6n20t6UjvWaJl3pfYY-1" parent="LQ6n20t6UjvWaJl3pfYY-0" />
        
        <mxCell id="50T9GuiTfwRp7IYyB8Dv-0" value="" style="rounded=1;whiteSpace=wrap;html=1;strokeWidth=2;fillColor=#DAE8FC;strokeColor=#6c8ebf;" parent="LQ6n20t6UjvWaJl3pfYY-1" vertex="1">
          
          <mxGeometry x="113" y="192" width="930" height="480" as="geometry" />
          
        </mxCell>
        
        <mxCell id="50T9GuiTfwRp7IYyB8Dv-1" value="Android/iOS 客户端" style="text;html=1;strokeColor=none;fillColor=none;align=center;verticalAlign=middle;whiteSpace=wrap;rounded=0;" parent="LQ6n20t6UjvWaJl3pfYY-1" vertex="1">
          
          <mxGeometry x="150" y="200" width="110" height="20" as="geometry" />
          
        </mxCell>
        
        <mxCell id="50T9GuiTfwRp7IYyB8Dv-9" value="" style="group" parent="LQ6n20t6UjvWaJl3pfYY-1" vertex="1" connectable="0">
          
          <mxGeometry x="590" y="237" width="420" height="496" as="geometry" />
          
        </mxCell>
        
        <mxCell id="50T9GuiTfwRp7IYyB8Dv-10" value="" style="rounded=0;whiteSpace=wrap;html=1;strokeWidth=1;opacity=40;" parent="50T9GuiTfwRp7IYyB8Dv-9" vertex="1">
          
          <mxGeometry width="420" height="400" as="geometry" />
          
        </mxCell>
        
        <mxCell id="50T9GuiTfwRp7IYyB8Dv-11" value="Navi" style="text;html=1;strokeColor=none;fillColor=none;align=center;verticalAlign=middle;whiteSpace=wrap;rounded=0;opacity=40;" parent="50T9GuiTfwRp7IYyB8Dv-9" vertex="1">
          
          <mxGeometry width="78.75" height="20" as="geometry" />
          
        </mxCell>
        
        <mxCell id="8R3ubxbb89RzhwRhfRxu-0" value="View" style="rounded=0;whiteSpace=wrap;html=1;strokeWidth=1;opacity=40;" parent="50T9GuiTfwRp7IYyB8Dv-9" vertex="1">
          
          <mxGeometry x="10.5" y="20" width="399" height="20" as="geometry" />
          
        </mxCell>
        
        <mxCell id="8R3ubxbb89RzhwRhfRxu-1" value="Presenter" style="rounded=0;whiteSpace=wrap;html=1;strokeWidth=1;opacity=40;" parent="50T9GuiTfwRp7IYyB8Dv-9" vertex="1">
          
          <mxGeometry x="10.5" y="46" width="399" height="20" as="geometry" />
          
        </mxCell>
        
        <mxCell id="8R3ubxbb89RzhwRhfRxu-3" value="" style="group" parent="50T9GuiTfwRp7IYyB8Dv-9" vertex="1" connectable="0">
          
          <mxGeometry x="10.5" y="76" width="399.5" height="420" as="geometry" />
          
        </mxCell>
        
        <mxCell id="8R3ubxbb89RzhwRhfRxu-4" value="" style="rounded=0;whiteSpace=wrap;html=1;strokeWidth=1;opacity=40;" parent="8R3ubxbb89RzhwRhfRxu-3" vertex="1">
          
          <mxGeometry width="399.5" height="314" as="geometry" />
          
        </mxCell>
        
        <mxCell id="8R3ubxbb89RzhwRhfRxu-12" value="AR SDK" style="text;html=1;strokeColor=none;fillColor=none;align=center;verticalAlign=middle;whiteSpace=wrap;rounded=0;opacity=40;" parent="8R3ubxbb89RzhwRhfRxu-3" vertex="1">
          
          <mxGeometry width="78.75" height="20" as="geometry" />
          
        </mxCell>
        
        <mxCell id="8R3ubxbb89RzhwRhfRxu-13" value="" style="group" parent="8R3ubxbb89RzhwRhfRxu-3" vertex="1" connectable="0">
          
          <mxGeometry x="19.5" y="20" width="360.5" height="30" as="geometry" />
          
        </mxCell>
        
        <mxCell id="8R3ubxbb89RzhwRhfRxu-14" value="AR Logic" style="rounded=0;whiteSpace=wrap;html=1;strokeWidth=1;opacity=40;" parent="8R3ubxbb89RzhwRhfRxu-13" vertex="1">
          
          <mxGeometry width="360.5" height="30" as="geometry" />
          
        </mxCell>
        
        <mxCell id="8R3ubxbb89RzhwRhfRxu-15" value="" style="group" parent="8R3ubxbb89RzhwRhfRxu-3" vertex="1" connectable="0">
          
          <mxGeometry x="19.5" y="67" width="360.5" height="233" as="geometry" />
          
        </mxCell>
        
        <mxCell id="8R3ubxbb89RzhwRhfRxu-16" value="ARCore/ARKit" style="rounded=0;whiteSpace=wrap;html=1;strokeWidth=1;opacity=40;" parent="8R3ubxbb89RzhwRhfRxu-15" vertex="1">
          
          <mxGeometry width="360.5" height="233" as="geometry" />
          
        </mxCell>
        
        <mxCell id="i8Lsvq9ULOvxFv9mVuIe-1" value="" style="group" parent="LQ6n20t6UjvWaJl3pfYY-1" vertex="1" connectable="0">
          
          <mxGeometry x="367" y="235" width="200" height="400" as="geometry" />
          
        </mxCell>
        
        <mxCell id="i8Lsvq9ULOvxFv9mVuIe-2" value="Route" style="rounded=0;whiteSpace=wrap;html=1;strokeWidth=1;opacity=40;" parent="i8Lsvq9ULOvxFv9mVuIe-1" vertex="1">
          
          <mxGeometry width="200" height="400" as="geometry" />
          
        </mxCell>
        
        <mxCell id="i8Lsvq9ULOvxFv9mVuIe-4" value="" style="group" parent="LQ6n20t6UjvWaJl3pfYY-1" vertex="1" connectable="0">
          
          <mxGeometry x="150" y="234" width="200" height="400" as="geometry" />
          
        </mxCell>
        
        <mxCell id="i8Lsvq9ULOvxFv9mVuIe-5" value="Poi" style="rounded=0;whiteSpace=wrap;html=1;strokeWidth=1;opacity=40;" parent="i8Lsvq9ULOvxFv9mVuIe-4" vertex="1">
          
          <mxGeometry width="200" height="400" as="geometry" />
          
        </mxCell>
        
      </root>
      
    </mxGraphModel>
    
  </diagram>
  <diagram id="IsYvnbfO0bY2rvT77g02" name="SDK 框架">
    
    <mxGraphModel dx="2066" dy="1909" grid="1" gridSize="10" guides="1" tooltips="1" connect="1" arrows="1" fold="1" page="1" pageScale="1" pageWidth="1169" pageHeight="827" math="0" shadow="0">
      
      <root>
        
        <mxCell id="cdGTrcDk0oim7fjgrd1I-0" />
        
        <mxCell id="cdGTrcDk0oim7fjgrd1I-1" parent="cdGTrcDk0oim7fjgrd1I-0" />
        
        <mxCell id="cdGTrcDk0oim7fjgrd1I-2" value="" style="group" parent="cdGTrcDk0oim7fjgrd1I-1" vertex="1" connectable="0">
          
          <mxGeometry x="550" y="238" width="460" height="202" as="geometry" />
          
        </mxCell>
        
        <mxCell id="cdGTrcDk0oim7fjgrd1I-3" value="" style="rounded=1;whiteSpace=wrap;html=1;fillColor=#ffe6cc;strokeColor=#d79b00;arcSize=8;" parent="cdGTrcDk0oim7fjgrd1I-2" vertex="1">
          
          <mxGeometry x="-470" y="-118" width="930" height="318" as="geometry" />
          
        </mxCell>
        
        <mxCell id="cdGTrcDk0oim7fjgrd1I-4" value="" style="rounded=0;whiteSpace=wrap;html=1;strokeWidth=1;opacity=40;" parent="cdGTrcDk0oim7fjgrd1I-2" vertex="1">
          
          <mxGeometry x="140" y="10" width="279" height="110" as="geometry" />
          
        </mxCell>
        
        <mxCell id="cdGTrcDk0oim7fjgrd1I-5" value="" style="rounded=0;whiteSpace=wrap;html=1;strokeWidth=1;opacity=40;" parent="cdGTrcDk0oim7fjgrd1I-2" vertex="1">
          
          <mxGeometry x="9.5" width="420" height="130" as="geometry" />
          
        </mxCell>
        
        <mxCell id="cdGTrcDk0oim7fjgrd1I-6" value="算法" style="text;html=1;strokeColor=none;fillColor=none;align=center;verticalAlign=middle;whiteSpace=wrap;rounded=0;opacity=40;" parent="cdGTrcDk0oim7fjgrd1I-2" vertex="1">
          
          <mxGeometry y="10" width="78.75" height="20" as="geometry" />
          
        </mxCell>
        
        <mxCell id="cdGTrcDk0oim7fjgrd1I-7" value="传感器融合" style="rounded=0;whiteSpace=wrap;html=1;strokeWidth=1;opacity=40;" parent="cdGTrcDk0oim7fjgrd1I-2" vertex="1">
          
          <mxGeometry x="20.5" y="37" width="99.5" height="83" as="geometry" />
          
        </mxCell>
        
        <mxCell id="cdGTrcDk0oim7fjgrd1I-8" value="姿态跟踪" style="rounded=0;whiteSpace=wrap;html=1;strokeWidth=1;opacity=40;" parent="cdGTrcDk0oim7fjgrd1I-2" vertex="1">
          
          <mxGeometry x="151.75" y="50" width="78.25" height="60" as="geometry" />
          
        </mxCell>
        
        <mxCell id="cdGTrcDk0oim7fjgrd1I-9" value="平面检查" style="rounded=0;whiteSpace=wrap;html=1;strokeWidth=1;opacity=40;" parent="cdGTrcDk0oim7fjgrd1I-2" vertex="1">
          
          <mxGeometry x="240" y="50" width="80" height="60" as="geometry" />
          
        </mxCell>
        
        <mxCell id="cdGTrcDk0oim7fjgrd1I-10" value="光估测" style="rounded=0;whiteSpace=wrap;html=1;strokeWidth=1;opacity=40;" parent="cdGTrcDk0oim7fjgrd1I-2" vertex="1">
          
          <mxGeometry x="330" y="50" width="79" height="60" as="geometry" />
          
        </mxCell>
        
        <mxCell id="cdGTrcDk0oim7fjgrd1I-11" value="视觉" style="text;html=1;strokeColor=none;fillColor=none;align=center;verticalAlign=middle;whiteSpace=wrap;rounded=0;opacity=40;" parent="cdGTrcDk0oim7fjgrd1I-2" vertex="1">
          
          <mxGeometry x="130" y="10" width="78.75" height="20" as="geometry" />
          
        </mxCell>
        
        <mxCell id="cdGTrcDk0oim7fjgrd1I-12" value="Boost" style="rounded=0;whiteSpace=wrap;html=1;strokeWidth=1;opacity=40;" parent="cdGTrcDk0oim7fjgrd1I-2" vertex="1">
          
          <mxGeometry x="-440.5" y="142" width="870" height="40" as="geometry" />
          
        </mxCell>
        
        <mxCell id="cdGTrcDk0oim7fjgrd1I-13" value="跨平台层" style="text;html=1;strokeColor=none;fillColor=none;align=center;verticalAlign=middle;whiteSpace=wrap;rounded=0;" parent="cdGTrcDk0oim7fjgrd1I-1" vertex="1">
          
          <mxGeometry x="90" y="140" width="66" height="20" as="geometry" />
          
        </mxCell>
        
        <mxCell id="cdGTrcDk0oim7fjgrd1I-14" value="" style="rounded=1;whiteSpace=wrap;html=1;strokeWidth=2;fillColor=#DAE8FC;strokeColor=#6c8ebf;" parent="cdGTrcDk0oim7fjgrd1I-1" vertex="1">
          
          <mxGeometry x="80" y="-40" width="930" height="140" as="geometry" />
          
        </mxCell>
        
        <mxCell id="cdGTrcDk0oim7fjgrd1I-15" value="Android/iOS 客户端" style="text;html=1;strokeColor=none;fillColor=none;align=center;verticalAlign=middle;whiteSpace=wrap;rounded=0;" parent="cdGTrcDk0oim7fjgrd1I-1" vertex="1">
          
          <mxGeometry x="90" y="-30" width="110" height="20" as="geometry" />
          
        </mxCell>
        
        <mxCell id="cdGTrcDk0oim7fjgrd1I-16" value="" style="group" parent="cdGTrcDk0oim7fjgrd1I-1" vertex="1" connectable="0">
          
          <mxGeometry x="110" y="4" width="420" height="80" as="geometry" />
          
        </mxCell>
        
        <mxCell id="cdGTrcDk0oim7fjgrd1I-17" value="" style="rounded=0;whiteSpace=wrap;html=1;strokeWidth=1;opacity=40;" parent="cdGTrcDk0oim7fjgrd1I-16" vertex="1">
          
          <mxGeometry width="420" height="80" as="geometry" />
          
        </mxCell>
        
        <mxCell id="cdGTrcDk0oim7fjgrd1I-18" value="虚拟硬件层" style="text;html=1;strokeColor=none;fillColor=none;align=center;verticalAlign=middle;whiteSpace=wrap;rounded=0;opacity=40;" parent="cdGTrcDk0oim7fjgrd1I-16" vertex="1">
          
          <mxGeometry x="10.5" width="78.75" height="20" as="geometry" />
          
        </mxCell>
        
        <mxCell id="cdGTrcDk0oim7fjgrd1I-19" value="虚拟硬件接口" style="rounded=0;whiteSpace=wrap;html=1;strokeWidth=1;opacity=40;" parent="cdGTrcDk0oim7fjgrd1I-16" vertex="1">
          
          <mxGeometry x="10.5" y="27" width="399" height="20" as="geometry" />
          
        </mxCell>
        
        <mxCell id="cdGTrcDk0oim7fjgrd1I-20" value="摄像头" style="rounded=0;whiteSpace=wrap;html=1;strokeWidth=1;opacity=40;" parent="cdGTrcDk0oim7fjgrd1I-16" vertex="1">
          
          <mxGeometry x="10.5" y="54" width="126" height="20" as="geometry" />
          
        </mxCell>
        
        <mxCell id="cdGTrcDk0oim7fjgrd1I-21" value="传感器" style="rounded=0;whiteSpace=wrap;html=1;strokeWidth=1;opacity=40;" parent="cdGTrcDk0oim7fjgrd1I-16" vertex="1">
          
          <mxGeometry x="147" y="54" width="126" height="20" as="geometry" />
          
        </mxCell>
        
        <mxCell id="cdGTrcDk0oim7fjgrd1I-22" value="定位" style="rounded=0;whiteSpace=wrap;html=1;strokeWidth=1;opacity=40;" parent="cdGTrcDk0oim7fjgrd1I-16" vertex="1">
          
          <mxGeometry x="283.5" y="54" width="126" height="20" as="geometry" />
          
        </mxCell>
        
        <mxCell id="cdGTrcDk0oim7fjgrd1I-23" value="" style="group" parent="cdGTrcDk0oim7fjgrd1I-1" vertex="1" connectable="0">
          
          <mxGeometry x="560" y="4" width="420" height="80" as="geometry" />
          
        </mxCell>
        
        <mxCell id="cdGTrcDk0oim7fjgrd1I-24" value="" style="rounded=0;whiteSpace=wrap;html=1;strokeWidth=1;opacity=40;" parent="cdGTrcDk0oim7fjgrd1I-23" vertex="1">
          
          <mxGeometry width="420" height="80" as="geometry" />
          
        </mxCell>
        
        <mxCell id="cdGTrcDk0oim7fjgrd1I-25" value="服务" style="text;html=1;strokeColor=none;fillColor=none;align=center;verticalAlign=middle;whiteSpace=wrap;rounded=0;opacity=40;" parent="cdGTrcDk0oim7fjgrd1I-23" vertex="1">
          
          <mxGeometry width="78.75" height="20" as="geometry" />
          
        </mxCell>
        
        <mxCell id="cdGTrcDk0oim7fjgrd1I-26" value="云控" style="rounded=0;whiteSpace=wrap;html=1;strokeWidth=1;opacity=40;" parent="cdGTrcDk0oim7fjgrd1I-23" vertex="1">
          
          <mxGeometry x="10" y="30" width="126" height="40" as="geometry" />
          
        </mxCell>
        
        <mxCell id="cdGTrcDk0oim7fjgrd1I-27" value="" style="rounded=0;whiteSpace=wrap;html=1;strokeWidth=1;opacity=40;" parent="cdGTrcDk0oim7fjgrd1I-23" vertex="1">
          
          <mxGeometry x="150" y="10" width="250" height="60" as="geometry" />
          
        </mxCell>
        
        <mxCell id="cdGTrcDk0oim7fjgrd1I-28" value="LBS" style="text;html=1;strokeColor=none;fillColor=none;align=center;verticalAlign=middle;whiteSpace=wrap;rounded=0;opacity=40;" parent="cdGTrcDk0oim7fjgrd1I-23" vertex="1">
          
          <mxGeometry x="136" y="10" width="78.75" height="20" as="geometry" />
          
        </mxCell>
        
        <mxCell id="cdGTrcDk0oim7fjgrd1I-29" value="检索" style="rounded=0;whiteSpace=wrap;html=1;strokeWidth=1;opacity=40;" parent="cdGTrcDk0oim7fjgrd1I-23" vertex="1">
          
          <mxGeometry x="160" y="30" width="70" height="30" as="geometry" />
          
        </mxCell>
        
        <mxCell id="cdGTrcDk0oim7fjgrd1I-30" value="算路" style="rounded=0;whiteSpace=wrap;html=1;strokeWidth=1;opacity=40;" parent="cdGTrcDk0oim7fjgrd1I-23" vertex="1">
          
          <mxGeometry x="240" y="30" width="70" height="30" as="geometry" />
          
        </mxCell>
        
        <mxCell id="cdGTrcDk0oim7fjgrd1I-31" value="诱导" style="rounded=0;whiteSpace=wrap;html=1;strokeWidth=1;opacity=40;" parent="cdGTrcDk0oim7fjgrd1I-23" vertex="1">
          
          <mxGeometry x="320" y="30" width="70" height="30" as="geometry" />
          
        </mxCell>
        
        <mxCell id="cdGTrcDk0oim7fjgrd1I-32" value="" style="group" parent="cdGTrcDk0oim7fjgrd1I-1" vertex="1" connectable="0">
          
          <mxGeometry x="100.5" y="238" width="429.5" height="130" as="geometry" />
          
        </mxCell>
        
        <mxCell id="cdGTrcDk0oim7fjgrd1I-33" value="" style="rounded=0;whiteSpace=wrap;html=1;strokeWidth=1;opacity=40;" parent="cdGTrcDk0oim7fjgrd1I-32" vertex="1">
          
          <mxGeometry x="9.5" width="420" height="130" as="geometry" />
          
        </mxCell>
        
        <mxCell id="cdGTrcDk0oim7fjgrd1I-34" value="渲染" style="text;html=1;strokeColor=none;fillColor=none;align=center;verticalAlign=middle;whiteSpace=wrap;rounded=0;opacity=40;" parent="cdGTrcDk0oim7fjgrd1I-32" vertex="1">
          
          <mxGeometry y="10" width="78.75" height="20" as="geometry" />
          
        </mxCell>
        
        <mxCell id="cdGTrcDk0oim7fjgrd1I-35" value="渲染接口" style="rounded=0;whiteSpace=wrap;html=1;strokeWidth=1;opacity=40;" parent="cdGTrcDk0oim7fjgrd1I-32" vertex="1">
          
          <mxGeometry x="20" y="37" width="399" height="33" as="geometry" />
          
        </mxCell>
        
        <mxCell id="cdGTrcDk0oim7fjgrd1I-36" value="Vulkan" style="rounded=0;whiteSpace=wrap;html=1;strokeWidth=1;opacity=40;" parent="cdGTrcDk0oim7fjgrd1I-32" vertex="1">
          
          <mxGeometry x="20" y="80" width="126" height="40" as="geometry" />
          
        </mxCell>
        
        <mxCell id="cdGTrcDk0oim7fjgrd1I-37" value="OpenGL" style="rounded=0;whiteSpace=wrap;html=1;strokeWidth=1;opacity=40;" parent="cdGTrcDk0oim7fjgrd1I-32" vertex="1">
          
          <mxGeometry x="156.5" y="80" width="126" height="40" as="geometry" />
          
        </mxCell>
        
        <mxCell id="cdGTrcDk0oim7fjgrd1I-38" value="Metal" style="rounded=0;whiteSpace=wrap;html=1;strokeWidth=1;opacity=40;" parent="cdGTrcDk0oim7fjgrd1I-32" vertex="1">
          
          <mxGeometry x="293" y="80" width="126" height="40" as="geometry" />
          
        </mxCell>
        
        <mxCell id="cdGTrcDk0oim7fjgrd1I-40" value="" style="group" parent="cdGTrcDk0oim7fjgrd1I-1" vertex="1" connectable="0">
          
          <mxGeometry x="109" y="170" width="870" height="60" as="geometry" />
          
        </mxCell>
        
        <mxCell id="cdGTrcDk0oim7fjgrd1I-41" value="" style="rounded=0;whiteSpace=wrap;html=1;strokeWidth=1;opacity=40;" parent="cdGTrcDk0oim7fjgrd1I-40" vertex="1">
          
          <mxGeometry width="870" height="60" as="geometry" />
          
        </mxCell>
        
        <mxCell id="cdGTrcDk0oim7fjgrd1I-42" value="AR 业务" style="rounded=0;whiteSpace=wrap;html=1;strokeWidth=1;opacity=40;" parent="cdGTrcDk0oim7fjgrd1I-40" vertex="1">
          
          <mxGeometry x="10" y="10" width="410" height="40" as="geometry" />
          
        </mxCell>
        
        <mxCell id="cdGTrcDk0oim7fjgrd1I-43" value="" style="rounded=0;whiteSpace=wrap;html=1;strokeWidth=1;opacity=40;" parent="cdGTrcDk0oim7fjgrd1I-40" vertex="1">
          
          <mxGeometry x="450" y="10" width="404.75" height="40" as="geometry" />
          
        </mxCell>
        
        <mxCell id="cdGTrcDk0oim7fjgrd1I-44" value="仿真" style="text;html=1;strokeColor=none;fillColor=none;align=center;verticalAlign=middle;whiteSpace=wrap;rounded=0;opacity=40;" parent="cdGTrcDk0oim7fjgrd1I-40" vertex="1">
          
          <mxGeometry x="450" y="10" width="78.75" height="20" as="geometry" />
          
        </mxCell>
        
        <mxCell id="cdGTrcDk0oim7fjgrd1I-45" value="记录" style="rounded=0;whiteSpace=wrap;html=1;strokeWidth=1;opacity=40;" parent="cdGTrcDk0oim7fjgrd1I-40" vertex="1">
          
          <mxGeometry x="525.75" y="15" width="154.25" height="30" as="geometry" />
          
        </mxCell>
        
        <mxCell id="cdGTrcDk0oim7fjgrd1I-46" value="回放" style="rounded=0;whiteSpace=wrap;html=1;strokeWidth=1;opacity=40;" parent="cdGTrcDk0oim7fjgrd1I-40" vertex="1">
          
          <mxGeometry x="690" y="15" width="154.25" height="30" as="geometry" />
          
        </mxCell>
        
      </root>
      
    </mxGraphModel>
    
  </diagram>
  <diagram id="kSJ7fLxcQBEUH0GJEy-d" name="Message classes">
    
    <mxGraphModel dx="2066" dy="1082" grid="1" gridSize="10" guides="1" tooltips="1" connect="1" arrows="1" fold="1" page="1" pageScale="1" pageWidth="1169" pageHeight="827" math="0" shadow="0">
      
      <root>
        
        <mxCell id="pH4N-c182QQzBMMdshUe-0" />
        
        <mxCell id="pH4N-c182QQzBMMdshUe-1" parent="pH4N-c182QQzBMMdshUe-0" />
        
        <mxCell id="pH4N-c182QQzBMMdshUe-2" value="CLooperThread" style="swimlane;fontStyle=1;align=center;verticalAlign=top;childLayout=stackLayout;horizontal=1;startSize=26;horizontalStack=0;resizeParent=1;resizeParentMax=0;resizeLast=0;collapsible=1;marginBottom=0;fillColor=#D5E8D4;opacity=40;" parent="pH4N-c182QQzBMMdshUe-1" vertex="1">
          
          <mxGeometry x="145" y="70" width="325" height="424" as="geometry" />
          
        </mxCell>
        
        <mxCell id="pH4N-c182QQzBMMdshUe-3" value="- m_threadId: unsigned long" style="text;strokeColor=none;fillColor=none;align=left;verticalAlign=top;spacingLeft=4;spacingRight=4;overflow=hidden;rotatable=0;points=[[0,0.5],[1,0.5]];portConstraint=eastwest;" parent="pH4N-c182QQzBMMdshUe-2" vertex="1">
          
          <mxGeometry y="26" width="325" height="26" as="geometry" />
          
        </mxCell>
        
        <mxCell id="pH4N-c182QQzBMMdshUe-7" value="- m_callback: MessageCallback" style="text;strokeColor=none;fillColor=none;align=left;verticalAlign=top;spacingLeft=4;spacingRight=4;overflow=hidden;rotatable=0;points=[[0,0.5],[1,0.5]];portConstraint=eastwest;" parent="pH4N-c182QQzBMMdshUe-2" vertex="1">
          
          <mxGeometry y="52" width="325" height="26" as="geometry" />
          
        </mxCell>
        
        <mxCell id="pH4N-c182QQzBMMdshUe-8" value="- m_category: string" style="text;strokeColor=none;fillColor=none;align=left;verticalAlign=top;spacingLeft=4;spacingRight=4;overflow=hidden;rotatable=0;points=[[0,0.5],[1,0.5]];portConstraint=eastwest;" parent="pH4N-c182QQzBMMdshUe-2" vertex="1">
          
          <mxGeometry y="78" width="325" height="26" as="geometry" />
          
        </mxCell>
        
        <mxCell id="pH4N-c182QQzBMMdshUe-10" value="- m_bIsRunning: bool" style="text;strokeColor=none;fillColor=none;align=left;verticalAlign=top;spacingLeft=4;spacingRight=4;overflow=hidden;rotatable=0;points=[[0,0.5],[1,0.5]];portConstraint=eastwest;" parent="pH4N-c182QQzBMMdshUe-2" vertex="1">
          
          <mxGeometry y="104" width="325" height="26" as="geometry" />
          
        </mxCell>
        
        <mxCell id="pH4N-c182QQzBMMdshUe-9" value="- m_eSubscribeState: SubscribeState" style="text;strokeColor=none;fillColor=none;align=left;verticalAlign=top;spacingLeft=4;spacingRight=4;overflow=hidden;rotatable=0;points=[[0,0.5],[1,0.5]];portConstraint=eastwest;" parent="pH4N-c182QQzBMMdshUe-2" vertex="1">
          
          <mxGeometry y="130" width="325" height="26" as="geometry" />
          
        </mxCell>
        
        <mxCell id="pH4N-c182QQzBMMdshUe-6" value="- m_pMessageBus: CountedPtr&lt;MessageBus::Impl&gt;" style="text;strokeColor=none;fillColor=none;align=left;verticalAlign=top;spacingLeft=4;spacingRight=4;overflow=hidden;rotatable=0;points=[[0,0.5],[1,0.5]];portConstraint=eastwest;" parent="pH4N-c182QQzBMMdshUe-2" vertex="1">
          
          <mxGeometry y="156" width="325" height="26" as="geometry" />
          
        </mxCell>
        
        <mxCell id="pH4N-c182QQzBMMdshUe-4" value="" style="line;strokeWidth=1;fillColor=none;align=left;verticalAlign=middle;spacingTop=-1;spacingLeft=3;spacingRight=3;rotatable=0;labelPosition=right;points=[];portConstraint=eastwest;" parent="pH4N-c182QQzBMMdshUe-2" vertex="1">
          
          <mxGeometry y="182" width="325" height="8" as="geometry" />
          
        </mxCell>
        
        <mxCell id="pH4N-c182QQzBMMdshUe-5" value="+ Subscribe(string): void" style="text;strokeColor=none;fillColor=none;align=left;verticalAlign=top;spacingLeft=4;spacingRight=4;overflow=hidden;rotatable=0;points=[[0,0.5],[1,0.5]];portConstraint=eastwest;" parent="pH4N-c182QQzBMMdshUe-2" vertex="1">
          
          <mxGeometry y="190" width="325" height="26" as="geometry" />
          
        </mxCell>
        
        <mxCell id="pH4N-c182QQzBMMdshUe-12" value="+ Unsubscribe(string): void" style="text;strokeColor=none;fillColor=none;align=left;verticalAlign=top;spacingLeft=4;spacingRight=4;overflow=hidden;rotatable=0;points=[[0,0.5],[1,0.5]];portConstraint=eastwest;" parent="pH4N-c182QQzBMMdshUe-2" vertex="1">
          
          <mxGeometry y="216" width="325" height="26" as="geometry" />
          
        </mxCell>
        
        <mxCell id="pH4N-c182QQzBMMdshUe-11" value="+ Start(): bool" style="text;strokeColor=none;fillColor=none;align=left;verticalAlign=top;spacingLeft=4;spacingRight=4;overflow=hidden;rotatable=0;points=[[0,0.5],[1,0.5]];portConstraint=eastwest;" parent="pH4N-c182QQzBMMdshUe-2" vertex="1">
          
          <mxGeometry y="242" width="325" height="26" as="geometry" />
          
        </mxCell>
        
        <mxCell id="pH4N-c182QQzBMMdshUe-13" value="+ Stop(): bool" style="text;strokeColor=none;fillColor=none;align=left;verticalAlign=top;spacingLeft=4;spacingRight=4;overflow=hidden;rotatable=0;points=[[0,0.5],[1,0.5]];portConstraint=eastwest;" parent="pH4N-c182QQzBMMdshUe-2" vertex="1">
          
          <mxGeometry y="268" width="325" height="26" as="geometry" />
          
        </mxCell>
        
        <mxCell id="pH4N-c182QQzBMMdshUe-16" value="+ SetCallback(MessageCallback): bool" style="text;strokeColor=none;fillColor=none;align=left;verticalAlign=top;spacingLeft=4;spacingRight=4;overflow=hidden;rotatable=0;points=[[0,0.5],[1,0.5]];portConstraint=eastwest;" parent="pH4N-c182QQzBMMdshUe-2" vertex="1">
          
          <mxGeometry y="294" width="325" height="26" as="geometry" />
          
        </mxCell>
        
        <mxCell id="pH4N-c182QQzBMMdshUe-17" value="+ IsRunning(): bool" style="text;strokeColor=none;fillColor=none;align=left;verticalAlign=top;spacingLeft=4;spacingRight=4;overflow=hidden;rotatable=0;points=[[0,0.5],[1,0.5]];portConstraint=eastwest;" parent="pH4N-c182QQzBMMdshUe-2" vertex="1">
          
          <mxGeometry y="320" width="325" height="26" as="geometry" />
          
        </mxCell>
        
        <mxCell id="pH4N-c182QQzBMMdshUe-18" value="+ GetCategory(): string" style="text;strokeColor=none;fillColor=none;align=left;verticalAlign=top;spacingLeft=4;spacingRight=4;overflow=hidden;rotatable=0;points=[[0,0.5],[1,0.5]];portConstraint=eastwest;" parent="pH4N-c182QQzBMMdshUe-2" vertex="1">
          
          <mxGeometry y="346" width="325" height="26" as="geometry" />
          
        </mxCell>
        
        <mxCell id="pH4N-c182QQzBMMdshUe-15" value="+ GetCallback(): MessageCallback" style="text;strokeColor=none;fillColor=none;align=left;verticalAlign=top;spacingLeft=4;spacingRight=4;overflow=hidden;rotatable=0;points=[[0,0.5],[1,0.5]];portConstraint=eastwest;" parent="pH4N-c182QQzBMMdshUe-2" vertex="1">
          
          <mxGeometry y="372" width="325" height="26" as="geometry" />
          
        </mxCell>
        
        <mxCell id="pH4N-c182QQzBMMdshUe-14" value="+ GetSubscribeState(): SubscribeState" style="text;strokeColor=none;fillColor=none;align=left;verticalAlign=top;spacingLeft=4;spacingRight=4;overflow=hidden;rotatable=0;points=[[0,0.5],[1,0.5]];portConstraint=eastwest;" parent="pH4N-c182QQzBMMdshUe-2" vertex="1">
          
          <mxGeometry y="398" width="325" height="26" as="geometry" />
          
        </mxCell>
        
        <mxCell id="pH4N-c182QQzBMMdshUe-19" value="CMessageBus" style="swimlane;fontStyle=1;align=center;verticalAlign=top;childLayout=stackLayout;horizontal=1;startSize=26;horizontalStack=0;resizeParent=1;resizeParentMax=0;resizeLast=0;collapsible=1;marginBottom=0;fillColor=#D5E8D4;opacity=40;" parent="pH4N-c182QQzBMMdshUe-1" vertex="1">
          
          <mxGeometry x="560" y="70" width="640" height="216" as="geometry">
            
            <mxRectangle x="560" y="70" width="110" height="26" as="alternateBounds" />
            
          </mxGeometry>
          
        </mxCell>
        
        <mxCell id="pH4N-c182QQzBMMdshUe-20" value="- m_sInstance: CMessageBus*" style="text;strokeColor=none;fillColor=none;align=left;verticalAlign=top;spacingLeft=4;spacingRight=4;overflow=hidden;rotatable=0;points=[[0,0.5],[1,0.5]];portConstraint=eastwest;" parent="pH4N-c182QQzBMMdshUe-19" vertex="1">
          
          <mxGeometry y="26" width="640" height="26" as="geometry" />
          
        </mxCell>
        
        <mxCell id="pH4N-c182QQzBMMdshUe-21" value="- mImpl: CMessageBus::Impl" style="text;strokeColor=none;fillColor=none;align=left;verticalAlign=top;spacingLeft=4;spacingRight=4;overflow=hidden;rotatable=0;points=[[0,0.5],[1,0.5]];portConstraint=eastwest;" parent="pH4N-c182QQzBMMdshUe-19" vertex="1">
          
          <mxGeometry y="52" width="640" height="26" as="geometry" />
          
        </mxCell>
        
        <mxCell id="pH4N-c182QQzBMMdshUe-26" value="" style="line;strokeWidth=1;fillColor=none;align=left;verticalAlign=middle;spacingTop=-1;spacingLeft=3;spacingRight=3;rotatable=0;labelPosition=right;points=[];portConstraint=eastwest;" parent="pH4N-c182QQzBMMdshUe-19" vertex="1">
          
          <mxGeometry y="78" width="640" height="8" as="geometry" />
          
        </mxCell>
        
        <mxCell id="pH4N-c182QQzBMMdshUe-27" value="+ GetDefault(): CMessageBus*" style="text;strokeColor=none;fillColor=none;align=left;verticalAlign=top;spacingLeft=4;spacingRight=4;overflow=hidden;rotatable=0;points=[[0,0.5],[1,0.5]];portConstraint=eastwest;" parent="pH4N-c182QQzBMMdshUe-19" vertex="1">
          
          <mxGeometry y="86" width="640" height="26" as="geometry" />
          
        </mxCell>
        
        <mxCell id="pH4N-c182QQzBMMdshUe-28" value="+ SendAsyncMessage(string category, long type, int arg0, int arg1, void* buf, long size): void" style="text;strokeColor=none;fillColor=none;align=left;verticalAlign=top;spacingLeft=4;spacingRight=4;overflow=hidden;rotatable=0;points=[[0,0.5],[1,0.5]];portConstraint=eastwest;" parent="pH4N-c182QQzBMMdshUe-19" vertex="1">
          
          <mxGeometry y="112" width="640" height="26" as="geometry" />
          
        </mxCell>
        
        <mxCell id="pH4N-c182QQzBMMdshUe-29" value="+ SendAsyncMessage(string category, long type, int arg0, int arg1, shared_ptr&lt;SharedBuffer&gt; buf, long size): void" style="text;strokeColor=none;fillColor=none;align=left;verticalAlign=top;spacingLeft=4;spacingRight=4;overflow=hidden;rotatable=0;points=[[0,0.5],[1,0.5]];portConstraint=eastwest;" parent="pH4N-c182QQzBMMdshUe-19" vertex="1">
          
          <mxGeometry y="138" width="640" height="26" as="geometry" />
          
        </mxCell>
        
        <mxCell id="pH4N-c182QQzBMMdshUe-30" value="+ SendSyncMessage(string category, long type, int arg0, int arg1, void* buf, long size): void" style="text;strokeColor=none;fillColor=none;align=left;verticalAlign=top;spacingLeft=4;spacingRight=4;overflow=hidden;rotatable=0;points=[[0,0.5],[1,0.5]];portConstraint=eastwest;" parent="pH4N-c182QQzBMMdshUe-19" vertex="1">
          
          <mxGeometry y="164" width="640" height="26" as="geometry" />
          
        </mxCell>
        
        <mxCell id="pH4N-c182QQzBMMdshUe-31" value="+ SendSyncMessage(string category, long type, int arg0, int arg1, shared_ptr&lt;SharedBuffer&gt; buf, long size): void" style="text;strokeColor=none;fillColor=none;align=left;verticalAlign=top;spacingLeft=4;spacingRight=4;overflow=hidden;rotatable=0;points=[[0,0.5],[1,0.5]];portConstraint=eastwest;" parent="pH4N-c182QQzBMMdshUe-19" vertex="1">
          
          <mxGeometry y="190" width="640" height="26" as="geometry" />
          
        </mxCell>
        
        <mxCell id="xNeO-3d8rriRWtKOrfHc-0" value="CMessageBus::Impl" style="swimlane;fontStyle=1;align=center;verticalAlign=top;childLayout=stackLayout;horizontal=1;startSize=26;horizontalStack=0;resizeParent=1;resizeParentMax=0;resizeLast=0;collapsible=1;marginBottom=0;fillColor=#D5E8D4;opacity=40;" parent="pH4N-c182QQzBMMdshUe-1" vertex="1">
          
          <mxGeometry x="560" y="390" width="640" height="346" as="geometry" />
          
        </mxCell>
        
        <mxCell id="xNeO-3d8rriRWtKOrfHc-1" value="- m_MessageMap: std::map&lt;string, MessageQueue*&gt;" style="text;strokeColor=none;fillColor=none;align=left;verticalAlign=top;spacingLeft=4;spacingRight=4;overflow=hidden;rotatable=0;points=[[0,0.5],[1,0.5]];portConstraint=eastwest;" parent="xNeO-3d8rriRWtKOrfHc-0" vertex="1">
          
          <mxGeometry y="26" width="640" height="26" as="geometry" />
          
        </mxCell>
        
        <mxCell id="xNeO-3d8rriRWtKOrfHc-62" value="- m_pSubMutex: mutex" style="text;strokeColor=none;fillColor=none;align=left;verticalAlign=top;spacingLeft=4;spacingRight=4;overflow=hidden;rotatable=0;points=[[0,0.5],[1,0.5]];portConstraint=eastwest;" parent="xNeO-3d8rriRWtKOrfHc-0" vertex="1">
          
          <mxGeometry y="52" width="640" height="26" as="geometry" />
          
        </mxCell>
        
        <mxCell id="xNeO-3d8rriRWtKOrfHc-63" value="- m_MessageBin: std::list&lt;MessageBody*&gt;" style="text;strokeColor=none;fillColor=none;align=left;verticalAlign=top;spacingLeft=4;spacingRight=4;overflow=hidden;rotatable=0;points=[[0,0.5],[1,0.5]];portConstraint=eastwest;" parent="xNeO-3d8rriRWtKOrfHc-0" vertex="1">
          
          <mxGeometry y="78" width="640" height="26" as="geometry" />
          
        </mxCell>
        
        <mxCell id="xNeO-3d8rriRWtKOrfHc-64" value="- m_pBinMutex: mutex" style="text;strokeColor=none;fillColor=none;align=left;verticalAlign=top;spacingLeft=4;spacingRight=4;overflow=hidden;rotatable=0;points=[[0,0.5],[1,0.5]];portConstraint=eastwest;" parent="xNeO-3d8rriRWtKOrfHc-0" vertex="1">
          
          <mxGeometry y="104" width="640" height="26" as="geometry" />
          
        </mxCell>
        
        <mxCell id="xNeO-3d8rriRWtKOrfHc-65" value="- m_RecycleThread: _THREAD" style="text;strokeColor=none;fillColor=none;align=left;verticalAlign=top;spacingLeft=4;spacingRight=4;overflow=hidden;rotatable=0;points=[[0,0.5],[1,0.5]];portConstraint=eastwest;" parent="xNeO-3d8rriRWtKOrfHc-0" vertex="1">
          
          <mxGeometry y="130" width="640" height="26" as="geometry" />
          
        </mxCell>
        
        <mxCell id="xNeO-3d8rriRWtKOrfHc-66" value="- m_RecycleRunning: bool" style="text;strokeColor=none;fillColor=none;align=left;verticalAlign=top;spacingLeft=4;spacingRight=4;overflow=hidden;rotatable=0;points=[[0,0.5],[1,0.5]];portConstraint=eastwest;" parent="xNeO-3d8rriRWtKOrfHc-0" vertex="1">
          
          <mxGeometry y="156" width="640" height="26" as="geometry" />
          
        </mxCell>
        
        <mxCell id="xNeO-3d8rriRWtKOrfHc-2" value="- m_RecycleCond: CConditionWrapper" style="text;strokeColor=none;fillColor=none;align=left;verticalAlign=top;spacingLeft=4;spacingRight=4;overflow=hidden;rotatable=0;points=[[0,0.5],[1,0.5]];portConstraint=eastwest;" parent="xNeO-3d8rriRWtKOrfHc-0" vertex="1">
          
          <mxGeometry y="182" width="640" height="26" as="geometry" />
          
        </mxCell>
        
        <mxCell id="xNeO-3d8rriRWtKOrfHc-3" value="" style="line;strokeWidth=1;fillColor=none;align=left;verticalAlign=middle;spacingTop=-1;spacingLeft=3;spacingRight=3;rotatable=0;labelPosition=right;points=[];portConstraint=eastwest;" parent="xNeO-3d8rriRWtKOrfHc-0" vertex="1">
          
          <mxGeometry y="208" width="640" height="8" as="geometry" />
          
        </mxCell>
        
        <mxCell id="xNeO-3d8rriRWtKOrfHc-4" value="+ GetMessage(string, MessageCallback, bool): bool" style="text;strokeColor=none;fillColor=none;align=left;verticalAlign=top;spacingLeft=4;spacingRight=4;overflow=hidden;rotatable=0;points=[[0,0.5],[1,0.5]];portConstraint=eastwest;" parent="xNeO-3d8rriRWtKOrfHc-0" vertex="1">
          
          <mxGeometry y="216" width="640" height="26" as="geometry" />
          
        </mxCell>
        
        <mxCell id="xNeO-3d8rriRWtKOrfHc-5" value="+ Subscribe(string): void" style="text;strokeColor=none;fillColor=none;align=left;verticalAlign=top;spacingLeft=4;spacingRight=4;overflow=hidden;rotatable=0;points=[[0,0.5],[1,0.5]];portConstraint=eastwest;" parent="xNeO-3d8rriRWtKOrfHc-0" vertex="1">
          
          <mxGeometry y="242" width="640" height="26" as="geometry" />
          
        </mxCell>
        
        <mxCell id="xNeO-3d8rriRWtKOrfHc-6" value="+ Unsubscribe(string, _THREAD): void" style="text;strokeColor=none;fillColor=none;align=left;verticalAlign=top;spacingLeft=4;spacingRight=4;overflow=hidden;rotatable=0;points=[[0,0.5],[1,0.5]];portConstraint=eastwest;" parent="xNeO-3d8rriRWtKOrfHc-0" vertex="1">
          
          <mxGeometry y="268" width="640" height="26" as="geometry" />
          
        </mxCell>
        
        <mxCell id="xNeO-3d8rriRWtKOrfHc-7" value="+ NotifyAllSubscriber(string): void" style="text;strokeColor=none;fillColor=none;align=left;verticalAlign=top;spacingLeft=4;spacingRight=4;overflow=hidden;rotatable=0;points=[[0,0.5],[1,0.5]];portConstraint=eastwest;" parent="xNeO-3d8rriRWtKOrfHc-0" vertex="1">
          
          <mxGeometry y="294" width="640" height="26" as="geometry" />
          
        </mxCell>
        
        <mxCell id="xNeO-3d8rriRWtKOrfHc-8" value="+ SendMessage(string, MessageBody*, bool): void" style="text;strokeColor=none;fillColor=none;align=left;verticalAlign=top;spacingLeft=4;spacingRight=4;overflow=hidden;rotatable=0;points=[[0,0.5],[1,0.5]];portConstraint=eastwest;" parent="xNeO-3d8rriRWtKOrfHc-0" vertex="1">
          
          <mxGeometry y="320" width="640" height="26" as="geometry" />
          
        </mxCell>
        
        <mxCell id="xNeO-3d8rriRWtKOrfHc-9" value="MessageBody" style="swimlane;fontStyle=1;align=center;verticalAlign=top;childLayout=stackLayout;horizontal=1;startSize=26;horizontalStack=0;resizeParent=1;resizeParentMax=0;resizeLast=0;collapsible=1;marginBottom=0;fillColor=#D5E8D4;opacity=40;" parent="pH4N-c182QQzBMMdshUe-1" vertex="1">
          
          <mxGeometry x="1290" y="70" width="325" height="312" as="geometry" />
          
        </mxCell>
        
        <mxCell id="xNeO-3d8rriRWtKOrfHc-10" value="+ type: long" style="text;strokeColor=none;fillColor=none;align=left;verticalAlign=top;spacingLeft=4;spacingRight=4;overflow=hidden;rotatable=0;points=[[0,0.5],[1,0.5]];portConstraint=eastwest;" parent="xNeO-3d8rriRWtKOrfHc-9" vertex="1">
          
          <mxGeometry y="26" width="325" height="26" as="geometry" />
          
        </mxCell>
        
        <mxCell id="xNeO-3d8rriRWtKOrfHc-11" value="+ arg0: int" style="text;strokeColor=none;fillColor=none;align=left;verticalAlign=top;spacingLeft=4;spacingRight=4;overflow=hidden;rotatable=0;points=[[0,0.5],[1,0.5]];portConstraint=eastwest;" parent="xNeO-3d8rriRWtKOrfHc-9" vertex="1">
          
          <mxGeometry y="52" width="325" height="26" as="geometry" />
          
        </mxCell>
        
        <mxCell id="xNeO-3d8rriRWtKOrfHc-12" value="+ arg1: int" style="text;strokeColor=none;fillColor=none;align=left;verticalAlign=top;spacingLeft=4;spacingRight=4;overflow=hidden;rotatable=0;points=[[0,0.5],[1,0.5]];portConstraint=eastwest;" parent="xNeO-3d8rriRWtKOrfHc-9" vertex="1">
          
          <mxGeometry y="78" width="325" height="26" as="geometry" />
          
        </mxCell>
        
        <mxCell id="xNeO-3d8rriRWtKOrfHc-13" value="+ buffer: shared_ptr&lt;SharedBuffer&gt;" style="text;strokeColor=none;fillColor=none;align=left;verticalAlign=top;spacingLeft=4;spacingRight=4;overflow=hidden;rotatable=0;points=[[0,0.5],[1,0.5]];portConstraint=eastwest;" parent="xNeO-3d8rriRWtKOrfHc-9" vertex="1">
          
          <mxGeometry y="104" width="325" height="26" as="geometry" />
          
        </mxCell>
        
        <mxCell id="xNeO-3d8rriRWtKOrfHc-14" value="+ bufferLength: long" style="text;strokeColor=none;fillColor=none;align=left;verticalAlign=top;spacingLeft=4;spacingRight=4;overflow=hidden;rotatable=0;points=[[0,0.5],[1,0.5]];portConstraint=eastwest;" parent="xNeO-3d8rriRWtKOrfHc-9" vertex="1">
          
          <mxGeometry y="130" width="325" height="26" as="geometry" />
          
        </mxCell>
        
        <mxCell id="xNeO-3d8rriRWtKOrfHc-15" value="+ time: long long" style="text;strokeColor=none;fillColor=none;align=left;verticalAlign=top;spacingLeft=4;spacingRight=4;overflow=hidden;rotatable=0;points=[[0,0.5],[1,0.5]];portConstraint=eastwest;" parent="xNeO-3d8rriRWtKOrfHc-9" vertex="1">
          
          <mxGeometry y="156" width="325" height="26" as="geometry" />
          
        </mxCell>
        
        <mxCell id="xNeO-3d8rriRWtKOrfHc-44" value="+ sem: CSemaphore*" style="text;strokeColor=none;fillColor=none;align=left;verticalAlign=top;spacingLeft=4;spacingRight=4;overflow=hidden;rotatable=0;points=[[0,0.5],[1,0.5]];portConstraint=eastwest;" parent="xNeO-3d8rriRWtKOrfHc-9" vertex="1">
          
          <mxGeometry y="182" width="325" height="26" as="geometry" />
          
        </mxCell>
        
        <mxCell id="xNeO-3d8rriRWtKOrfHc-45" value="+ threadList: std::list&lt;_THREAD&gt;" style="text;strokeColor=none;fillColor=none;align=left;verticalAlign=top;spacingLeft=4;spacingRight=4;overflow=hidden;rotatable=0;points=[[0,0.5],[1,0.5]];portConstraint=eastwest;" parent="xNeO-3d8rriRWtKOrfHc-9" vertex="1">
          
          <mxGeometry y="208" width="325" height="26" as="geometry" />
          
        </mxCell>
        
        <mxCell id="xNeO-3d8rriRWtKOrfHc-46" value="+ subscriberCount: unsigned long" style="text;strokeColor=none;fillColor=none;align=left;verticalAlign=top;spacingLeft=4;spacingRight=4;overflow=hidden;rotatable=0;points=[[0,0.5],[1,0.5]];portConstraint=eastwest;" parent="xNeO-3d8rriRWtKOrfHc-9" vertex="1">
          
          <mxGeometry y="234" width="325" height="26" as="geometry" />
          
        </mxCell>
        
        <mxCell id="xNeO-3d8rriRWtKOrfHc-48" value="+ workingThreadList: std::list&lt;_THREAD&gt;" style="text;strokeColor=none;fillColor=none;align=left;verticalAlign=top;spacingLeft=4;spacingRight=4;overflow=hidden;rotatable=0;points=[[0,0.5],[1,0.5]];portConstraint=eastwest;" parent="xNeO-3d8rriRWtKOrfHc-9" vertex="1">
          
          <mxGeometry y="260" width="325" height="26" as="geometry" />
          
        </mxCell>
        
        <mxCell id="xNeO-3d8rriRWtKOrfHc-47" value="+ lock: mutex" style="text;strokeColor=none;fillColor=none;align=left;verticalAlign=top;spacingLeft=4;spacingRight=4;overflow=hidden;rotatable=0;points=[[0,0.5],[1,0.5]];portConstraint=eastwest;" parent="xNeO-3d8rriRWtKOrfHc-9" vertex="1">
          
          <mxGeometry y="286" width="325" height="26" as="geometry" />
          
        </mxCell>
        
        <mxCell id="xNeO-3d8rriRWtKOrfHc-49" value="MessageQueue" style="swimlane;fontStyle=1;align=center;verticalAlign=top;childLayout=stackLayout;horizontal=1;startSize=26;horizontalStack=0;resizeParent=1;resizeParentMax=0;resizeLast=0;collapsible=1;marginBottom=0;fillColor=#D5E8D4;opacity=40;" parent="pH4N-c182QQzBMMdshUe-1" vertex="1">
          
          <mxGeometry x="1290" y="430" width="325" height="208" as="geometry" />
          
        </mxCell>
        
        <mxCell id="xNeO-3d8rriRWtKOrfHc-50" value="+ category: string" style="text;strokeColor=none;fillColor=none;align=left;verticalAlign=top;spacingLeft=4;spacingRight=4;overflow=hidden;rotatable=0;points=[[0,0.5],[1,0.5]];portConstraint=eastwest;" parent="xNeO-3d8rriRWtKOrfHc-49" vertex="1">
          
          <mxGeometry y="26" width="325" height="26" as="geometry" />
          
        </mxCell>
        
        <mxCell id="xNeO-3d8rriRWtKOrfHc-51" value="+ tasks: std::map&lt;_THREAD, _LIST&lt;MessageBody*&gt;&gt;" style="text;strokeColor=none;fillColor=none;align=left;verticalAlign=top;spacingLeft=4;spacingRight=4;overflow=hidden;rotatable=0;points=[[0,0.5],[1,0.5]];portConstraint=eastwest;" parent="xNeO-3d8rriRWtKOrfHc-49" vertex="1">
          
          <mxGeometry y="52" width="325" height="26" as="geometry" />
          
        </mxCell>
        
        <mxCell id="xNeO-3d8rriRWtKOrfHc-52" value="+ threadListLock: mutex" style="text;strokeColor=none;fillColor=none;align=left;verticalAlign=top;spacingLeft=4;spacingRight=4;overflow=hidden;rotatable=0;points=[[0,0.5],[1,0.5]];portConstraint=eastwest;" parent="xNeO-3d8rriRWtKOrfHc-49" vertex="1">
          
          <mxGeometry y="78" width="325" height="26" as="geometry" />
          
        </mxCell>
        
        <mxCell id="xNeO-3d8rriRWtKOrfHc-53" value="+ mtx: mutex" style="text;strokeColor=none;fillColor=none;align=left;verticalAlign=top;spacingLeft=4;spacingRight=4;overflow=hidden;rotatable=0;points=[[0,0.5],[1,0.5]];portConstraint=eastwest;" parent="xNeO-3d8rriRWtKOrfHc-49" vertex="1">
          
          <mxGeometry y="104" width="325" height="26" as="geometry" />
          
        </mxCell>
        
        <mxCell id="xNeO-3d8rriRWtKOrfHc-54" value="+ cv: condition_variable" style="text;strokeColor=none;fillColor=none;align=left;verticalAlign=top;spacingLeft=4;spacingRight=4;overflow=hidden;rotatable=0;points=[[0,0.5],[1,0.5]];portConstraint=eastwest;" parent="xNeO-3d8rriRWtKOrfHc-49" vertex="1">
          
          <mxGeometry y="130" width="325" height="26" as="geometry" />
          
        </mxCell>
        
        <mxCell id="xNeO-3d8rriRWtKOrfHc-57" value="+ threadList: std::list&lt;_THREAD&gt;" style="text;strokeColor=none;fillColor=none;align=left;verticalAlign=top;spacingLeft=4;spacingRight=4;overflow=hidden;rotatable=0;points=[[0,0.5],[1,0.5]];portConstraint=eastwest;" parent="xNeO-3d8rriRWtKOrfHc-49" vertex="1">
          
          <mxGeometry y="156" width="325" height="26" as="geometry" />
          
        </mxCell>
        
        <mxCell id="xNeO-3d8rriRWtKOrfHc-59" value="+ notifyList: std::list&lt;_THREAD&gt;" style="text;strokeColor=none;fillColor=none;align=left;verticalAlign=top;spacingLeft=4;spacingRight=4;overflow=hidden;rotatable=0;points=[[0,0.5],[1,0.5]];portConstraint=eastwest;" parent="xNeO-3d8rriRWtKOrfHc-49" vertex="1">
          
          <mxGeometry y="182" width="325" height="26" as="geometry" />
          
        </mxCell>
        
        <mxCell id="xNeO-3d8rriRWtKOrfHc-67" value="Use" style="endArrow=open;endSize=12;dashed=1;html=1;exitX=1.006;exitY=0.269;exitDx=0;exitDy=0;exitPerimeter=0;entryX=-0.006;entryY=-0.115;entryDx=0;entryDy=0;entryPerimeter=0;edgeStyle=orthogonalEdgeStyle;" parent="pH4N-c182QQzBMMdshUe-1" source="pH4N-c182QQzBMMdshUe-17" target="xNeO-3d8rriRWtKOrfHc-4" edge="1">
          
          <mxGeometry width="160" relative="1" as="geometry">
            
            <mxPoint x="360" y="560" as="sourcePoint" />
            
            <mxPoint x="520" y="560" as="targetPoint" />
            
          </mxGeometry>
          
        </mxCell>
        
        <mxCell id="xNeO-3d8rriRWtKOrfHc-68" value="Use" style="endArrow=open;endSize=12;dashed=1;html=1;exitX=0.489;exitY=1;exitDx=0;exitDy=0;exitPerimeter=0;" parent="pH4N-c182QQzBMMdshUe-1" source="pH4N-c182QQzBMMdshUe-31" target="xNeO-3d8rriRWtKOrfHc-0" edge="1">
          
          <mxGeometry width="160" relative="1" as="geometry">
            
            <mxPoint x="770" y="420" as="sourcePoint" />
            
            <mxPoint x="930" y="420" as="targetPoint" />
            
          </mxGeometry>
          
        </mxCell>
        
        <mxCell id="xNeO-3d8rriRWtKOrfHc-69" value="Use" style="endArrow=open;endSize=12;dashed=1;html=1;exitX=1;exitY=0.5;exitDx=0;exitDy=0;entryX=-0.006;entryY=0;entryDx=0;entryDy=0;entryPerimeter=0;" parent="pH4N-c182QQzBMMdshUe-1" source="xNeO-3d8rriRWtKOrfHc-66" target="xNeO-3d8rriRWtKOrfHc-54" edge="1">
          
          <mxGeometry width="160" relative="1" as="geometry">
            
            <mxPoint x="910" y="420" as="sourcePoint" />
            
            <mxPoint x="1070" y="420" as="targetPoint" />
            
          </mxGeometry>
          
        </mxCell>
        
        <mxCell id="xNeO-3d8rriRWtKOrfHc-70" value="Use" style="endArrow=open;endSize=12;dashed=1;html=1;" parent="pH4N-c182QQzBMMdshUe-1" edge="1">
          
          <mxGeometry width="160" relative="1" as="geometry">
            
            <mxPoint x="1200" y="180" as="sourcePoint" />
            
            <mxPoint x="1290" y="180" as="targetPoint" />
            
          </mxGeometry>
          
        </mxCell>
        
      </root>
      
    </mxGraphModel>
    
  </diagram>
  <diagram id="dUqh_ZVftojG12qFamyX" name="subscribe state">
    
    <mxGraphModel dx="1186" dy="692" grid="1" gridSize="10" guides="1" tooltips="1" connect="1" arrows="1" fold="1" page="1" pageScale="1" pageWidth="1169" pageHeight="827" math="0" shadow="0">
      
      <root>
        
        <mxCell id="io2X64Za2upi-k8NReuY-0" />
        
        <mxCell id="io2X64Za2upi-k8NReuY-1" parent="io2X64Za2upi-k8NReuY-0" />
        
        <mxCell id="io2X64Za2upi-k8NReuY-9" value="" style="rounded=1;whiteSpace=wrap;html=1;fillColor=#D5E8D4;" parent="io2X64Za2upi-k8NReuY-1" vertex="1">
          
          <mxGeometry x="450" y="140" width="360" height="245" as="geometry" />
          
        </mxCell>
        
        <mxCell id="io2X64Za2upi-k8NReuY-2" value="" style="ellipse;html=1;shape=startState;fillColor=#000000;strokeColor=#ff0000;opacity=40;" parent="io2X64Za2upi-k8NReuY-1" vertex="1">
          
          <mxGeometry x="310" y="90" width="30" height="30" as="geometry" />
          
        </mxCell>
        
        <mxCell id="io2X64Za2upi-k8NReuY-3" value="" style="edgeStyle=orthogonalEdgeStyle;html=1;verticalAlign=bottom;endArrow=open;endSize=8;strokeColor=#ff0000;" parent="io2X64Za2upi-k8NReuY-1" source="io2X64Za2upi-k8NReuY-2" edge="1">
          
          <mxGeometry relative="1" as="geometry">
            
            <mxPoint x="325" y="180" as="targetPoint" />
            
          </mxGeometry>
          
        </mxCell>
        
        <mxCell id="io2X64Za2upi-k8NReuY-4" value="New" style="rounded=1;whiteSpace=wrap;html=1;fillColor=#f5f5f5;strokeColor=#666666;fontColor=#333333;" parent="io2X64Za2upi-k8NReuY-1" vertex="1">
          
          <mxGeometry x="265" y="180" width="120" height="60" as="geometry" />
          
        </mxCell>
        
        <mxCell id="io2X64Za2upi-k8NReuY-12" value="subscribe" style="edgeStyle=orthogonalEdgeStyle;rounded=0;orthogonalLoop=1;jettySize=auto;html=1;exitX=0.5;exitY=1;exitDx=0;exitDy=0;entryX=0.5;entryY=0;entryDx=0;entryDy=0;" parent="io2X64Za2upi-k8NReuY-1" source="io2X64Za2upi-k8NReuY-5" target="io2X64Za2upi-k8NReuY-6" edge="1">
          
          <mxGeometry relative="1" as="geometry" />
          
        </mxCell>
        
        <mxCell id="io2X64Za2upi-k8NReuY-5" value="UNSBUSCRIBED" style="rounded=1;whiteSpace=wrap;html=1;fillColor=#f5f5f5;strokeColor=#666666;fontColor=#333333;" parent="io2X64Za2upi-k8NReuY-1" vertex="1">
          
          <mxGeometry x="465" y="180" width="120" height="60" as="geometry" />
          
        </mxCell>
        
        <mxCell id="io2X64Za2upi-k8NReuY-13" style="edgeStyle=orthogonalEdgeStyle;rounded=0;orthogonalLoop=1;jettySize=auto;html=1;exitX=1;exitY=0.5;exitDx=0;exitDy=0;entryX=0;entryY=0.5;entryDx=0;entryDy=0;" parent="io2X64Za2upi-k8NReuY-1" source="io2X64Za2upi-k8NReuY-6" target="io2X64Za2upi-k8NReuY-7" edge="1">
          
          <mxGeometry relative="1" as="geometry" />
          
        </mxCell>
        
        <mxCell id="io2X64Za2upi-k8NReuY-6" value="ATTEMPT" style="rounded=1;whiteSpace=wrap;html=1;fillColor=#f5f5f5;strokeColor=#666666;fontColor=#333333;" parent="io2X64Za2upi-k8NReuY-1" vertex="1">
          
          <mxGeometry x="465" y="290" width="120" height="60" as="geometry" />
          
        </mxCell>
        
        <mxCell id="io2X64Za2upi-k8NReuY-14" value="unsubscribe" style="edgeStyle=orthogonalEdgeStyle;rounded=0;orthogonalLoop=1;jettySize=auto;html=1;exitX=0.5;exitY=0;exitDx=0;exitDy=0;entryX=0.5;entryY=1;entryDx=0;entryDy=0;" parent="io2X64Za2upi-k8NReuY-1" source="io2X64Za2upi-k8NReuY-7" target="io2X64Za2upi-k8NReuY-8" edge="1">
          
          <mxGeometry relative="1" as="geometry" />
          
        </mxCell>
        
        <mxCell id="io2X64Za2upi-k8NReuY-7" value="SUBSCRIBED" style="rounded=1;whiteSpace=wrap;html=1;fillColor=#f5f5f5;strokeColor=#666666;fontColor=#333333;" parent="io2X64Za2upi-k8NReuY-1" vertex="1">
          
          <mxGeometry x="680" y="290" width="120" height="60" as="geometry" />
          
        </mxCell>
        
        <mxCell id="io2X64Za2upi-k8NReuY-15" style="edgeStyle=orthogonalEdgeStyle;rounded=0;orthogonalLoop=1;jettySize=auto;html=1;exitX=0;exitY=0.5;exitDx=0;exitDy=0;entryX=1;entryY=0.5;entryDx=0;entryDy=0;" parent="io2X64Za2upi-k8NReuY-1" source="io2X64Za2upi-k8NReuY-8" target="io2X64Za2upi-k8NReuY-5" edge="1">
          
          <mxGeometry relative="1" as="geometry" />
          
        </mxCell>
        
        <mxCell id="io2X64Za2upi-k8NReuY-8" value="LEAVING" style="rounded=1;whiteSpace=wrap;html=1;fillColor=#f5f5f5;strokeColor=#666666;fontColor=#333333;" parent="io2X64Za2upi-k8NReuY-1" vertex="1">
          
          <mxGeometry x="680" y="180" width="120" height="60" as="geometry" />
          
        </mxCell>
        
        <mxCell id="io2X64Za2upi-k8NReuY-10" value="subscribe" style="text;html=1;strokeColor=none;fillColor=none;align=center;verticalAlign=middle;whiteSpace=wrap;rounded=0;" parent="io2X64Za2upi-k8NReuY-1" vertex="1">
          
          <mxGeometry x="480" y="150" width="40" height="20" as="geometry" />
          
        </mxCell>
        
        <mxCell id="io2X64Za2upi-k8NReuY-11" value="start" style="endArrow=classic;html=1;exitX=1;exitY=0.5;exitDx=0;exitDy=0;entryX=0;entryY=0.5;entryDx=0;entryDy=0;" parent="io2X64Za2upi-k8NReuY-1" source="io2X64Za2upi-k8NReuY-4" target="io2X64Za2upi-k8NReuY-5" edge="1">
          
          <mxGeometry width="50" height="50" relative="1" as="geometry">
            
            <mxPoint x="340" y="360" as="sourcePoint" />
            
            <mxPoint x="390" y="310" as="targetPoint" />
            
          </mxGeometry>
          
        </mxCell>
        
        <mxCell id="io2X64Za2upi-k8NReuY-16" value="" style="ellipse;html=1;shape=endState;fillColor=#000000;strokeColor=#ff0000;" parent="io2X64Za2upi-k8NReuY-1" vertex="1">
          
          <mxGeometry x="900" y="247.5" width="30" height="30" as="geometry" />
          
        </mxCell>
        
        <mxCell id="io2X64Za2upi-k8NReuY-17" value="" style="endArrow=classic;html=1;exitX=1;exitY=0.5;exitDx=0;exitDy=0;entryX=0;entryY=0.5;entryDx=0;entryDy=0;" parent="io2X64Za2upi-k8NReuY-1" source="io2X64Za2upi-k8NReuY-9" target="io2X64Za2upi-k8NReuY-16" edge="1">
          
          <mxGeometry width="50" height="50" relative="1" as="geometry">
            
            <mxPoint x="850" y="480" as="sourcePoint" />
            
            <mxPoint x="900" y="430" as="targetPoint" />
            
          </mxGeometry>
          
        </mxCell>
        
        <mxCell id="io2X64Za2upi-k8NReuY-18" value="stop" style="text;html=1;align=center;verticalAlign=middle;resizable=0;points=[];labelBackgroundColor=#ffffff;" parent="io2X64Za2upi-k8NReuY-17" vertex="1" connectable="0">
          
          <mxGeometry x="-0.1111" y="2" relative="1" as="geometry">
            
            <mxPoint y="1" as="offset" />
            
          </mxGeometry>
          
        </mxCell>
        
      </root>
      
    </mxGraphModel>
    
  </diagram>
  <diagram id="w1f6g1Pg-zi8b_-E48yj" name="Message Threads">
    
    <mxGraphModel dx="1186" dy="692" grid="1" gridSize="10" guides="1" tooltips="1" connect="1" arrows="1" fold="1" page="1" pageScale="1" pageWidth="1169" pageHeight="827" math="0" shadow="0">
      
      <root>
        
        <mxCell id="zHJg-XCb_AXaMUgWT4tc-0" />
        
        <mxCell id="zHJg-XCb_AXaMUgWT4tc-1" parent="zHJg-XCb_AXaMUgWT4tc-0" />
        
        <mxCell id="zHJg-XCb_AXaMUgWT4tc-2" value="" style="endArrow=classic;html=1;jumpStyle=none;strokeWidth=3;" parent="zHJg-XCb_AXaMUgWT4tc-1" edge="1">
          
          <mxGeometry width="50" height="50" relative="1" as="geometry">
            
            <mxPoint x="170" y="150" as="sourcePoint" />
            
            <mxPoint x="1030" y="150" as="targetPoint" />
            
          </mxGeometry>
          
        </mxCell>
        
        <mxCell id="zHJg-XCb_AXaMUgWT4tc-3" value="Sender Thread" style="text;html=1;strokeColor=none;fillColor=none;align=center;verticalAlign=middle;whiteSpace=wrap;rounded=0;" parent="zHJg-XCb_AXaMUgWT4tc-1" vertex="1">
          
          <mxGeometry x="170" y="80" width="40" height="20" as="geometry" />
          
        </mxCell>
        
        <mxCell id="zHJg-XCb_AXaMUgWT4tc-4" value="" style="rounded=1;whiteSpace=wrap;html=1;fillColor=#D5E8D4;" parent="zHJg-XCb_AXaMUgWT4tc-1" vertex="1">
          
          <mxGeometry x="170" y="190" width="660" height="100" as="geometry" />
          
        </mxCell>
        
        <mxCell id="zHJg-XCb_AXaMUgWT4tc-5" value="MessageQueue" style="text;html=1;strokeColor=none;fillColor=none;align=center;verticalAlign=middle;whiteSpace=wrap;rounded=0;" parent="zHJg-XCb_AXaMUgWT4tc-1" vertex="1">
          
          <mxGeometry x="210" y="200" width="40" height="20" as="geometry" />
          
        </mxCell>
        
        <mxCell id="zHJg-XCb_AXaMUgWT4tc-8" value="MessageBody" style="rounded=0;whiteSpace=wrap;html=1;fillColor=#fff2cc;strokeColor=#d6b656;" parent="zHJg-XCb_AXaMUgWT4tc-1" vertex="1">
          
          <mxGeometry x="190" y="230" width="100" height="40" as="geometry" />
          
        </mxCell>
        
        <mxCell id="zHJg-XCb_AXaMUgWT4tc-9" value="MessageBody" style="rounded=0;whiteSpace=wrap;html=1;fillColor=#fff2cc;strokeColor=#d6b656;" parent="zHJg-XCb_AXaMUgWT4tc-1" vertex="1">
          
          <mxGeometry x="300" y="230" width="100" height="40" as="geometry" />
          
        </mxCell>
        
        <mxCell id="zHJg-XCb_AXaMUgWT4tc-10" value="MessageBody" style="rounded=0;whiteSpace=wrap;html=1;fillColor=#fff2cc;strokeColor=#d6b656;" parent="zHJg-XCb_AXaMUgWT4tc-1" vertex="1">
          
          <mxGeometry x="410" y="230" width="100" height="40" as="geometry" />
          
        </mxCell>
        
        <mxCell id="zHJg-XCb_AXaMUgWT4tc-11" value="" style="endArrow=classic;html=1;strokeWidth=3;entryX=0.5;entryY=0;entryDx=0;entryDy=0;" parent="zHJg-XCb_AXaMUgWT4tc-1" target="zHJg-XCb_AXaMUgWT4tc-10" edge="1">
          
          <mxGeometry width="50" height="50" relative="1" as="geometry">
            
            <mxPoint x="460" y="150" as="sourcePoint" />
            
            <mxPoint x="340" y="40" as="targetPoint" />
            
          </mxGeometry>
          
        </mxCell>
        
        <mxCell id="zHJg-XCb_AXaMUgWT4tc-12" value="SendMessage()" style="text;html=1;align=center;verticalAlign=middle;resizable=0;points=[];labelBackgroundColor=#ffffff;" parent="zHJg-XCb_AXaMUgWT4tc-11" vertex="1" connectable="0">
          
          <mxGeometry x="-0.6" y="1" relative="1" as="geometry">
            
            <mxPoint as="offset" />
            
          </mxGeometry>
          
        </mxCell>
        
        <mxCell id="zHJg-XCb_AXaMUgWT4tc-13" value="" style="endArrow=classic;html=1;strokeWidth=3;" parent="zHJg-XCb_AXaMUgWT4tc-1" source="zHJg-XCb_AXaMUgWT4tc-23" edge="1">
          
          <mxGeometry width="50" height="50" relative="1" as="geometry">
            
            <mxPoint x="170" y="370" as="sourcePoint" />
            
            <mxPoint x="1030" y="370" as="targetPoint" />
            
          </mxGeometry>
          
        </mxCell>
        
        <mxCell id="zHJg-XCb_AXaMUgWT4tc-14" value="Subscriber 1" style="text;html=1;strokeColor=none;fillColor=none;align=center;verticalAlign=middle;whiteSpace=wrap;rounded=0;" parent="zHJg-XCb_AXaMUgWT4tc-1" vertex="1">
          
          <mxGeometry x="170" y="330" width="90" height="20" as="geometry" />
          
        </mxCell>
        
        <mxCell id="zHJg-XCb_AXaMUgWT4tc-15" value="" style="endArrow=classic;html=1;strokeWidth=3;" parent="zHJg-XCb_AXaMUgWT4tc-1" source="zHJg-XCb_AXaMUgWT4tc-26" edge="1">
          
          <mxGeometry width="50" height="50" relative="1" as="geometry">
            
            <mxPoint x="170" y="440" as="sourcePoint" />
            
            <mxPoint x="1030" y="440" as="targetPoint" />
            
          </mxGeometry>
          
        </mxCell>
        
        <mxCell id="zHJg-XCb_AXaMUgWT4tc-16" value="Subscriber 2" style="text;html=1;strokeColor=none;fillColor=none;align=center;verticalAlign=middle;whiteSpace=wrap;rounded=0;" parent="zHJg-XCb_AXaMUgWT4tc-1" vertex="1">
          
          <mxGeometry x="170" y="400" width="90" height="20" as="geometry" />
          
        </mxCell>
        
        <mxCell id="zHJg-XCb_AXaMUgWT4tc-17" value="" style="endArrow=classic;html=1;strokeWidth=3;exitX=0.5;exitY=1;exitDx=0;exitDy=0;edgeStyle=orthogonalEdgeStyle;" parent="zHJg-XCb_AXaMUgWT4tc-1" source="zHJg-XCb_AXaMUgWT4tc-8" edge="1">
          
          <mxGeometry width="50" height="50" relative="1" as="geometry">
            
            <mxPoint x="230" y="600" as="sourcePoint" />
            
            <mxPoint x="380" y="370" as="targetPoint" />
            
          </mxGeometry>
          
        </mxCell>
        
        <mxCell id="zHJg-XCb_AXaMUgWT4tc-18" value="" style="endArrow=classic;html=1;strokeWidth=3;exitX=0.5;exitY=1;exitDx=0;exitDy=0;edgeStyle=orthogonalEdgeStyle;" parent="zHJg-XCb_AXaMUgWT4tc-1" source="zHJg-XCb_AXaMUgWT4tc-8" edge="1">
          
          <mxGeometry width="50" height="50" relative="1" as="geometry">
            
            <mxPoint x="250" y="280" as="sourcePoint" />
            
            <mxPoint x="380" y="440" as="targetPoint" />
            
            <Array as="points">
              
              <mxPoint x="240" y="320" />
              
              <mxPoint x="380" y="320" />
              
            </Array>
            
          </mxGeometry>
          
        </mxCell>
        
        <mxCell id="zHJg-XCb_AXaMUgWT4tc-25" value="GetMessage" style="text;html=1;align=center;verticalAlign=middle;resizable=0;points=[];labelBackgroundColor=#ffffff;" parent="zHJg-XCb_AXaMUgWT4tc-18" vertex="1" connectable="0">
          
          <mxGeometry x="-0.2581" y="1" relative="1" as="geometry">
            
            <mxPoint as="offset" />
            
          </mxGeometry>
          
        </mxCell>
        
        <mxCell id="zHJg-XCb_AXaMUgWT4tc-23" value="HandleMessage()" style="rounded=0;whiteSpace=wrap;html=1;fillColor=#f8cecc;strokeColor=#b85450;" parent="zHJg-XCb_AXaMUgWT4tc-1" vertex="1">
          
          <mxGeometry x="410" y="356" width="380" height="30" as="geometry" />
          
        </mxCell>
        
        <mxCell id="zHJg-XCb_AXaMUgWT4tc-24" value="" style="endArrow=classic;html=1;strokeWidth=3;" parent="zHJg-XCb_AXaMUgWT4tc-1" target="zHJg-XCb_AXaMUgWT4tc-23" edge="1">
          
          <mxGeometry width="50" height="50" relative="1" as="geometry">
            
            <mxPoint x="170" y="370" as="sourcePoint" />
            
            <mxPoint x="1160" y="370" as="targetPoint" />
            
          </mxGeometry>
          
        </mxCell>
        
        <mxCell id="zHJg-XCb_AXaMUgWT4tc-26" value="HandleMessage()" style="rounded=0;whiteSpace=wrap;html=1;fillColor=#f8cecc;strokeColor=#b85450;" parent="zHJg-XCb_AXaMUgWT4tc-1" vertex="1">
          
          <mxGeometry x="410" y="424" width="250" height="30" as="geometry" />
          
        </mxCell>
        
        <mxCell id="zHJg-XCb_AXaMUgWT4tc-27" value="" style="endArrow=classic;html=1;strokeWidth=3;" parent="zHJg-XCb_AXaMUgWT4tc-1" target="zHJg-XCb_AXaMUgWT4tc-26" edge="1">
          
          <mxGeometry width="50" height="50" relative="1" as="geometry">
            
            <mxPoint x="170" y="440" as="sourcePoint" />
            
            <mxPoint x="1160" y="440" as="targetPoint" />
            
          </mxGeometry>
          
        </mxCell>
        
        <mxCell id="zHJg-XCb_AXaMUgWT4tc-28" value="" style="rounded=1;whiteSpace=wrap;html=1;fillColor=#D5E8D4;" parent="zHJg-XCb_AXaMUgWT4tc-1" vertex="1">
          
          <mxGeometry x="170" y="500" width="690" height="100" as="geometry" />
          
        </mxCell>
        
        <mxCell id="zHJg-XCb_AXaMUgWT4tc-55" style="edgeStyle=orthogonalEdgeStyle;rounded=0;jumpStyle=none;orthogonalLoop=1;jettySize=auto;html=1;exitX=0.5;exitY=1;exitDx=0;exitDy=0;entryX=0.25;entryY=0;entryDx=0;entryDy=0;strokeWidth=3;" parent="zHJg-XCb_AXaMUgWT4tc-1" source="zHJg-XCb_AXaMUgWT4tc-29" target="zHJg-XCb_AXaMUgWT4tc-40" edge="1">
          
          <mxGeometry relative="1" as="geometry" />
          
        </mxCell>
        
        <mxCell id="zHJg-XCb_AXaMUgWT4tc-29" value="MessageBody" style="rounded=0;whiteSpace=wrap;html=1;fillColor=#fff2cc;strokeColor=#d6b656;" parent="zHJg-XCb_AXaMUgWT4tc-1" vertex="1">
          
          <mxGeometry x="190" y="540" width="100" height="40" as="geometry" />
          
        </mxCell>
        
        <mxCell id="zHJg-XCb_AXaMUgWT4tc-30" value="MessageBin" style="text;html=1;strokeColor=none;fillColor=none;align=center;verticalAlign=middle;whiteSpace=wrap;rounded=0;" parent="zHJg-XCb_AXaMUgWT4tc-1" vertex="1">
          
          <mxGeometry x="200" y="510" width="40" height="20" as="geometry" />
          
        </mxCell>
        
        <mxCell id="zHJg-XCb_AXaMUgWT4tc-43" style="edgeStyle=orthogonalEdgeStyle;rounded=0;jumpStyle=none;orthogonalLoop=1;jettySize=auto;html=1;exitX=0.5;exitY=1;exitDx=0;exitDy=0;entryX=0.25;entryY=0;entryDx=0;entryDy=0;strokeWidth=3;" parent="zHJg-XCb_AXaMUgWT4tc-1" source="zHJg-XCb_AXaMUgWT4tc-31" target="zHJg-XCb_AXaMUgWT4tc-40" edge="1">
          
          <mxGeometry relative="1" as="geometry" />
          
        </mxCell>
        
        <mxCell id="zHJg-XCb_AXaMUgWT4tc-31" value="MessageBody" style="rounded=0;whiteSpace=wrap;html=1;fillColor=#fff2cc;strokeColor=#d6b656;" parent="zHJg-XCb_AXaMUgWT4tc-1" vertex="1">
          
          <mxGeometry x="300" y="540" width="100" height="40" as="geometry" />
          
        </mxCell>
        
        <mxCell id="zHJg-XCb_AXaMUgWT4tc-44" style="edgeStyle=orthogonalEdgeStyle;rounded=0;jumpStyle=none;orthogonalLoop=1;jettySize=auto;html=1;exitX=0.5;exitY=1;exitDx=0;exitDy=0;entryX=0.25;entryY=0;entryDx=0;entryDy=0;strokeWidth=3;" parent="zHJg-XCb_AXaMUgWT4tc-1" source="zHJg-XCb_AXaMUgWT4tc-32" target="zHJg-XCb_AXaMUgWT4tc-40" edge="1">
          
          <mxGeometry relative="1" as="geometry" />
          
        </mxCell>
        
        <mxCell id="zHJg-XCb_AXaMUgWT4tc-32" value="MessageBody" style="rounded=0;whiteSpace=wrap;html=1;fillColor=#fff2cc;strokeColor=#d6b656;" parent="zHJg-XCb_AXaMUgWT4tc-1" vertex="1">
          
          <mxGeometry x="410" y="540" width="100" height="40" as="geometry" />
          
        </mxCell>
        
        <mxCell id="zHJg-XCb_AXaMUgWT4tc-52" style="edgeStyle=orthogonalEdgeStyle;rounded=0;jumpStyle=none;orthogonalLoop=1;jettySize=auto;html=1;exitX=0.5;exitY=1;exitDx=0;exitDy=0;entryX=0.5;entryY=0;entryDx=0;entryDy=0;strokeWidth=3;" parent="zHJg-XCb_AXaMUgWT4tc-1" source="zHJg-XCb_AXaMUgWT4tc-33" target="zHJg-XCb_AXaMUgWT4tc-50" edge="1">
          
          <mxGeometry relative="1" as="geometry" />
          
        </mxCell>
        
        <mxCell id="zHJg-XCb_AXaMUgWT4tc-33" value="MessageBody" style="rounded=0;whiteSpace=wrap;html=1;fillColor=#fff2cc;strokeColor=#d6b656;" parent="zHJg-XCb_AXaMUgWT4tc-1" vertex="1">
          
          <mxGeometry x="520" y="540" width="100" height="40" as="geometry" />
          
        </mxCell>
        
        <mxCell id="zHJg-XCb_AXaMUgWT4tc-53" style="edgeStyle=orthogonalEdgeStyle;rounded=0;jumpStyle=none;orthogonalLoop=1;jettySize=auto;html=1;exitX=0.5;exitY=1;exitDx=0;exitDy=0;strokeWidth=3;entryX=0.5;entryY=0;entryDx=0;entryDy=0;" parent="zHJg-XCb_AXaMUgWT4tc-1" source="zHJg-XCb_AXaMUgWT4tc-34" target="zHJg-XCb_AXaMUgWT4tc-50" edge="1">
          
          <mxGeometry relative="1" as="geometry">
            
            <mxPoint x="940" y="640" as="targetPoint" />
            
          </mxGeometry>
          
        </mxCell>
        
        <mxCell id="zHJg-XCb_AXaMUgWT4tc-34" value="MessageBody" style="rounded=0;whiteSpace=wrap;html=1;fillColor=#fff2cc;strokeColor=#d6b656;" parent="zHJg-XCb_AXaMUgWT4tc-1" vertex="1">
          
          <mxGeometry x="630" y="540" width="100" height="40" as="geometry" />
          
        </mxCell>
        
        <mxCell id="zHJg-XCb_AXaMUgWT4tc-54" style="edgeStyle=orthogonalEdgeStyle;rounded=0;jumpStyle=none;orthogonalLoop=1;jettySize=auto;html=1;exitX=0.5;exitY=1;exitDx=0;exitDy=0;strokeWidth=3;entryX=0.5;entryY=0;entryDx=0;entryDy=0;" parent="zHJg-XCb_AXaMUgWT4tc-1" source="zHJg-XCb_AXaMUgWT4tc-35" target="zHJg-XCb_AXaMUgWT4tc-50" edge="1">
          
          <mxGeometry relative="1" as="geometry">
            
            <mxPoint x="970" y="630" as="targetPoint" />
            
          </mxGeometry>
          
        </mxCell>
        
        <mxCell id="zHJg-XCb_AXaMUgWT4tc-35" value="MessageBody" style="rounded=0;whiteSpace=wrap;html=1;fillColor=#fff2cc;strokeColor=#d6b656;" parent="zHJg-XCb_AXaMUgWT4tc-1" vertex="1">
          
          <mxGeometry x="740" y="540" width="100" height="40" as="geometry" />
          
        </mxCell>
        
        <mxCell id="zHJg-XCb_AXaMUgWT4tc-36" value="" style="endArrow=classic;html=1;strokeWidth=3;entryX=0.5;entryY=0;entryDx=0;entryDy=0;exitX=1;exitY=1;exitDx=0;exitDy=0;" parent="zHJg-XCb_AXaMUgWT4tc-1" source="zHJg-XCb_AXaMUgWT4tc-23" target="zHJg-XCb_AXaMUgWT4tc-35" edge="1">
          
          <mxGeometry width="50" height="50" relative="1" as="geometry">
            
            <mxPoint x="560" y="430" as="sourcePoint" />
            
            <mxPoint x="610" y="380" as="targetPoint" />
            
          </mxGeometry>
          
        </mxCell>
        
        <mxCell id="zHJg-XCb_AXaMUgWT4tc-37" value="ThrowToBin()" style="text;html=1;align=center;verticalAlign=middle;resizable=0;points=[];labelBackgroundColor=#ffffff;" parent="zHJg-XCb_AXaMUgWT4tc-36" vertex="1" connectable="0">
          
          <mxGeometry x="-0.0519" y="1" relative="1" as="geometry">
            
            <mxPoint as="offset" />
            
          </mxGeometry>
          
        </mxCell>
        
        <mxCell id="zHJg-XCb_AXaMUgWT4tc-38" value="RecycleThread" style="text;html=1;strokeColor=none;fillColor=none;align=center;verticalAlign=middle;whiteSpace=wrap;rounded=0;" parent="zHJg-XCb_AXaMUgWT4tc-1" vertex="1">
          
          <mxGeometry x="175" y="660" width="90" height="20" as="geometry" />
          
        </mxCell>
        
        <mxCell id="zHJg-XCb_AXaMUgWT4tc-39" value="" style="endArrow=classic;html=1;strokeWidth=3;" parent="zHJg-XCb_AXaMUgWT4tc-1" source="zHJg-XCb_AXaMUgWT4tc-50" edge="1">
          
          <mxGeometry width="50" height="50" relative="1" as="geometry">
            
            <mxPoint x="170" y="700" as="sourcePoint" />
            
            <mxPoint x="1030" y="699" as="targetPoint" />
            
          </mxGeometry>
          
        </mxCell>
        
        <mxCell id="zHJg-XCb_AXaMUgWT4tc-40" value="ClearBin()" style="rounded=0;whiteSpace=wrap;html=1;fillColor=#f8cecc;strokeColor=#b85450;" parent="zHJg-XCb_AXaMUgWT4tc-1" vertex="1">
          
          <mxGeometry x="530" y="685" width="90" height="30" as="geometry" />
          
        </mxCell>
        
        <mxCell id="zHJg-XCb_AXaMUgWT4tc-41" value="" style="endArrow=classic;html=1;strokeWidth=3;" parent="zHJg-XCb_AXaMUgWT4tc-1" target="zHJg-XCb_AXaMUgWT4tc-40" edge="1">
          
          <mxGeometry width="50" height="50" relative="1" as="geometry">
            
            <mxPoint x="170" y="700" as="sourcePoint" />
            
            <mxPoint x="1030" y="699" as="targetPoint" />
            
          </mxGeometry>
          
        </mxCell>
        
        <mxCell id="zHJg-XCb_AXaMUgWT4tc-50" value="ClearBin()" style="rounded=0;whiteSpace=wrap;html=1;fillColor=#f8cecc;strokeColor=#b85450;" parent="zHJg-XCb_AXaMUgWT4tc-1" vertex="1">
          
          <mxGeometry x="840" y="685" width="90" height="30" as="geometry" />
          
        </mxCell>
        
        <mxCell id="zHJg-XCb_AXaMUgWT4tc-51" value="" style="endArrow=classic;html=1;strokeWidth=3;" parent="zHJg-XCb_AXaMUgWT4tc-1" source="zHJg-XCb_AXaMUgWT4tc-40" target="zHJg-XCb_AXaMUgWT4tc-50" edge="1">
          
          <mxGeometry width="50" height="50" relative="1" as="geometry">
            
            <mxPoint x="620" y="699.901098901099" as="sourcePoint" />
            
            <mxPoint x="1030" y="699" as="targetPoint" />
            
          </mxGeometry>
          
        </mxCell>
        
      </root>
      
    </mxGraphModel>
    
  </diagram>
  <diagram id="M4KIF2_cdWlyCHpnZrpQ" name="nitro lib">
    
    <mxGraphModel dx="1186" dy="692" grid="1" gridSize="10" guides="1" tooltips="1" connect="1" arrows="1" fold="1" page="1" pageScale="1" pageWidth="1169" pageHeight="827" math="0" shadow="0">
      
      <root>
        
        <mxCell id="ziAkBRfw1IPfDMnyNzF--0" />
        
        <mxCell id="ziAkBRfw1IPfDMnyNzF--1" parent="ziAkBRfw1IPfDMnyNzF--0" />
        
        <mxCell id="ziAkBRfw1IPfDMnyNzF--3" value="NitroInterface" style="rounded=0;whiteSpace=wrap;html=1;fillColor=#D5E8D4;" parent="ziAkBRfw1IPfDMnyNzF--1" vertex="1">
          
          <mxGeometry x="220" y="130" width="710" height="60" as="geometry" />
          
        </mxCell>
        
        <mxCell id="ziAkBRfw1IPfDMnyNzF--4" value="VPS" style="rounded=0;whiteSpace=wrap;html=1;fillColor=#dae8fc;strokeColor=#6c8ebf;" parent="ziAkBRfw1IPfDMnyNzF--1" vertex="1">
          
          <mxGeometry x="220" y="210" width="120" height="60" as="geometry" />
          
        </mxCell>
        
        <mxCell id="ziAkBRfw1IPfDMnyNzF--5" value="Sensor" style="rounded=0;whiteSpace=wrap;html=1;fillColor=#dae8fc;strokeColor=#6c8ebf;" parent="ziAkBRfw1IPfDMnyNzF--1" vertex="1">
          
          <mxGeometry x="368" y="210" width="120" height="60" as="geometry" />
          
        </mxCell>
        
        <mxCell id="ziAkBRfw1IPfDMnyNzF--6" value="Recorder" style="rounded=0;whiteSpace=wrap;html=1;fillColor=#dae8fc;strokeColor=#6c8ebf;" parent="ziAkBRfw1IPfDMnyNzF--1" vertex="1">
          
          <mxGeometry x="515" y="210" width="120" height="60" as="geometry" />
          
        </mxCell>
        
        <mxCell id="ziAkBRfw1IPfDMnyNzF--7" value="Render" style="rounded=0;whiteSpace=wrap;html=1;fillColor=#dae8fc;strokeColor=#6c8ebf;" parent="ziAkBRfw1IPfDMnyNzF--1" vertex="1">
          
          <mxGeometry x="663" y="210" width="120" height="60" as="geometry" />
          
        </mxCell>
        
        <mxCell id="ziAkBRfw1IPfDMnyNzF--8" value="..." style="rounded=0;whiteSpace=wrap;html=1;fillColor=#dae8fc;strokeColor=#6c8ebf;" parent="ziAkBRfw1IPfDMnyNzF--1" vertex="1">
          
          <mxGeometry x="810" y="210" width="120" height="60" as="geometry" />
          
        </mxCell>
        
        <mxCell id="ziAkBRfw1IPfDMnyNzF--9" value="VPS" style="rounded=0;whiteSpace=wrap;html=1;fillColor=#1ba1e2;strokeColor=#006EAF;fontColor=#ffffff;" parent="ziAkBRfw1IPfDMnyNzF--1" vertex="1">
          
          <mxGeometry x="220" y="290" width="340" height="60" as="geometry" />
          
        </mxCell>
        
        <mxCell id="ziAkBRfw1IPfDMnyNzF--10" value="Bulb" style="rounded=0;whiteSpace=wrap;html=1;fillColor=#1ba1e2;strokeColor=#006EAF;fontColor=#ffffff;" parent="ziAkBRfw1IPfDMnyNzF--1" vertex="1">
          
          <mxGeometry x="590" y="290" width="340" height="60" as="geometry" />
          
        </mxCell>
        
        <mxCell id="ziAkBRfw1IPfDMnyNzF--11" value="OpenCV" style="rounded=0;whiteSpace=wrap;html=1;fillColor=#647687;strokeColor=#314354;fontColor=#ffffff;" parent="ziAkBRfw1IPfDMnyNzF--1" vertex="1">
          
          <mxGeometry x="220" y="370" width="340" height="60" as="geometry" />
          
        </mxCell>
        
        <mxCell id="ziAkBRfw1IPfDMnyNzF--12" value="Filament" style="rounded=0;whiteSpace=wrap;html=1;fillColor=#647687;strokeColor=#314354;fontColor=#ffffff;" parent="ziAkBRfw1IPfDMnyNzF--1" vertex="1">
          
          <mxGeometry x="590" y="370" width="340" height="60" as="geometry" />
          
        </mxCell>
        
        <mxCell id="ziAkBRfw1IPfDMnyNzF--13" value="CommonLib" style="rounded=0;whiteSpace=wrap;html=1;fillColor=#e1d5e7;strokeColor=#9673a6;" parent="ziAkBRfw1IPfDMnyNzF--1" vertex="1">
          
          <mxGeometry x="220" y="450" width="710" height="50" as="geometry" />
          
        </mxCell>
        
      </root>
      
    </mxGraphModel>
    
  </diagram>
  <diagram id="MhUWf9PI109R7R2x6lfk" name="AAR">
    
    <mxGraphModel dx="1186" dy="692" grid="1" gridSize="10" guides="1" tooltips="1" connect="1" arrows="1" fold="1" page="1" pageScale="1" pageWidth="1169" pageHeight="827" math="0" shadow="0">
      
      <root>
        
        <mxCell id="G09xqs_1UrBlIRhSAal9-0" />
        
        <mxCell id="G09xqs_1UrBlIRhSAal9-1" parent="G09xqs_1UrBlIRhSAal9-0" />
        
        <mxCell id="G09xqs_1UrBlIRhSAal9-2" value="ARSurfaceView" style="rounded=0;whiteSpace=wrap;html=1;fillColor=#ffe6cc;strokeColor=#d79b00;" parent="G09xqs_1UrBlIRhSAal9-1" vertex="1">
          
          <mxGeometry x="220" y="110" width="440" height="60" as="geometry" />
          
        </mxCell>
        
        <mxCell id="G09xqs_1UrBlIRhSAal9-3" value="ARWalkManager" style="rounded=0;whiteSpace=wrap;html=1;fillColor=#f8cecc;strokeColor=#b85450;" parent="G09xqs_1UrBlIRhSAal9-1" vertex="1">
          
          <mxGeometry x="220" y="190" width="440" height="60" as="geometry" />
          
        </mxCell>
        
        <mxCell id="G09xqs_1UrBlIRhSAal9-4" value="" style="rounded=0;whiteSpace=wrap;html=1;fillColor=#dae8fc;strokeColor=#6c8ebf;" parent="G09xqs_1UrBlIRhSAal9-1" vertex="1">
          
          <mxGeometry x="220" y="270" width="210" height="60" as="geometry" />
          
        </mxCell>
        
        <mxCell id="G09xqs_1UrBlIRhSAal9-13" style="edgeStyle=orthogonalEdgeStyle;rounded=0;jumpStyle=none;orthogonalLoop=1;jettySize=auto;html=1;exitX=0.5;exitY=1;exitDx=0;exitDy=0;entryX=0.5;entryY=0;entryDx=0;entryDy=0;strokeWidth=1;" parent="G09xqs_1UrBlIRhSAal9-1" source="G09xqs_1UrBlIRhSAal9-5" target="G09xqs_1UrBlIRhSAal9-9" edge="1">
          
          <mxGeometry relative="1" as="geometry" />
          
        </mxCell>
        
        <mxCell id="G09xqs_1UrBlIRhSAal9-5" value="JNINitroEngine" style="rounded=0;whiteSpace=wrap;html=1;fillColor=#dae8fc;strokeColor=#6c8ebf;" parent="G09xqs_1UrBlIRhSAal9-1" vertex="1">
          
          <mxGeometry x="450" y="270" width="210" height="60" as="geometry" />
          
        </mxCell>
        
        <mxCell id="G09xqs_1UrBlIRhSAal9-6" value="Camera" style="rounded=0;whiteSpace=wrap;html=1;fillColor=#333333;opacity=30;" parent="G09xqs_1UrBlIRhSAal9-1" vertex="1">
          
          <mxGeometry x="230" y="290" width="90" height="36" as="geometry" />
          
        </mxCell>
        
        <mxCell id="G09xqs_1UrBlIRhSAal9-7" value="Camera2" style="rounded=0;whiteSpace=wrap;html=1;fillColor=#333333;opacity=30;" parent="G09xqs_1UrBlIRhSAal9-1" vertex="1">
          
          <mxGeometry x="330" y="290" width="90" height="36" as="geometry" />
          
        </mxCell>
        
        <mxCell id="G09xqs_1UrBlIRhSAal9-8" value="&lt;font style=&quot;font-size: 11px&quot;&gt;Hardware&lt;/font&gt;" style="text;html=1;strokeColor=none;fillColor=none;align=center;verticalAlign=middle;whiteSpace=wrap;rounded=0;opacity=30;" parent="G09xqs_1UrBlIRhSAal9-1" vertex="1">
          
          <mxGeometry x="240" y="270" width="40" height="20" as="geometry" />
          
        </mxCell>
        
        <mxCell id="G09xqs_1UrBlIRhSAal9-11" style="edgeStyle=orthogonalEdgeStyle;rounded=0;jumpStyle=none;orthogonalLoop=1;jettySize=auto;html=1;exitX=0.5;exitY=1;exitDx=0;exitDy=0;entryX=0.5;entryY=0;entryDx=0;entryDy=0;strokeWidth=1;" parent="G09xqs_1UrBlIRhSAal9-1" source="G09xqs_1UrBlIRhSAal9-9" target="G09xqs_1UrBlIRhSAal9-10" edge="1">
          
          <mxGeometry relative="1" as="geometry" />
          
        </mxCell>
        
        <mxCell id="G09xqs_1UrBlIRhSAal9-9" value="JNI" style="rounded=0;whiteSpace=wrap;html=1;fillColor=#1ba1e2;strokeColor=#006EAF;fontColor=#ffffff;" parent="G09xqs_1UrBlIRhSAal9-1" vertex="1">
          
          <mxGeometry x="220" y="370" width="440" height="60" as="geometry" />
          
        </mxCell>
        
        <mxCell id="G09xqs_1UrBlIRhSAal9-10" value="NitroInterface" style="rounded=0;whiteSpace=wrap;html=1;fillColor=#6d8764;strokeColor=#3A5431;fontColor=#ffffff;" parent="G09xqs_1UrBlIRhSAal9-1" vertex="1">
          
          <mxGeometry x="220" y="450" width="440" height="60" as="geometry" />
          
        </mxCell>
        
      </root>
      
    </mxGraphModel>
    
  </diagram>
  <diagram id="cBZf6iawSH8uVLn6pKd0" name="Page-13">
    <mxGraphModel dx="2066" dy="1131" grid="1" gridSize="10" guides="1" tooltips="1" connect="1" arrows="1" fold="1" page="1" pageScale="1" pageWidth="1169" pageHeight="827" math="0" shadow="0">
      <root>
        <mxCell id="QiKvLqk8T3tollXakjve-0" />
        <mxCell id="QiKvLqk8T3tollXakjve-1" parent="QiKvLqk8T3tollXakjve-0" />
        <mxCell id="1zWaw9_fBP0xSfdhk8z3-0" value="" style="rounded=1;whiteSpace=wrap;html=1;fillColor=#D5E8D4;" parent="QiKvLqk8T3tollXakjve-1" vertex="1">
          <mxGeometry x="450" y="140" width="360" height="245" as="geometry" />
        </mxCell>
        <mxCell id="1zWaw9_fBP0xSfdhk8z3-1" value="" style="ellipse;html=1;shape=startState;fillColor=#000000;strokeColor=#ff0000;opacity=40;" parent="QiKvLqk8T3tollXakjve-1" vertex="1">
          <mxGeometry x="310" y="90" width="30" height="30" as="geometry" />
        </mxCell>
        <mxCell id="1zWaw9_fBP0xSfdhk8z3-2" value="" style="edgeStyle=orthogonalEdgeStyle;html=1;verticalAlign=bottom;endArrow=open;endSize=8;strokeColor=#ff0000;" parent="QiKvLqk8T3tollXakjve-1" source="1zWaw9_fBP0xSfdhk8z3-1" edge="1">
          <mxGeometry relative="1" as="geometry">
            <mxPoint x="325" y="180" as="targetPoint" />
          </mxGeometry>
        </mxCell>
        <mxCell id="1zWaw9_fBP0xSfdhk8z3-3" value="初始化：建立世界坐标系" style="rounded=1;whiteSpace=wrap;html=1;fillColor=#f5f5f5;strokeColor=#666666;fontColor=#333333;" parent="QiKvLqk8T3tollXakjve-1" vertex="1">
          <mxGeometry x="265" y="180" width="120" height="60" as="geometry" />
        </mxCell>
        <mxCell id="1zWaw9_fBP0xSfdhk8z3-4" value="行进中" style="edgeStyle=orthogonalEdgeStyle;rounded=0;orthogonalLoop=1;jettySize=auto;html=1;exitX=0.5;exitY=1;exitDx=0;exitDy=0;entryX=0.5;entryY=0;entryDx=0;entryDy=0;" parent="QiKvLqk8T3tollXakjve-1" source="1zWaw9_fBP0xSfdhk8z3-5" target="1zWaw9_fBP0xSfdhk8z3-7" edge="1">
          <mxGeometry relative="1" as="geometry" />
        </mxCell>
        <mxCell id="1zWaw9_fBP0xSfdhk8z3-5" value="确定观察者与目标的相对关系" style="rounded=1;whiteSpace=wrap;html=1;fillColor=#f5f5f5;strokeColor=#666666;fontColor=#333333;" parent="QiKvLqk8T3tollXakjve-1" vertex="1">
          <mxGeometry x="465" y="180" width="120" height="60" as="geometry" />
        </mxCell>
        <mxCell id="1zWaw9_fBP0xSfdhk8z3-6" style="edgeStyle=orthogonalEdgeStyle;rounded=0;orthogonalLoop=1;jettySize=auto;html=1;exitX=1;exitY=0.5;exitDx=0;exitDy=0;entryX=0;entryY=0.5;entryDx=0;entryDy=0;" parent="QiKvLqk8T3tollXakjve-1" source="1zWaw9_fBP0xSfdhk8z3-7" target="1zWaw9_fBP0xSfdhk8z3-9" edge="1">
          <mxGeometry relative="1" as="geometry" />
        </mxCell>
        <mxCell id="1zWaw9_fBP0xSfdhk8z3-7" value="不断推算观察者的位置，更新视图" style="rounded=1;whiteSpace=wrap;html=1;fillColor=#f5f5f5;strokeColor=#666666;fontColor=#333333;" parent="QiKvLqk8T3tollXakjve-1" vertex="1">
          <mxGeometry x="465" y="290" width="120" height="60" as="geometry" />
        </mxCell>
        <mxCell id="1zWaw9_fBP0xSfdhk8z3-8" value="校准" style="edgeStyle=orthogonalEdgeStyle;rounded=0;orthogonalLoop=1;jettySize=auto;html=1;exitX=0.5;exitY=0;exitDx=0;exitDy=0;entryX=0.5;entryY=1;entryDx=0;entryDy=0;" parent="QiKvLqk8T3tollXakjve-1" source="1zWaw9_fBP0xSfdhk8z3-9" target="1zWaw9_fBP0xSfdhk8z3-11" edge="1">
          <mxGeometry relative="1" as="geometry" />
        </mxCell>
        <mxCell id="1zWaw9_fBP0xSfdhk8z3-9" value="到达检查点" style="rounded=1;whiteSpace=wrap;html=1;fillColor=#f5f5f5;strokeColor=#666666;fontColor=#333333;" parent="QiKvLqk8T3tollXakjve-1" vertex="1">
          <mxGeometry x="680" y="290" width="120" height="60" as="geometry" />
        </mxCell>
        <mxCell id="1zWaw9_fBP0xSfdhk8z3-10" style="edgeStyle=orthogonalEdgeStyle;rounded=0;orthogonalLoop=1;jettySize=auto;html=1;exitX=0;exitY=0.5;exitDx=0;exitDy=0;entryX=1;entryY=0.5;entryDx=0;entryDy=0;" parent="QiKvLqk8T3tollXakjve-1" source="1zWaw9_fBP0xSfdhk8z3-11" target="1zWaw9_fBP0xSfdhk8z3-5" edge="1">
          <mxGeometry relative="1" as="geometry" />
        </mxCell>
        <mxCell id="1zWaw9_fBP0xSfdhk8z3-11" value="纠正推算误差" style="rounded=1;whiteSpace=wrap;html=1;fillColor=#f5f5f5;strokeColor=#666666;fontColor=#333333;" parent="QiKvLqk8T3tollXakjve-1" vertex="1">
          <mxGeometry x="680" y="180" width="120" height="60" as="geometry" />
        </mxCell>
        <mxCell id="1zWaw9_fBP0xSfdhk8z3-13" value="" style="endArrow=classic;html=1;exitX=1;exitY=0.5;exitDx=0;exitDy=0;entryX=0;entryY=0.5;entryDx=0;entryDy=0;" parent="QiKvLqk8T3tollXakjve-1" source="1zWaw9_fBP0xSfdhk8z3-3" target="1zWaw9_fBP0xSfdhk8z3-5" edge="1">
          <mxGeometry width="50" height="50" relative="1" as="geometry">
            <mxPoint x="340" y="360" as="sourcePoint" />
            <mxPoint x="390" y="310" as="targetPoint" />
          </mxGeometry>
        </mxCell>
        <mxCell id="1zWaw9_fBP0xSfdhk8z3-14" value="" style="ellipse;html=1;shape=endState;fillColor=#000000;strokeColor=#ff0000;" parent="QiKvLqk8T3tollXakjve-1" vertex="1">
          <mxGeometry x="900" y="247.5" width="30" height="30" as="geometry" />
        </mxCell>
        <mxCell id="1zWaw9_fBP0xSfdhk8z3-15" value="" style="endArrow=classic;html=1;exitX=1;exitY=0.5;exitDx=0;exitDy=0;entryX=0;entryY=0.5;entryDx=0;entryDy=0;" parent="QiKvLqk8T3tollXakjve-1" source="1zWaw9_fBP0xSfdhk8z3-0" target="1zWaw9_fBP0xSfdhk8z3-14" edge="1">
          <mxGeometry width="50" height="50" relative="1" as="geometry">
            <mxPoint x="850" y="480" as="sourcePoint" />
            <mxPoint x="900" y="430" as="targetPoint" />
          </mxGeometry>
        </mxCell>
        <mxCell id="1zWaw9_fBP0xSfdhk8z3-16" value="结束" style="text;html=1;align=center;verticalAlign=middle;resizable=0;points=[];labelBackgroundColor=#ffffff;" parent="1zWaw9_fBP0xSfdhk8z3-15" vertex="1" connectable="0">
          <mxGeometry x="-0.1111" y="2" relative="1" as="geometry">
            <mxPoint y="1" as="offset" />
          </mxGeometry>
        </mxCell>
      </root>
    </mxGraphModel>
  </diagram>
  <diagram id="KcxjOLdQHP1oI-1WP-c4" name="Page-14">
    <mxGraphModel dx="2916" dy="1131" grid="1" gridSize="10" guides="1" tooltips="1" connect="1" arrows="1" fold="1" page="1" pageScale="1" pageWidth="850" pageHeight="1100" math="0" shadow="0">
      <root>
        <mxCell id="WH9liDMIhgtoKP-VfO7h-0" />
        <mxCell id="WH9liDMIhgtoKP-VfO7h-1" parent="WH9liDMIhgtoKP-VfO7h-0" />
        <mxCell id="-3eHOCqtGZmJ-zCKf4re-31" style="edgeStyle=orthogonalEdgeStyle;rounded=0;orthogonalLoop=1;jettySize=auto;html=1;exitX=0.5;exitY=1;exitDx=0;exitDy=0;entryX=0.5;entryY=0;entryDx=0;entryDy=0;" parent="WH9liDMIhgtoKP-VfO7h-1" source="-3eHOCqtGZmJ-zCKf4re-28" target="-3eHOCqtGZmJ-zCKf4re-29" edge="1">
          <mxGeometry relative="1" as="geometry" />
        </mxCell>
        <mxCell id="-3eHOCqtGZmJ-zCKf4re-28" value="启动 AR 步导" style="rounded=0;whiteSpace=wrap;html=1;fillColor=#f8cecc;strokeColor=#b85450;" parent="WH9liDMIhgtoKP-VfO7h-1" vertex="1">
          <mxGeometry x="160" y="30" width="120" height="60" as="geometry" />
        </mxCell>
        <mxCell id="-3eHOCqtGZmJ-zCKf4re-34" style="edgeStyle=orthogonalEdgeStyle;rounded=0;orthogonalLoop=1;jettySize=auto;html=1;exitX=1;exitY=0.5;exitDx=0;exitDy=0;entryX=0.5;entryY=0;entryDx=0;entryDy=0;" parent="WH9liDMIhgtoKP-VfO7h-1" source="-3eHOCqtGZmJ-zCKf4re-29" target="-3eHOCqtGZmJ-zCKf4re-33" edge="1">
          <mxGeometry relative="1" as="geometry" />
        </mxCell>
        <mxCell id="-3eHOCqtGZmJ-zCKf4re-35" value="state=not_support 文案提示退出" style="edgeLabel;html=1;align=center;verticalAlign=middle;resizable=0;points=[];" parent="-3eHOCqtGZmJ-zCKf4re-34" vertex="1" connectable="0">
          <mxGeometry x="-0.5833" y="-1" relative="1" as="geometry">
            <mxPoint x="-15" y="-11" as="offset" />
          </mxGeometry>
        </mxCell>
        <mxCell id="-3eHOCqtGZmJ-zCKf4re-38" style="edgeStyle=orthogonalEdgeStyle;rounded=0;orthogonalLoop=1;jettySize=auto;html=1;exitX=0;exitY=0.5;exitDx=0;exitDy=0;" parent="WH9liDMIhgtoKP-VfO7h-1" source="-3eHOCqtGZmJ-zCKf4re-29" target="-3eHOCqtGZmJ-zCKf4re-37" edge="1">
          <mxGeometry relative="1" as="geometry" />
        </mxCell>
        <mxCell id="-3eHOCqtGZmJ-zCKf4re-39" value="state=sensor_support 直接使用传感器 AR" style="edgeLabel;html=1;align=center;verticalAlign=middle;resizable=0;points=[];" parent="-3eHOCqtGZmJ-zCKf4re-38" vertex="1" connectable="0">
          <mxGeometry x="-0.773" y="2" relative="1" as="geometry">
            <mxPoint x="-52" y="-12" as="offset" />
          </mxGeometry>
        </mxCell>
        <mxCell id="-3eHOCqtGZmJ-zCKf4re-41" style="edgeStyle=orthogonalEdgeStyle;rounded=0;orthogonalLoop=1;jettySize=auto;html=1;exitX=0.5;exitY=1;exitDx=0;exitDy=0;entryX=0.5;entryY=0;entryDx=0;entryDy=0;" parent="WH9liDMIhgtoKP-VfO7h-1" source="-3eHOCqtGZmJ-zCKf4re-29" target="-3eHOCqtGZmJ-zCKf4re-40" edge="1">
          <mxGeometry relative="1" as="geometry">
            <Array as="points">
              <mxPoint x="220" y="250" />
              <mxPoint x="-50" y="250" />
            </Array>
          </mxGeometry>
        </mxCell>
        <mxCell id="-3eHOCqtGZmJ-zCKf4re-42" value="无缓存" style="edgeLabel;html=1;align=center;verticalAlign=middle;resizable=0;points=[];" parent="-3eHOCqtGZmJ-zCKf4re-41" vertex="1" connectable="0">
          <mxGeometry x="0.2174" y="28" relative="1" as="geometry">
            <mxPoint x="18" y="-28" as="offset" />
          </mxGeometry>
        </mxCell>
        <mxCell id="-3eHOCqtGZmJ-zCKf4re-78" style="edgeStyle=orthogonalEdgeStyle;rounded=0;orthogonalLoop=1;jettySize=auto;html=1;exitX=1;exitY=1;exitDx=0;exitDy=0;entryX=0.5;entryY=0;entryDx=0;entryDy=0;" parent="WH9liDMIhgtoKP-VfO7h-1" source="-3eHOCqtGZmJ-zCKf4re-29" target="-3eHOCqtGZmJ-zCKf4re-75" edge="1">
          <mxGeometry relative="1" as="geometry" />
        </mxCell>
        <mxCell id="-3eHOCqtGZmJ-zCKf4re-79" value="state=vps_support&lt;br&gt;直接进入初始化动作" style="edgeLabel;html=1;align=center;verticalAlign=middle;resizable=0;points=[];" parent="-3eHOCqtGZmJ-zCKf4re-78" vertex="1" connectable="0">
          <mxGeometry x="-0.0419" y="2" relative="1" as="geometry">
            <mxPoint as="offset" />
          </mxGeometry>
        </mxCell>
        <mxCell id="-3eHOCqtGZmJ-zCKf4re-29" value="检查本地缓存状态" style="rhombus;whiteSpace=wrap;html=1;fillColor=#f8cecc;strokeColor=#b85450;" parent="WH9liDMIhgtoKP-VfO7h-1" vertex="1">
          <mxGeometry x="140" y="160" width="160" height="80" as="geometry" />
        </mxCell>
        <mxCell id="-3eHOCqtGZmJ-zCKf4re-55" value="" style="edgeStyle=orthogonalEdgeStyle;rounded=0;orthogonalLoop=1;jettySize=auto;html=1;" parent="WH9liDMIhgtoKP-VfO7h-1" source="-3eHOCqtGZmJ-zCKf4re-52" target="-3eHOCqtGZmJ-zCKf4re-54" edge="1">
          <mxGeometry relative="1" as="geometry" />
        </mxCell>
        <mxCell id="-3eHOCqtGZmJ-zCKf4re-56" value="支持" style="edgeLabel;html=1;align=center;verticalAlign=middle;resizable=0;points=[];" parent="-3eHOCqtGZmJ-zCKf4re-55" vertex="1" connectable="0">
          <mxGeometry x="-0.44" y="-1" relative="1" as="geometry">
            <mxPoint as="offset" />
          </mxGeometry>
        </mxCell>
        <mxCell id="-3eHOCqtGZmJ-zCKf4re-58" style="edgeStyle=orthogonalEdgeStyle;rounded=0;orthogonalLoop=1;jettySize=auto;html=1;exitX=0;exitY=0.5;exitDx=0;exitDy=0;entryX=1;entryY=0.5;entryDx=0;entryDy=0;" parent="WH9liDMIhgtoKP-VfO7h-1" source="-3eHOCqtGZmJ-zCKf4re-52" target="-3eHOCqtGZmJ-zCKf4re-57" edge="1">
          <mxGeometry relative="1" as="geometry">
            <Array as="points">
              <mxPoint x="120" y="320" />
              <mxPoint x="120" y="660" />
            </Array>
          </mxGeometry>
        </mxCell>
        <mxCell id="-3eHOCqtGZmJ-zCKf4re-59" value="不支持&lt;br&gt;state -&amp;gt; not_support" style="edgeLabel;html=1;align=center;verticalAlign=middle;resizable=0;points=[];" parent="-3eHOCqtGZmJ-zCKf4re-58" vertex="1" connectable="0">
          <mxGeometry x="-0.2182" y="1" relative="1" as="geometry">
            <mxPoint y="-114" as="offset" />
          </mxGeometry>
        </mxCell>
        <mxCell id="-3eHOCqtGZmJ-zCKf4re-52" value="检测 IMU" style="rhombus;whiteSpace=wrap;html=1;fillColor=#f8cecc;strokeColor=#b85450;" parent="WH9liDMIhgtoKP-VfO7h-1" vertex="1">
          <mxGeometry x="140" y="280" width="160" height="80" as="geometry" />
        </mxCell>
        <mxCell id="-3eHOCqtGZmJ-zCKf4re-65" style="edgeStyle=orthogonalEdgeStyle;rounded=0;orthogonalLoop=1;jettySize=auto;html=1;exitX=0;exitY=0.5;exitDx=0;exitDy=0;entryX=0.5;entryY=0;entryDx=0;entryDy=0;" parent="WH9liDMIhgtoKP-VfO7h-1" source="-3eHOCqtGZmJ-zCKf4re-54" target="-3eHOCqtGZmJ-zCKf4re-37" edge="1">
          <mxGeometry relative="1" as="geometry">
            <Array as="points">
              <mxPoint x="80" y="450" />
              <mxPoint x="80" y="610" />
              <mxPoint x="-240" y="610" />
            </Array>
          </mxGeometry>
        </mxCell>
        <mxCell id="-3eHOCqtGZmJ-zCKf4re-66" value="图像不可用" style="edgeLabel;html=1;align=center;verticalAlign=middle;resizable=0;points=[];" parent="-3eHOCqtGZmJ-zCKf4re-65" vertex="1" connectable="0">
          <mxGeometry x="-0.7797" y="1" relative="1" as="geometry">
            <mxPoint as="offset" />
          </mxGeometry>
        </mxCell>
        <mxCell id="-3eHOCqtGZmJ-zCKf4re-68" style="edgeStyle=orthogonalEdgeStyle;rounded=0;orthogonalLoop=1;jettySize=auto;html=1;exitX=0.5;exitY=1;exitDx=0;exitDy=0;entryX=0.5;entryY=0;entryDx=0;entryDy=0;" parent="WH9liDMIhgtoKP-VfO7h-1" source="-3eHOCqtGZmJ-zCKf4re-54" target="-3eHOCqtGZmJ-zCKf4re-67" edge="1">
          <mxGeometry relative="1" as="geometry" />
        </mxCell>
        <mxCell id="-3eHOCqtGZmJ-zCKf4re-69" value="可用" style="edgeLabel;html=1;align=center;verticalAlign=middle;resizable=0;points=[];" parent="-3eHOCqtGZmJ-zCKf4re-68" vertex="1" connectable="0">
          <mxGeometry x="-0.24" y="1" relative="1" as="geometry">
            <mxPoint as="offset" />
          </mxGeometry>
        </mxCell>
        <mxCell id="-3eHOCqtGZmJ-zCKf4re-54" value="检测 图像" style="rhombus;whiteSpace=wrap;html=1;fillColor=#dae8fc;strokeColor=#6c8ebf;" parent="WH9liDMIhgtoKP-VfO7h-1" vertex="1">
          <mxGeometry x="140" y="410" width="160" height="80" as="geometry" />
        </mxCell>
        <mxCell id="-3eHOCqtGZmJ-zCKf4re-33" value="退出" style="rounded=0;whiteSpace=wrap;html=1;fillColor=#f8cecc;strokeColor=#b85450;" parent="WH9liDMIhgtoKP-VfO7h-1" vertex="1">
          <mxGeometry x="540" y="860" width="120" height="60" as="geometry" />
        </mxCell>
        <mxCell id="-3eHOCqtGZmJ-zCKf4re-88" style="edgeStyle=orthogonalEdgeStyle;rounded=0;orthogonalLoop=1;jettySize=auto;html=1;exitX=0;exitY=0.5;exitDx=0;exitDy=0;entryX=1;entryY=0.5;entryDx=0;entryDy=0;" parent="WH9liDMIhgtoKP-VfO7h-1" source="-3eHOCqtGZmJ-zCKf4re-36" target="-3eHOCqtGZmJ-zCKf4re-87" edge="1">
          <mxGeometry relative="1" as="geometry" />
        </mxCell>
        <mxCell id="-3eHOCqtGZmJ-zCKf4re-94" style="edgeStyle=orthogonalEdgeStyle;rounded=0;orthogonalLoop=1;jettySize=auto;html=1;exitX=0.5;exitY=1;exitDx=0;exitDy=0;entryX=1;entryY=0.25;entryDx=0;entryDy=0;" parent="WH9liDMIhgtoKP-VfO7h-1" source="-3eHOCqtGZmJ-zCKf4re-36" target="-3eHOCqtGZmJ-zCKf4re-91" edge="1">
          <mxGeometry relative="1" as="geometry" />
        </mxCell>
        <mxCell id="-3eHOCqtGZmJ-zCKf4re-36" value="图像AR" style="rounded=0;whiteSpace=wrap;html=1;fillColor=#dae8fc;strokeColor=#6c8ebf;" parent="WH9liDMIhgtoKP-VfO7h-1" vertex="1">
          <mxGeometry x="160" y="860" width="120" height="60" as="geometry" />
        </mxCell>
        <mxCell id="-3eHOCqtGZmJ-zCKf4re-93" style="edgeStyle=orthogonalEdgeStyle;rounded=0;orthogonalLoop=1;jettySize=auto;html=1;exitX=0.5;exitY=1;exitDx=0;exitDy=0;entryX=0;entryY=0.5;entryDx=0;entryDy=0;" parent="WH9liDMIhgtoKP-VfO7h-1" source="-3eHOCqtGZmJ-zCKf4re-37" target="-3eHOCqtGZmJ-zCKf4re-91" edge="1">
          <mxGeometry relative="1" as="geometry" />
        </mxCell>
        <mxCell id="-3eHOCqtGZmJ-zCKf4re-95" style="edgeStyle=orthogonalEdgeStyle;rounded=0;orthogonalLoop=1;jettySize=auto;html=1;exitX=0.5;exitY=1;exitDx=0;exitDy=0;entryX=0;entryY=0.5;entryDx=0;entryDy=0;" parent="WH9liDMIhgtoKP-VfO7h-1" source="-3eHOCqtGZmJ-zCKf4re-37" target="-3eHOCqtGZmJ-zCKf4re-90" edge="1">
          <mxGeometry relative="1" as="geometry" />
        </mxCell>
        <mxCell id="-3eHOCqtGZmJ-zCKf4re-37" value="传感器AR" style="rounded=0;whiteSpace=wrap;html=1;fillColor=#dae8fc;strokeColor=#6c8ebf;" parent="WH9liDMIhgtoKP-VfO7h-1" vertex="1">
          <mxGeometry x="-300" y="860" width="120" height="60" as="geometry" />
        </mxCell>
        <mxCell id="-3eHOCqtGZmJ-zCKf4re-45" style="edgeStyle=orthogonalEdgeStyle;rounded=0;orthogonalLoop=1;jettySize=auto;html=1;exitX=0.5;exitY=1;exitDx=0;exitDy=0;entryX=0.5;entryY=0;entryDx=0;entryDy=0;" parent="WH9liDMIhgtoKP-VfO7h-1" source="-3eHOCqtGZmJ-zCKf4re-40" target="-3eHOCqtGZmJ-zCKf4re-44" edge="1">
          <mxGeometry relative="1" as="geometry" />
        </mxCell>
        <mxCell id="-3eHOCqtGZmJ-zCKf4re-40" value="请求云控" style="rounded=0;whiteSpace=wrap;html=1;fillColor=#f8cecc;strokeColor=#b85450;" parent="WH9liDMIhgtoKP-VfO7h-1" vertex="1">
          <mxGeometry x="-110" y="280" width="120" height="60" as="geometry" />
        </mxCell>
        <mxCell id="-3eHOCqtGZmJ-zCKf4re-47" style="edgeStyle=orthogonalEdgeStyle;rounded=0;orthogonalLoop=1;jettySize=auto;html=1;exitX=0.5;exitY=1;exitDx=0;exitDy=0;entryX=0.5;entryY=0;entryDx=0;entryDy=0;" parent="WH9liDMIhgtoKP-VfO7h-1" source="-3eHOCqtGZmJ-zCKf4re-44" target="-3eHOCqtGZmJ-zCKf4re-46" edge="1">
          <mxGeometry relative="1" as="geometry" />
        </mxCell>
        <mxCell id="-3eHOCqtGZmJ-zCKf4re-61" value="有" style="edgeLabel;html=1;align=center;verticalAlign=middle;resizable=0;points=[];" parent="-3eHOCqtGZmJ-zCKf4re-47" vertex="1" connectable="0">
          <mxGeometry x="-0.16" y="2" relative="1" as="geometry">
            <mxPoint as="offset" />
          </mxGeometry>
        </mxCell>
        <mxCell id="-3eHOCqtGZmJ-zCKf4re-62" style="edgeStyle=orthogonalEdgeStyle;rounded=0;orthogonalLoop=1;jettySize=auto;html=1;exitX=1;exitY=0.5;exitDx=0;exitDy=0;entryX=0;entryY=1;entryDx=0;entryDy=0;" parent="WH9liDMIhgtoKP-VfO7h-1" source="-3eHOCqtGZmJ-zCKf4re-44" target="-3eHOCqtGZmJ-zCKf4re-52" edge="1">
          <mxGeometry relative="1" as="geometry">
            <Array as="points">
              <mxPoint x="80" y="430" />
              <mxPoint x="80" y="340" />
            </Array>
          </mxGeometry>
        </mxCell>
        <mxCell id="-3eHOCqtGZmJ-zCKf4re-63" value="无" style="edgeLabel;html=1;align=center;verticalAlign=middle;resizable=0;points=[];" parent="-3eHOCqtGZmJ-zCKf4re-62" vertex="1" connectable="0">
          <mxGeometry x="-0.4095" y="1" relative="1" as="geometry">
            <mxPoint as="offset" />
          </mxGeometry>
        </mxCell>
        <mxCell id="-3eHOCqtGZmJ-zCKf4re-44" value="云控是否有结果" style="rhombus;whiteSpace=wrap;html=1;fillColor=#f8cecc;strokeColor=#b85450;" parent="WH9liDMIhgtoKP-VfO7h-1" vertex="1">
          <mxGeometry x="-130" y="390" width="160" height="80" as="geometry" />
        </mxCell>
        <mxCell id="-3eHOCqtGZmJ-zCKf4re-48" style="edgeStyle=orthogonalEdgeStyle;rounded=0;orthogonalLoop=1;jettySize=auto;html=1;exitX=1;exitY=0.5;exitDx=0;exitDy=0;entryX=0;entryY=1;entryDx=0;entryDy=0;" parent="WH9liDMIhgtoKP-VfO7h-1" source="-3eHOCqtGZmJ-zCKf4re-46" target="-3eHOCqtGZmJ-zCKf4re-29" edge="1">
          <mxGeometry relative="1" as="geometry">
            <mxPoint x="180" y="220" as="targetPoint" />
            <Array as="points">
              <mxPoint x="100" y="550" />
              <mxPoint x="100" y="220" />
            </Array>
          </mxGeometry>
        </mxCell>
        <mxCell id="-3eHOCqtGZmJ-zCKf4re-46" value="更新本地缓存" style="rounded=0;whiteSpace=wrap;html=1;fillColor=#f8cecc;strokeColor=#b85450;" parent="WH9liDMIhgtoKP-VfO7h-1" vertex="1">
          <mxGeometry x="-110" y="520" width="120" height="60" as="geometry" />
        </mxCell>
        <mxCell id="-3eHOCqtGZmJ-zCKf4re-60" style="edgeStyle=orthogonalEdgeStyle;rounded=0;orthogonalLoop=1;jettySize=auto;html=1;exitX=0.5;exitY=0;exitDx=0;exitDy=0;entryX=0.5;entryY=1;entryDx=0;entryDy=0;" parent="WH9liDMIhgtoKP-VfO7h-1" source="-3eHOCqtGZmJ-zCKf4re-57" target="-3eHOCqtGZmJ-zCKf4re-46" edge="1">
          <mxGeometry relative="1" as="geometry" />
        </mxCell>
        <mxCell id="-3eHOCqtGZmJ-zCKf4re-57" value="更新云控" style="rounded=0;whiteSpace=wrap;html=1;fillColor=#f8cecc;strokeColor=#b85450;" parent="WH9liDMIhgtoKP-VfO7h-1" vertex="1">
          <mxGeometry x="-110" y="630" width="120" height="60" as="geometry" />
        </mxCell>
        <mxCell id="-3eHOCqtGZmJ-zCKf4re-71" style="edgeStyle=orthogonalEdgeStyle;rounded=0;orthogonalLoop=1;jettySize=auto;html=1;exitX=0.5;exitY=1;exitDx=0;exitDy=0;entryX=0.5;entryY=0;entryDx=0;entryDy=0;" parent="WH9liDMIhgtoKP-VfO7h-1" source="-3eHOCqtGZmJ-zCKf4re-67" target="-3eHOCqtGZmJ-zCKf4re-70" edge="1">
          <mxGeometry relative="1" as="geometry" />
        </mxCell>
        <mxCell id="-3eHOCqtGZmJ-zCKf4re-67" value="VPS初始化" style="rounded=0;whiteSpace=wrap;html=1;fillColor=#dae8fc;strokeColor=#6c8ebf;" parent="WH9liDMIhgtoKP-VfO7h-1" vertex="1">
          <mxGeometry x="160" y="540" width="120" height="60" as="geometry" />
        </mxCell>
        <mxCell id="-3eHOCqtGZmJ-zCKf4re-72" style="edgeStyle=orthogonalEdgeStyle;rounded=0;orthogonalLoop=1;jettySize=auto;html=1;exitX=0;exitY=0.5;exitDx=0;exitDy=0;entryX=0.5;entryY=1;entryDx=0;entryDy=0;" parent="WH9liDMIhgtoKP-VfO7h-1" source="-3eHOCqtGZmJ-zCKf4re-70" target="-3eHOCqtGZmJ-zCKf4re-57" edge="1">
          <mxGeometry relative="1" as="geometry" />
        </mxCell>
        <mxCell id="-3eHOCqtGZmJ-zCKf4re-73" value="不支持&lt;br&gt;state-&amp;gt;sensor_support" style="edgeLabel;html=1;align=center;verticalAlign=middle;resizable=0;points=[];" parent="-3eHOCqtGZmJ-zCKf4re-72" vertex="1" connectable="0">
          <mxGeometry x="-0.2095" relative="1" as="geometry">
            <mxPoint as="offset" />
          </mxGeometry>
        </mxCell>
        <mxCell id="-3eHOCqtGZmJ-zCKf4re-74" style="edgeStyle=orthogonalEdgeStyle;rounded=0;orthogonalLoop=1;jettySize=auto;html=1;entryX=0;entryY=0.5;entryDx=0;entryDy=0;exitX=1;exitY=0.5;exitDx=0;exitDy=0;" parent="WH9liDMIhgtoKP-VfO7h-1" source="-3eHOCqtGZmJ-zCKf4re-70" target="-3eHOCqtGZmJ-zCKf4re-57" edge="1">
          <mxGeometry relative="1" as="geometry">
            <mxPoint x="310" y="710" as="sourcePoint" />
            <Array as="points">
              <mxPoint x="310" y="710" />
              <mxPoint x="310" y="770" />
              <mxPoint x="-130" y="770" />
              <mxPoint x="-130" y="660" />
            </Array>
          </mxGeometry>
        </mxCell>
        <mxCell id="-3eHOCqtGZmJ-zCKf4re-77" value="支持&lt;br&gt;state-&amp;gt;vps_support" style="edgeLabel;html=1;align=center;verticalAlign=middle;resizable=0;points=[];" parent="-3eHOCqtGZmJ-zCKf4re-74" vertex="1" connectable="0">
          <mxGeometry y="2" relative="1" as="geometry">
            <mxPoint as="offset" />
          </mxGeometry>
        </mxCell>
        <mxCell id="-3eHOCqtGZmJ-zCKf4re-70" value="算力检测" style="rhombus;whiteSpace=wrap;html=1;fillColor=#dae8fc;strokeColor=#6c8ebf;" parent="WH9liDMIhgtoKP-VfO7h-1" vertex="1">
          <mxGeometry x="140" y="670" width="160" height="80" as="geometry" />
        </mxCell>
        <mxCell id="-3eHOCqtGZmJ-zCKf4re-81" style="edgeStyle=orthogonalEdgeStyle;rounded=0;orthogonalLoop=1;jettySize=auto;html=1;exitX=0.5;exitY=1;exitDx=0;exitDy=0;" parent="WH9liDMIhgtoKP-VfO7h-1" source="-3eHOCqtGZmJ-zCKf4re-75" target="-3eHOCqtGZmJ-zCKf4re-80" edge="1">
          <mxGeometry relative="1" as="geometry" />
        </mxCell>
        <mxCell id="-3eHOCqtGZmJ-zCKf4re-75" value="初始化动作" style="rounded=0;whiteSpace=wrap;html=1;fillColor=#dae8fc;strokeColor=#6c8ebf;" parent="WH9liDMIhgtoKP-VfO7h-1" vertex="1">
          <mxGeometry x="360" y="680" width="120" height="60" as="geometry" />
        </mxCell>
        <mxCell id="-3eHOCqtGZmJ-zCKf4re-83" style="edgeStyle=orthogonalEdgeStyle;rounded=0;orthogonalLoop=1;jettySize=auto;html=1;exitX=0;exitY=0.5;exitDx=0;exitDy=0;entryX=0.5;entryY=0;entryDx=0;entryDy=0;" parent="WH9liDMIhgtoKP-VfO7h-1" source="-3eHOCqtGZmJ-zCKf4re-80" target="-3eHOCqtGZmJ-zCKf4re-37" edge="1">
          <mxGeometry relative="1" as="geometry" />
        </mxCell>
        <mxCell id="-3eHOCqtGZmJ-zCKf4re-84" value="超时" style="edgeLabel;html=1;align=center;verticalAlign=middle;resizable=0;points=[];" parent="-3eHOCqtGZmJ-zCKf4re-83" vertex="1" connectable="0">
          <mxGeometry x="0.0951" relative="1" as="geometry">
            <mxPoint as="offset" />
          </mxGeometry>
        </mxCell>
        <mxCell id="-3eHOCqtGZmJ-zCKf4re-85" value="成功" style="edgeStyle=orthogonalEdgeStyle;rounded=0;orthogonalLoop=1;jettySize=auto;html=1;exitX=0.5;exitY=1;exitDx=0;exitDy=0;entryX=1;entryY=0.5;entryDx=0;entryDy=0;" parent="WH9liDMIhgtoKP-VfO7h-1" source="-3eHOCqtGZmJ-zCKf4re-80" target="-3eHOCqtGZmJ-zCKf4re-36" edge="1">
          <mxGeometry relative="1" as="geometry" />
        </mxCell>
        <mxCell id="-3eHOCqtGZmJ-zCKf4re-80" value="是否超时" style="rhombus;whiteSpace=wrap;html=1;fillColor=#dae8fc;strokeColor=#6c8ebf;" parent="WH9liDMIhgtoKP-VfO7h-1" vertex="1">
          <mxGeometry x="340" y="790" width="160" height="80" as="geometry" />
        </mxCell>
        <mxCell id="-3eHOCqtGZmJ-zCKf4re-89" value="是" style="edgeStyle=orthogonalEdgeStyle;rounded=0;orthogonalLoop=1;jettySize=auto;html=1;exitX=0;exitY=0.5;exitDx=0;exitDy=0;entryX=1;entryY=0.5;entryDx=0;entryDy=0;" parent="WH9liDMIhgtoKP-VfO7h-1" source="-3eHOCqtGZmJ-zCKf4re-87" target="-3eHOCqtGZmJ-zCKf4re-37" edge="1">
          <mxGeometry relative="1" as="geometry" />
        </mxCell>
        <mxCell id="-3eHOCqtGZmJ-zCKf4re-87" value="vps开启超过 xxx分钟&lt;br&gt;超视距范围&lt;br&gt;出现异常" style="rhombus;whiteSpace=wrap;html=1;" parent="WH9liDMIhgtoKP-VfO7h-1" vertex="1">
          <mxGeometry x="-90" y="850" width="160" height="80" as="geometry" />
        </mxCell>
        <mxCell id="-3eHOCqtGZmJ-zCKf4re-96" style="edgeStyle=orthogonalEdgeStyle;rounded=0;orthogonalLoop=1;jettySize=auto;html=1;exitX=1;exitY=0.5;exitDx=0;exitDy=0;entryX=0.25;entryY=1;entryDx=0;entryDy=0;" parent="WH9liDMIhgtoKP-VfO7h-1" source="-3eHOCqtGZmJ-zCKf4re-90" target="-3eHOCqtGZmJ-zCKf4re-36" edge="1">
          <mxGeometry relative="1" as="geometry" />
        </mxCell>
        <mxCell id="-3eHOCqtGZmJ-zCKf4re-97" value="是" style="edgeLabel;html=1;align=center;verticalAlign=middle;resizable=0;points=[];" parent="-3eHOCqtGZmJ-zCKf4re-96" vertex="1" connectable="0">
          <mxGeometry x="-0.3273" y="1" relative="1" as="geometry">
            <mxPoint as="offset" />
          </mxGeometry>
        </mxCell>
        <mxCell id="-3eHOCqtGZmJ-zCKf4re-90" value="进入视距内&lt;br&gt;是否需要间歇开启？" style="rhombus;whiteSpace=wrap;html=1;" parent="WH9liDMIhgtoKP-VfO7h-1" vertex="1">
          <mxGeometry x="-90" y="980" width="160" height="80" as="geometry" />
        </mxCell>
        <mxCell id="-3eHOCqtGZmJ-zCKf4re-92" style="edgeStyle=orthogonalEdgeStyle;rounded=0;orthogonalLoop=1;jettySize=auto;html=1;exitX=1;exitY=0.5;exitDx=0;exitDy=0;entryX=0.5;entryY=1;entryDx=0;entryDy=0;" parent="WH9liDMIhgtoKP-VfO7h-1" source="-3eHOCqtGZmJ-zCKf4re-91" target="-3eHOCqtGZmJ-zCKf4re-33" edge="1">
          <mxGeometry relative="1" as="geometry" />
        </mxCell>
        <mxCell id="-3eHOCqtGZmJ-zCKf4re-91" value="导航结束" style="rounded=0;whiteSpace=wrap;html=1;fillColor=#f8cecc;strokeColor=#b85450;" parent="WH9liDMIhgtoKP-VfO7h-1" vertex="1">
          <mxGeometry x="-70" y="1140" width="120" height="60" as="geometry" />
        </mxCell>
        <mxCell id="-3eHOCqtGZmJ-zCKf4re-100" value="" style="group" parent="WH9liDMIhgtoKP-VfO7h-1" vertex="1" connectable="0">
          <mxGeometry x="-240" y="60" width="101" height="20" as="geometry" />
        </mxCell>
        <mxCell id="-3eHOCqtGZmJ-zCKf4re-98" value="" style="rounded=0;whiteSpace=wrap;html=1;fillColor=#f8cecc;strokeColor=#b85450;" parent="-3eHOCqtGZmJ-zCKf4re-100" vertex="1">
          <mxGeometry width="20" height="20" as="geometry" />
        </mxCell>
        <mxCell id="-3eHOCqtGZmJ-zCKf4re-99" value="Nitro SDK" style="text;html=1;align=center;verticalAlign=middle;resizable=0;points=[];autosize=1;" parent="-3eHOCqtGZmJ-zCKf4re-100" vertex="1">
          <mxGeometry x="31" width="70" height="20" as="geometry" />
        </mxCell>
        <mxCell id="-3eHOCqtGZmJ-zCKf4re-102" value="" style="group" parent="WH9liDMIhgtoKP-VfO7h-1" vertex="1" connectable="0">
          <mxGeometry x="-240" y="100" width="101" height="20" as="geometry" />
        </mxCell>
        <mxCell id="-3eHOCqtGZmJ-zCKf4re-103" value="" style="rounded=0;whiteSpace=wrap;html=1;fillColor=#dae8fc;strokeColor=#6c8ebf;" parent="-3eHOCqtGZmJ-zCKf4re-102" vertex="1">
          <mxGeometry width="20" height="20" as="geometry" />
        </mxCell>
        <mxCell id="-3eHOCqtGZmJ-zCKf4re-104" value="VPS" style="text;html=1;align=left;verticalAlign=middle;resizable=0;points=[];autosize=1;" parent="-3eHOCqtGZmJ-zCKf4re-102" vertex="1">
          <mxGeometry x="40" width="40" height="20" as="geometry" />
        </mxCell>
      </root>
    </mxGraphModel>
  </diagram>
  <diagram id="UsalNWEdb_y6_VYsY8jl" name="Page-15">
    <mxGraphModel dx="1425" dy="780" grid="1" gridSize="10" guides="1" tooltips="1" connect="1" arrows="1" fold="1" page="1" pageScale="1" pageWidth="850" pageHeight="1100" math="0" shadow="0">
      <root>
        <mxCell id="B8cJNBOPbtHEhD6u9D-m-0" />
        <mxCell id="B8cJNBOPbtHEhD6u9D-m-1" parent="B8cJNBOPbtHEhD6u9D-m-0" />
        <mxCell id="B8cJNBOPbtHEhD6u9D-m-2" value="GuidanceManager" style="swimlane;fontStyle=1;align=center;verticalAlign=top;childLayout=stackLayout;horizontal=1;startSize=26;horizontalStack=0;resizeParent=1;resizeParentMax=0;resizeLast=0;collapsible=1;marginBottom=0;" vertex="1" parent="B8cJNBOPbtHEhD6u9D-m-1">
          <mxGeometry x="360" y="380" width="310" height="372" as="geometry" />
        </mxCell>
        <mxCell id="B8cJNBOPbtHEhD6u9D-m-3" value="- render_: Render" style="text;strokeColor=none;fillColor=none;align=left;verticalAlign=top;spacingLeft=4;spacingRight=4;overflow=hidden;rotatable=0;points=[[0,0.5],[1,0.5]];portConstraint=eastwest;" vertex="1" parent="B8cJNBOPbtHEhD6u9D-m-2">
          <mxGeometry y="26" width="310" height="26" as="geometry" />
        </mxCell>
        <mxCell id="B8cJNBOPbtHEhD6u9D-m-7" value="- looper_: LooperThread" style="text;strokeColor=none;fillColor=none;align=left;verticalAlign=top;spacingLeft=4;spacingRight=4;overflow=hidden;rotatable=0;points=[[0,0.5],[1,0.5]];portConstraint=eastwest;" vertex="1" parent="B8cJNBOPbtHEhD6u9D-m-2">
          <mxGeometry y="52" width="310" height="26" as="geometry" />
        </mxCell>
        <mxCell id="B8cJNBOPbtHEhD6u9D-m-8" value="- location_callback_: LocationCallback" style="text;strokeColor=none;fillColor=none;align=left;verticalAlign=top;spacingLeft=4;spacingRight=4;overflow=hidden;rotatable=0;points=[[0,0.5],[1,0.5]];portConstraint=eastwest;" vertex="1" parent="B8cJNBOPbtHEhD6u9D-m-2">
          <mxGeometry y="78" width="310" height="26" as="geometry" />
        </mxCell>
        <mxCell id="B8cJNBOPbtHEhD6u9D-m-4" value="" style="line;strokeWidth=1;fillColor=none;align=left;verticalAlign=middle;spacingTop=-1;spacingLeft=3;spacingRight=3;rotatable=0;labelPosition=right;points=[];portConstraint=eastwest;" vertex="1" parent="B8cJNBOPbtHEhD6u9D-m-2">
          <mxGeometry y="104" width="310" height="8" as="geometry" />
        </mxCell>
        <mxCell id="B8cJNBOPbtHEhD6u9D-m-5" value="+ GuidanceManager(RouteInfo): void" style="text;strokeColor=none;fillColor=none;align=left;verticalAlign=top;spacingLeft=4;spacingRight=4;overflow=hidden;rotatable=0;points=[[0,0.5],[1,0.5]];portConstraint=eastwest;" vertex="1" parent="B8cJNBOPbtHEhD6u9D-m-2">
          <mxGeometry y="112" width="310" height="26" as="geometry" />
        </mxCell>
        <mxCell id="B8cJNBOPbtHEhD6u9D-m-53" value="+ OnGuideStart(RouteInfo): void" style="text;strokeColor=none;fillColor=none;align=left;verticalAlign=top;spacingLeft=4;spacingRight=4;overflow=hidden;rotatable=0;points=[[0,0.5],[1,0.5]];portConstraint=eastwest;" vertex="1" parent="B8cJNBOPbtHEhD6u9D-m-2">
          <mxGeometry y="138" width="310" height="26" as="geometry" />
        </mxCell>
        <mxCell id="B8cJNBOPbtHEhD6u9D-m-9" value="+ OnGuidanceInfoUpdate(GuidanceInfo): void" style="text;strokeColor=none;fillColor=none;align=left;verticalAlign=top;spacingLeft=4;spacingRight=4;overflow=hidden;rotatable=0;points=[[0,0.5],[1,0.5]];portConstraint=eastwest;" vertex="1" parent="B8cJNBOPbtHEhD6u9D-m-2">
          <mxGeometry y="164" width="310" height="26" as="geometry" />
        </mxCell>
        <mxCell id="B8cJNBOPbtHEhD6u9D-m-10" value="+ OnMapMatchUpdate(uint index, float remain): void" style="text;strokeColor=none;fillColor=none;align=left;verticalAlign=top;spacingLeft=4;spacingRight=4;overflow=hidden;rotatable=0;points=[[0,0.5],[1,0.5]];portConstraint=eastwest;" vertex="1" parent="B8cJNBOPbtHEhD6u9D-m-2">
          <mxGeometry y="190" width="310" height="26" as="geometry" />
        </mxCell>
        <mxCell id="B8cJNBOPbtHEhD6u9D-m-11" value="+ OnGuideStop(): void" style="text;strokeColor=none;fillColor=none;align=left;verticalAlign=top;spacingLeft=4;spacingRight=4;overflow=hidden;rotatable=0;points=[[0,0.5],[1,0.5]];portConstraint=eastwest;" vertex="1" parent="B8cJNBOPbtHEhD6u9D-m-2">
          <mxGeometry y="216" width="310" height="26" as="geometry" />
        </mxCell>
        <mxCell id="B8cJNBOPbtHEhD6u9D-m-12" value="+ SetLocationCallback(LocationCallback): void" style="text;strokeColor=none;fillColor=none;align=left;verticalAlign=top;spacingLeft=4;spacingRight=4;overflow=hidden;rotatable=0;points=[[0,0.5],[1,0.5]];portConstraint=eastwest;" vertex="1" parent="B8cJNBOPbtHEhD6u9D-m-2">
          <mxGeometry y="242" width="310" height="26" as="geometry" />
        </mxCell>
        <mxCell id="B8cJNBOPbtHEhD6u9D-m-13" value="+ SetDebugMode(DebugMode): void" style="text;strokeColor=none;fillColor=none;align=left;verticalAlign=top;spacingLeft=4;spacingRight=4;overflow=hidden;rotatable=0;points=[[0,0.5],[1,0.5]];portConstraint=eastwest;" vertex="1" parent="B8cJNBOPbtHEhD6u9D-m-2">
          <mxGeometry y="268" width="310" height="26" as="geometry" />
        </mxCell>
        <mxCell id="B8cJNBOPbtHEhD6u9D-m-14" value="- OnVPSLocationUpdate(VPSResult): void" style="text;strokeColor=none;fillColor=none;align=left;verticalAlign=top;spacingLeft=4;spacingRight=4;overflow=hidden;rotatable=0;points=[[0,0.5],[1,0.5]];portConstraint=eastwest;" vertex="1" parent="B8cJNBOPbtHEhD6u9D-m-2">
          <mxGeometry y="294" width="310" height="26" as="geometry" />
        </mxCell>
        <mxCell id="B8cJNBOPbtHEhD6u9D-m-15" value="- OnVPSFeatureUpdate(FeatureTrackerResult): void" style="text;strokeColor=none;fillColor=none;align=left;verticalAlign=top;spacingLeft=4;spacingRight=4;overflow=hidden;rotatable=0;points=[[0,0.5],[1,0.5]];portConstraint=eastwest;" vertex="1" parent="B8cJNBOPbtHEhD6u9D-m-2">
          <mxGeometry y="320" width="310" height="26" as="geometry" />
        </mxCell>
        <mxCell id="B8cJNBOPbtHEhD6u9D-m-16" value="- OnVPSInitProgressUpdate(int progress, int err): void" style="text;strokeColor=none;fillColor=none;align=left;verticalAlign=top;spacingLeft=4;spacingRight=4;overflow=hidden;rotatable=0;points=[[0,0.5],[1,0.5]];portConstraint=eastwest;" vertex="1" parent="B8cJNBOPbtHEhD6u9D-m-2">
          <mxGeometry y="346" width="310" height="26" as="geometry" />
        </mxCell>
        <mxCell id="B8cJNBOPbtHEhD6u9D-m-37" value="Render" style="swimlane;fontStyle=1;align=center;verticalAlign=top;childLayout=stackLayout;horizontal=1;startSize=26;horizontalStack=0;resizeParent=1;resizeParentMax=0;resizeLast=0;collapsible=1;marginBottom=0;" vertex="1" parent="B8cJNBOPbtHEhD6u9D-m-1">
          <mxGeometry x="760" y="380" width="320" height="320" as="geometry" />
        </mxCell>
        <mxCell id="B8cJNBOPbtHEhD6u9D-m-38" value="- ortho_scene_: OrthoScene*" style="text;strokeColor=none;fillColor=none;align=left;verticalAlign=top;spacingLeft=4;spacingRight=4;overflow=hidden;rotatable=0;points=[[0,0.5],[1,0.5]];portConstraint=eastwest;" vertex="1" parent="B8cJNBOPbtHEhD6u9D-m-37">
          <mxGeometry y="26" width="320" height="26" as="geometry" />
        </mxCell>
        <mxCell id="B8cJNBOPbtHEhD6u9D-m-49" value="- perspective_scene_: PerspectiveScene*" style="text;strokeColor=none;fillColor=none;align=left;verticalAlign=top;spacingLeft=4;spacingRight=4;overflow=hidden;rotatable=0;points=[[0,0.5],[1,0.5]];portConstraint=eastwest;" vertex="1" parent="B8cJNBOPbtHEhD6u9D-m-37">
          <mxGeometry y="52" width="320" height="26" as="geometry" />
        </mxCell>
        <mxCell id="B8cJNBOPbtHEhD6u9D-m-50" value="- debug_text_: TextObj*" style="text;strokeColor=none;fillColor=none;align=left;verticalAlign=top;spacingLeft=4;spacingRight=4;overflow=hidden;rotatable=0;points=[[0,0.5],[1,0.5]];portConstraint=eastwest;" vertex="1" parent="B8cJNBOPbtHEhD6u9D-m-37">
          <mxGeometry y="78" width="320" height="26" as="geometry" />
        </mxCell>
        <mxCell id="B8cJNBOPbtHEhD6u9D-m-52" value="- debug_img_: BitmapObj*" style="text;strokeColor=none;fillColor=none;align=left;verticalAlign=top;spacingLeft=4;spacingRight=4;overflow=hidden;rotatable=0;points=[[0,0.5],[1,0.5]];portConstraint=eastwest;" vertex="1" parent="B8cJNBOPbtHEhD6u9D-m-37">
          <mxGeometry y="104" width="320" height="26" as="geometry" />
        </mxCell>
        <mxCell id="B8cJNBOPbtHEhD6u9D-m-51" value="- video_background_: BulbRenderObj*" style="text;strokeColor=none;fillColor=none;align=left;verticalAlign=top;spacingLeft=4;spacingRight=4;overflow=hidden;rotatable=0;points=[[0,0.5],[1,0.5]];portConstraint=eastwest;" vertex="1" parent="B8cJNBOPbtHEhD6u9D-m-37">
          <mxGeometry y="130" width="320" height="26" as="geometry" />
        </mxCell>
        <mxCell id="B8cJNBOPbtHEhD6u9D-m-39" value="" style="line;strokeWidth=1;fillColor=none;align=left;verticalAlign=middle;spacingTop=-1;spacingLeft=3;spacingRight=3;rotatable=0;labelPosition=right;points=[];portConstraint=eastwest;" vertex="1" parent="B8cJNBOPbtHEhD6u9D-m-37">
          <mxGeometry y="156" width="320" height="8" as="geometry" />
        </mxCell>
        <mxCell id="B8cJNBOPbtHEhD6u9D-m-40" value="+ CreateWindow(void* window): void" style="text;strokeColor=none;fillColor=none;align=left;verticalAlign=top;spacingLeft=4;spacingRight=4;overflow=hidden;rotatable=0;points=[[0,0.5],[1,0.5]];portConstraint=eastwest;" vertex="1" parent="B8cJNBOPbtHEhD6u9D-m-37">
          <mxGeometry y="164" width="320" height="26" as="geometry" />
        </mxCell>
        <mxCell id="B8cJNBOPbtHEhD6u9D-m-41" value="+ OnWindowSizeChanged(uint w, unit h): void" style="text;strokeColor=none;fillColor=none;align=left;verticalAlign=top;spacingLeft=4;spacingRight=4;overflow=hidden;rotatable=0;points=[[0,0.5],[1,0.5]];portConstraint=eastwest;" vertex="1" parent="B8cJNBOPbtHEhD6u9D-m-37">
          <mxGeometry y="190" width="320" height="26" as="geometry" />
        </mxCell>
        <mxCell id="B8cJNBOPbtHEhD6u9D-m-43" value="+ SetFov(double fov): void" style="text;strokeColor=none;fillColor=none;align=left;verticalAlign=top;spacingLeft=4;spacingRight=4;overflow=hidden;rotatable=0;points=[[0,0.5],[1,0.5]];portConstraint=eastwest;" vertex="1" parent="B8cJNBOPbtHEhD6u9D-m-37">
          <mxGeometry y="216" width="320" height="26" as="geometry" />
        </mxCell>
        <mxCell id="B8cJNBOPbtHEhD6u9D-m-42" value="+ OnWindowDestroy(): void" style="text;strokeColor=none;fillColor=none;align=left;verticalAlign=top;spacingLeft=4;spacingRight=4;overflow=hidden;rotatable=0;points=[[0,0.5],[1,0.5]];portConstraint=eastwest;" vertex="1" parent="B8cJNBOPbtHEhD6u9D-m-37">
          <mxGeometry y="242" width="320" height="26" as="geometry" />
        </mxCell>
        <mxCell id="B8cJNBOPbtHEhD6u9D-m-47" value="+ SetCameraTextureID(int id): void" style="text;strokeColor=none;fillColor=none;align=left;verticalAlign=top;spacingLeft=4;spacingRight=4;overflow=hidden;rotatable=0;points=[[0,0.5],[1,0.5]];portConstraint=eastwest;" vertex="1" parent="B8cJNBOPbtHEhD6u9D-m-37">
          <mxGeometry y="268" width="320" height="26" as="geometry" />
        </mxCell>
        <mxCell id="B8cJNBOPbtHEhD6u9D-m-48" value="+ DoFrame(): void" style="text;strokeColor=none;fillColor=none;align=left;verticalAlign=top;spacingLeft=4;spacingRight=4;overflow=hidden;rotatable=0;points=[[0,0.5],[1,0.5]];portConstraint=eastwest;" vertex="1" parent="B8cJNBOPbtHEhD6u9D-m-37">
          <mxGeometry y="294" width="320" height="26" as="geometry" />
        </mxCell>
        <mxCell id="B8cJNBOPbtHEhD6u9D-m-17" value="GuidanceInfo" style="swimlane;fontStyle=1;align=center;verticalAlign=top;childLayout=stackLayout;horizontal=1;startSize=26;horizontalStack=0;resizeParent=1;resizeParentMax=0;resizeLast=0;collapsible=1;marginBottom=0;" vertex="1" parent="B8cJNBOPbtHEhD6u9D-m-1">
          <mxGeometry x="80" y="380" width="160" height="208" as="geometry">
            <mxRectangle x="180" y="390" width="110" height="26" as="alternateBounds" />
          </mxGeometry>
        </mxCell>
        <mxCell id="B8cJNBOPbtHEhD6u9D-m-18" value="+ type: short" style="text;strokeColor=none;fillColor=none;align=left;verticalAlign=top;spacingLeft=4;spacingRight=4;overflow=hidden;rotatable=0;points=[[0,0.5],[1,0.5]];portConstraint=eastwest;" vertex="1" parent="B8cJNBOPbtHEhD6u9D-m-17">
          <mxGeometry y="26" width="160" height="26" as="geometry" />
        </mxCell>
        <mxCell id="B8cJNBOPbtHEhD6u9D-m-22" value="+ location: Vector2d" style="text;strokeColor=none;fillColor=none;align=left;verticalAlign=top;spacingLeft=4;spacingRight=4;overflow=hidden;rotatable=0;points=[[0,0.5],[1,0.5]];portConstraint=eastwest;" vertex="1" parent="B8cJNBOPbtHEhD6u9D-m-17">
          <mxGeometry y="52" width="160" height="26" as="geometry" />
        </mxCell>
        <mxCell id="B8cJNBOPbtHEhD6u9D-m-23" value="+ mode: short" style="text;strokeColor=none;fillColor=none;align=left;verticalAlign=top;spacingLeft=4;spacingRight=4;overflow=hidden;rotatable=0;points=[[0,0.5],[1,0.5]];portConstraint=eastwest;" vertex="1" parent="B8cJNBOPbtHEhD6u9D-m-17">
          <mxGeometry y="78" width="160" height="26" as="geometry" />
        </mxCell>
        <mxCell id="B8cJNBOPbtHEhD6u9D-m-24" value="+ road_name: string" style="text;strokeColor=none;fillColor=none;align=left;verticalAlign=top;spacingLeft=4;spacingRight=4;overflow=hidden;rotatable=0;points=[[0,0.5],[1,0.5]];portConstraint=eastwest;" vertex="1" parent="B8cJNBOPbtHEhD6u9D-m-17">
          <mxGeometry y="104" width="160" height="26" as="geometry" />
        </mxCell>
        <mxCell id="B8cJNBOPbtHEhD6u9D-m-25" value="+ distance: float" style="text;strokeColor=none;fillColor=none;align=left;verticalAlign=top;spacingLeft=4;spacingRight=4;overflow=hidden;rotatable=0;points=[[0,0.5],[1,0.5]];portConstraint=eastwest;" vertex="1" parent="B8cJNBOPbtHEhD6u9D-m-17">
          <mxGeometry y="130" width="160" height="26" as="geometry" />
        </mxCell>
        <mxCell id="B8cJNBOPbtHEhD6u9D-m-26" value="+ unit: short" style="text;strokeColor=none;fillColor=none;align=left;verticalAlign=top;spacingLeft=4;spacingRight=4;overflow=hidden;rotatable=0;points=[[0,0.5],[1,0.5]];portConstraint=eastwest;" vertex="1" parent="B8cJNBOPbtHEhD6u9D-m-17">
          <mxGeometry y="156" width="160" height="26" as="geometry" />
        </mxCell>
        <mxCell id="B8cJNBOPbtHEhD6u9D-m-27" value="+ index: uint" style="text;strokeColor=none;fillColor=none;align=left;verticalAlign=top;spacingLeft=4;spacingRight=4;overflow=hidden;rotatable=0;points=[[0,0.5],[1,0.5]];portConstraint=eastwest;" vertex="1" parent="B8cJNBOPbtHEhD6u9D-m-17">
          <mxGeometry y="182" width="160" height="26" as="geometry" />
        </mxCell>
        <mxCell id="B8cJNBOPbtHEhD6u9D-m-33" value="LocationCallback" style="swimlane;fontStyle=1;align=center;verticalAlign=top;childLayout=stackLayout;horizontal=1;startSize=26;horizontalStack=0;resizeParent=1;resizeParentMax=0;resizeLast=0;collapsible=1;marginBottom=0;" vertex="1" parent="B8cJNBOPbtHEhD6u9D-m-1">
          <mxGeometry x="10" y="674" width="230" height="52" as="geometry" />
        </mxCell>
        <mxCell id="B8cJNBOPbtHEhD6u9D-m-36" value="+ OnLocationUpdate(Vector2d): void" style="text;strokeColor=none;fillColor=none;align=left;verticalAlign=top;spacingLeft=4;spacingRight=4;overflow=hidden;rotatable=0;points=[[0,0.5],[1,0.5]];portConstraint=eastwest;" vertex="1" parent="B8cJNBOPbtHEhD6u9D-m-33">
          <mxGeometry y="26" width="230" height="26" as="geometry" />
        </mxCell>
      </root>
    </mxGraphModel>
  </diagram>
</mxfile>
